<svg width="34" height="34" viewBox="0 0 34 34" fill="none" xmlns="http://www.w3.org/2000/svg">
<path d="M34 17.0004C34 7.61065 26.3888 0 17.0003 0C7.61124 0 0 7.61072 0 17.0004C0 26.3888 7.61124 34 17.0003 34C26.3888 34 34 26.3888 34 17.0004Z" fill="#4DBC08"/>
<path d="M6.09804 9.19105C9.10809 6.26965 13.9887 6.26965 16.9987 9.19105H17.0012C20.0114 6.26965 24.8919 6.26965 27.902 9.19105C30.9122 12.1125 30.4781 16.4813 27.902 19.7704C25.1737 23.2535 20.1925 29 17.0012 29H16.9987C13.8074 29 8.82628 23.2535 6.09804 19.7704C3.52179 16.4814 3.08791 12.1125 6.09804 9.19105Z" fill="white"/>
</svg>
