<svg width="34" height="34" viewBox="0 0 34 34" fill="none" xmlns="http://www.w3.org/2000/svg">
<path d="M17 34C26.3888 34 34 26.3888 34 17C34 7.61116 26.3888 0 17 0C7.61116 0 0 7.61116 0 17C0 26.3888 7.61116 34 17 34Z" fill="#4DBC08"/>
<path d="M26.7559 23.9893C25.6638 20.8951 23.152 18.4925 19.985 17.546C21.6231 16.4904 22.7152 14.6338 22.7152 12.5225C22.7152 9.20984 20.0214 6.51605 16.7088 6.51605C13.3961 6.51605 10.7023 9.20984 10.7023 12.5225C10.7023 14.7066 11.8672 16.5996 13.6145 17.6552C10.6295 18.6745 8.26336 21.0043 7.20769 23.9893C6.58884 25.7002 7.89934 27.4839 9.71946 27.4839H24.2441C26.0642 27.4839 27.3747 25.7002 26.7559 23.9893Z" fill="white"/>
</svg>
