<svg width="19" height="19" viewBox="0 0 19 19" fill="none" xmlns="http://www.w3.org/2000/svg">
<g clip-path="url(#clip0)">
<path d="M18.5795 16.5501L13.6225 11.5929C15.9141 8.1804 15.0055 3.55634 11.5929 1.26474C8.18043 -1.02686 3.55637 -0.118149 1.26477 3.29437C-1.02683 6.70689 -0.118161 11.331 3.29436 13.6226C5.8039 15.3078 9.0834 15.3078 11.5929 13.6226L16.5499 18.5798C17.1103 19.1402 18.019 19.1402 18.5795 18.5798C19.1399 18.0193 19.1399 17.1106 18.5795 16.5501ZM7.45022 14.2535C3.69461 14.2493 0.651125 11.2058 0.646932 7.45019C0.646932 3.69284 3.69287 0.646905 7.45022 0.646905C11.2076 0.646905 14.2535 3.69284 14.2535 7.45019C14.2535 11.2075 11.2076 14.2535 7.45022 14.2535ZM18.1323 18.132C17.9818 18.2826 17.7776 18.3672 17.5647 18.3671C17.3518 18.3678 17.1475 18.2832 16.9973 18.1323L12.1695 13.3042L13.3042 12.1695L18.132 16.9976C18.4454 17.3108 18.4455 17.8187 18.1323 18.132Z" fill="#5B5B5B"/>
<path d="M7.61699 1.28192L7.60022 1.91479C9.23779 1.95719 10.7721 2.72418 11.7888 4.00862L12.2843 3.61497C11.1512 2.18399 9.44169 1.32943 7.61699 1.28192Z" fill="#333333"/>
<path d="M12.7461 4.28119L12.2034 4.6068C12.3213 4.80271 12.427 5.0057 12.5198 5.21466L13.097 4.95899C12.994 4.72609 12.8768 4.49972 12.7461 4.28119Z" fill="#333333"/>
</g>
<defs>
<clipPath id="clip0">
<rect width="19" height="19" fill="white"/>
</clipPath>
</defs>
</svg>
