<svg width="23" height="23" viewBox="0 0 23 23" fill="none" xmlns="http://www.w3.org/2000/svg">
<path d="M9.48204 4.96763C8.33795 6.11172 7.70789 7.63282 7.70789 9.25079C7.70789 12.5985 10.417 15.3081 13.7652 15.3081C15.3832 15.3081 16.9043 14.678 18.0484 13.534C19.1924 12.3899 19.8225 10.8688 19.8225 9.25079C19.8225 7.63282 19.1924 6.11168 18.0484 4.96763C16.9043 3.82359 15.3832 3.19348 13.7652 3.19348C12.1472 3.19348 10.6261 3.82354 9.48204 4.96763ZM19.2068 9.25083C19.2068 10.7043 18.6407 12.0708 17.613 13.0986C16.5852 14.1264 15.2187 14.6924 13.7652 14.6924C10.7578 14.6924 8.32362 12.2586 8.32362 9.25083C8.32362 7.79734 8.88965 6.43082 9.91742 5.40305C10.9452 4.37529 12.3117 3.80926 13.7652 3.80926C16.7726 3.80922 19.2068 6.24303 19.2068 9.25083Z" fill="#343953" stroke="#343953" stroke-width="0.5"/>
<path d="M3.42919 22.0158C4.05154 22.0158 4.67393 21.7789 5.14773 21.3051C5.15245 21.3003 9.39768 16.2625 9.4024 16.2569C10.6987 17.0675 12.1985 17.5016 13.7652 17.5016C15.9691 17.5016 18.0412 16.6434 19.5996 15.0849C22.8166 11.8678 22.8166 6.63325 19.5996 3.41615C18.3669 2.18352 16.8082 1.38492 15.092 1.10675C14.9241 1.07954 13.5272 1.14275 13.5 1.31063C13.4728 1.47847 14.8257 1.68739 14.9935 1.71457C16.5813 1.97197 18.0235 2.71093 19.1642 3.85161C22.1412 6.82863 22.1412 11.6726 19.1642 14.6496C17.7221 16.0917 15.8047 16.8859 13.7652 16.8859C12.2495 16.8859 10.7853 16.4492 9.51445 15.5944C5.53623 12.9224 4.96416 7.25362 8.36618 3.85161C9.82436 2.39343 11.7637 1.59939 13.8268 1.61605C15.3907 1.62869 15.858 1.48068 15.8594 1.31063C15.8607 1.14061 14.0018 1.00167 13.8318 1.00027C11.6024 0.982378 9.50657 1.84037 7.9308 3.41619C5.16812 6.17886 4.77798 10.4293 6.76015 13.6122L4.02375 15.9191C3.89375 16.0287 3.87721 16.2229 3.98685 16.3529C4.0964 16.4829 4.29063 16.4995 4.42067 16.3899L7.10712 14.1251C7.60448 14.8029 8.21221 15.4106 8.89018 15.9091C8.88669 15.9133 4.71645 20.8655 4.71234 20.8696C4.00483 21.5772 2.8536 21.5772 2.14608 20.8696C1.35519 20.0788 1.45682 18.7481 2.39539 18.0955C2.4178 18.08 3.30071 17.3335 4.42067 16.3899C4.55066 16.2803 7.28151 13.7422 7.17188 13.6122C7.06228 13.4822 4.15378 15.8095 4.02375 15.9191L2.0318 17.5984C0.794252 18.4697 0.648578 20.243 1.71066 21.3051C2.18446 21.7789 2.80684 22.0158 3.42919 22.0158Z" fill="#343953"/>
<path d="M4.02375 15.9191L6.76015 13.6122C4.77798 10.4293 5.16812 6.17886 7.9308 3.41619C9.50657 1.84037 11.6024 0.982378 13.8318 1.00027C14.0018 1.00167 15.8607 1.14061 15.8594 1.31063C15.858 1.48068 15.3907 1.62869 13.8268 1.61605C11.7637 1.59939 9.82436 2.39343 8.36618 3.85161C4.96416 7.25362 5.53623 12.9224 9.51445 15.5944C10.7853 16.4492 12.2495 16.8859 13.7652 16.8859C15.8047 16.8859 17.7221 16.0917 19.1642 14.6496C22.1412 11.6726 22.1412 6.82863 19.1642 3.85161C18.0235 2.71093 16.5813 1.97197 14.9935 1.71457C14.8257 1.68739 13.4728 1.47847 13.5 1.31063C13.5272 1.14275 14.9241 1.07954 15.092 1.10675C16.8082 1.38492 18.3669 2.18352 19.5996 3.41615C22.8166 6.63325 22.8166 11.8678 19.5996 15.0849C18.0412 16.6434 15.9691 17.5016 13.7652 17.5016C12.1985 17.5016 10.6987 17.0675 9.4024 16.2569C9.39768 16.2625 5.15245 21.3003 5.14773 21.3051C4.67393 21.7789 4.05154 22.0158 3.42919 22.0158C2.80684 22.0158 2.18446 21.7789 1.71066 21.3051C0.648578 20.243 0.794252 18.4697 2.0318 17.5984L4.02375 15.9191ZM4.02375 15.9191C3.89375 16.0287 3.87721 16.2229 3.98685 16.3529C4.0964 16.4829 4.29063 16.4995 4.42067 16.3899M4.02375 15.9191C4.15378 15.8095 7.06228 13.4822 7.17188 13.6122C7.28151 13.7422 4.55066 16.2803 4.42067 16.3899M4.42067 16.3899L7.10712 14.1251C7.60448 14.8029 8.21221 15.4106 8.89018 15.9091C8.88669 15.9133 4.71645 20.8655 4.71234 20.8696C4.00483 21.5772 2.8536 21.5772 2.14608 20.8696C1.35519 20.0788 1.45682 18.7481 2.39539 18.0955C2.4178 18.08 3.30071 17.3335 4.42067 16.3899Z" stroke="#343953" stroke-width="0.5"/>
</svg>
