<svg width="34" height="34" viewBox="0 0 34 34" fill="none" xmlns="http://www.w3.org/2000/svg">
<path d="M17 34C26.3888 34 34 26.3888 34 17C34 7.61116 26.3888 0 17 0C7.61116 0 0 7.61116 0 17C0 26.3888 7.61116 34 17 34Z" fill="#4DBC08"/>
<path d="M25.773 12.0129H14.4154L13.9058 9.24626C13.7602 8.51821 13.1049 7.97217 12.3769 7.97217H7.53534C6.66168 7.97217 5.97003 8.66382 5.97003 9.53748C5.97003 10.4111 6.66168 11.1028 7.53534 11.1028H11.0664L11.7216 14.5974C11.7216 14.6338 11.7216 14.6702 11.7216 14.7066L11.7944 14.9979L12.5225 19.0021C12.5589 19.1478 12.5953 19.257 12.6681 19.4026L12.9229 20.7131C13.1049 21.5867 13.7966 22.242 14.6338 22.4604C14.4154 22.8244 14.2698 23.2612 14.2698 23.7345C14.2698 25.045 15.3255 26.1006 16.636 26.1006C17.9465 26.1006 19.0022 25.045 19.0022 23.7345C19.0022 23.2976 18.8929 22.8972 18.6745 22.5332H21.2591C21.0407 22.8972 20.9315 23.2976 20.9315 23.7345C20.9315 25.045 21.9872 26.1006 23.2977 26.1006C24.6081 26.1006 25.6638 25.045 25.6638 23.7345C25.6638 23.2612 25.5182 22.8244 25.2998 22.4604C26.1007 22.242 26.7559 21.5503 26.9015 20.7131L27.9572 14.7066C28.212 13.2505 27.1563 12.0129 25.773 12.0129Z" fill="white"/>
</svg>
