<svg width="34" height="28" viewBox="0 0 34 28" fill="none" xmlns="http://www.w3.org/2000/svg">
<path d="M29.9015 6.66594H13.1991L12.4497 2.59742C12.2355 1.52675 11.2719 0.723755 10.2013 0.723755H3.08135C1.79655 0.723755 0.779419 1.74089 0.779419 3.02568C0.779419 4.31048 1.79655 5.32761 3.08135 5.32761H8.27407L9.23766 10.4668C9.23766 10.5203 9.23766 10.5739 9.23766 10.6274L9.34473 11.0557L10.4154 16.9443C10.4689 17.1584 10.5225 17.319 10.6295 17.5332L11.0043 19.4604C11.2719 20.7452 12.2891 21.7088 13.5203 22.03C13.1991 22.5653 12.985 23.2077 12.985 23.9036C12.985 25.8308 14.5375 27.3833 16.4646 27.3833C18.3918 27.3833 19.9443 25.8308 19.9443 23.9036C19.9443 23.2612 19.7837 22.6724 19.4625 22.137H23.2634C22.9422 22.6724 22.7816 23.2612 22.7816 23.9036C22.7816 25.8308 24.334 27.3833 26.2612 27.3833C28.1884 27.3833 29.7409 25.8308 29.7409 23.9036C29.7409 23.2077 29.5267 22.5653 29.2055 22.03C30.3833 21.7088 31.3469 20.6916 31.561 19.4604L33.1135 10.6274C33.4882 8.48607 31.9357 6.66594 29.9015 6.66594Z" fill="white"/>
</svg>
