<?xml version="1.0" encoding="utf-8"?>
<!-- Generator: Adobe Illustrator 21.0.2, SVG Export Plug-In . SVG Version: 6.00 Build 0)  -->
<svg version="1.1" id="Слой_1" xmlns="http://www.w3.org/2000/svg" xmlns:xlink="http://www.w3.org/1999/xlink" x="0px" y="0px"
	 viewBox="0 0 580.4 191.7" style="enable-background:new 0 0 580.4 191.7;" xml:space="preserve">
<style type="text/css">
	.st0{fill:#E1DE0E;}
	.st1{fill:#6AB53C;}
	.st2{fill:#FFFFFF;}
	.st3{fill:url(#SVGID_1_);}
	.st4{fill:#E2E0E0;}
	.st5{opacity:0.1;fill:#13110C;}
	.st6{fill:url(#SVGID_2_);}
	.st7{fill:#F4A7AB;}
	.st8{fill:#C4D3EE;}
	.st9{fill:url(#SVGID_3_);}
	.st10{fill:url(#SVGID_4_);}
	.st11{opacity:7.000000e-02;fill:#13110C;}
	.st12{fill:url(#SVGID_5_);}
	.st13{fill:url(#SVGID_6_);}
	.st14{fill:url(#SVGID_7_);}
	.st15{fill:url(#SVGID_8_);}
	.st16{opacity:0.55;fill:#FFFFFF;}
	.st17{fill:url(#SVGID_9_);}
	.st18{fill:url(#SVGID_10_);}
	.st19{fill:url(#SVGID_11_);}
	.st20{fill:url(#SVGID_12_);}
	.st21{opacity:0.2;fill:#3D398C;}
	.st22{opacity:0.4;fill:#3D398C;}
	.st23{opacity:0.26;fill:#3D398C;}
	.st24{fill:url(#SVGID_13_);}
	.st25{fill:url(#SVGID_14_);}
	.st26{opacity:0.2;fill:#13110C;}
	.st27{fill:url(#SVGID_15_);}
	.st28{fill:url(#SVGID_16_);}
	.st29{fill:url(#SVGID_17_);}
	.st30{fill:url(#SVGID_18_);}
	.st31{fill:url(#SVGID_19_);}
	.st32{fill:url(#SVGID_20_);}
	.st33{fill:url(#SVGID_21_);}
	.st34{fill:#DAD9DA;}
	.st35{fill:#DFD9C6;}
	.st36{fill:url(#SVGID_22_);}
	.st37{fill:url(#SVGID_23_);}
	.st38{fill:url(#SVGID_24_);}
	.st39{fill:url(#SVGID_25_);}
	.st40{fill:url(#SVGID_26_);}
	.st41{fill:url(#SVGID_27_);}
	.st42{fill:url(#SVGID_28_);}
	.st43{fill:url(#SVGID_29_);}
	.st44{fill:url(#SVGID_30_);}
	.st45{fill:url(#SVGID_31_);}
	.st46{fill:url(#SVGID_32_);}
	.st47{fill:url(#SVGID_33_);}
	.st48{fill:url(#SVGID_34_);}
	.st49{fill:url(#SVGID_35_);}
	.st50{fill:url(#SVGID_36_);}
	.st51{opacity:0.22;fill:#13110C;}
	.st52{fill:url(#SVGID_37_);}
	.st53{fill:url(#SVGID_38_);}
	.st54{fill:url(#SVGID_39_);}
	.st55{fill:url(#SVGID_40_);}
	.st56{opacity:0.15;fill:#13110C;}
	.st57{fill:url(#SVGID_41_);}
	.st58{opacity:0.22;fill:url(#SVGID_42_);}
	.st59{fill:url(#SVGID_43_);}
	.st60{fill:url(#SVGID_44_);}
	.st61{opacity:0.22;fill:url(#SVGID_45_);}
	.st62{fill:url(#SVGID_46_);}
	.st63{fill:url(#SVGID_47_);}
	.st64{opacity:0.75;fill:#FFFFFF;}
	.st65{opacity:0.37;fill:#FFFFFF;}
	.st66{opacity:0.58;fill:#FFFFFF;}
	.st67{fill:url(#SVGID_48_);}
	.st68{fill:url(#SVGID_49_);}
	.st69{fill:url(#SVGID_50_);}
	.st70{fill:url(#SVGID_51_);}
	.st71{fill:url(#SVGID_52_);}
	.st72{opacity:0.57;fill:#13110C;}
	.st73{fill:url(#SVGID_53_);}
	.st74{fill:url(#SVGID_54_);}
	.st75{fill:url(#SVGID_55_);}
	.st76{fill:url(#SVGID_56_);}
	.st77{fill:url(#SVGID_57_);}
	.st78{fill:#C5C2C2;}
	.st79{fill:url(#SVGID_58_);}
	.st80{fill:url(#SVGID_59_);}
	.st81{fill:url(#SVGID_60_);}
	.st82{fill:url(#SVGID_61_);}
	.st83{fill:url(#SVGID_62_);}
	.st84{opacity:0.56;fill:#974292;}
	.st85{opacity:9.000000e-02;fill:#13110C;}
	.st86{opacity:0.18;fill:#13110C;}
	.st87{opacity:0.18;fill:url(#SVGID_63_);}
	.st88{fill:url(#SVGID_64_);}
	.st89{fill:url(#SVGID_65_);}
	.st90{fill:url(#SVGID_66_);}
	.st91{fill:url(#SVGID_67_);}
	.st92{fill:url(#SVGID_68_);}
	.st93{opacity:0.18;fill:url(#SVGID_69_);}
	.st94{opacity:0.32;fill:url(#SVGID_70_);}
	.st95{opacity:0.21;fill:url(#SVGID_71_);}
	.st96{opacity:0.18;fill:url(#SVGID_72_);}
	.st97{opacity:0.18;fill:url(#SVGID_73_);}
	.st98{opacity:0.18;fill:url(#SVGID_74_);}
	.st99{opacity:0.31;fill:url(#SVGID_75_);}
	.st100{opacity:0.31;fill:url(#SVGID_76_);}
	.st101{fill:url(#SVGID_77_);}
	.st102{fill:url(#SVGID_78_);}
	.st103{fill:url(#SVGID_79_);}
	.st104{fill:url(#SVGID_80_);}
	.st105{fill:url(#SVGID_81_);}
	.st106{fill:url(#SVGID_82_);}
	.st107{opacity:0.24;fill:#13110C;}
	.st108{fill:url(#SVGID_83_);}
	.st109{fill:url(#SVGID_84_);}
	.st110{fill:url(#SVGID_85_);}
	.st111{opacity:0.68;fill:url(#SVGID_86_);}
	.st112{opacity:0.21;fill:#5A3112;}
	.st113{fill:url(#SVGID_87_);}
	.st114{opacity:0.14;fill:url(#SVGID_88_);}
	.st115{opacity:0.86;fill:#FFFFFF;}
</style>
<g>
	<g>
		<path class="st0" d="M103.9,163.9c-4.2,0-8.3-1-12-3.1c-6.1-3.3-10.5-8.8-12.3-15.5L65.7,94.7c-1.9-7-1.6-13.4,0.9-19
			c3-6.7,8.8-11.6,16.4-13.7c2.5-0.7,5-1,7.5-1c4.2,0,8.2,1,11.8,2.9c1.9,1,3.7,2.2,5.3,3.7l0.1-0.3c4.9-11.3,12.5-15.4,18-16.9
			c2.4-0.7,4.8-1,7.1-1c5,0,9.8,1.5,13.9,4.2c2.1,1.4,3.9,3,5.4,4.9c3.6-2.9,8.1-4.8,13.2-5.5c1.5-0.4,2.8-0.6,4.1-0.7l28.1-2
			c0.5,0,0.9,0,1.3,0c3.6,0,6.4,0.9,8.7,2.2c3-1.1,6.1-1.7,9.4-1.7c0.8,0,1.7,0,2.5,0.1l17.5,1.6c10.2,0.9,18.8,4.5,25.5,10.6
			c9-7.5,20.1-11.3,33.2-11.3c14.4,0,26.8,4.8,36,14c5.1-5.4,12.3-8.3,20.5-8.3c8.2,0,15.5,3.3,20.5,9.1c5-5.9,12.2-9.1,20.5-9.1
			c5.1,0,9.9,1.3,14.1,3.7c3.2-1.9,6.9-3,10.9-3.4c0.9-0.1,1.8-0.1,2.6-0.1c6,0,11.5,1.9,16,5.4c1.7,1.3,3.2,2.9,4.5,4.6l0.2-0.3
			c6.9-10.2,15.1-12.9,20.8-13.4c0.8-0.1,1.7-0.1,2.5-0.1c4.5,0,8.9,1.2,12.6,3.3c2.6-1.1,5.4-1.7,8.3-1.9l17.5-1.3
			c1.3-0.1,2.5-0.1,3.8-0.1c10.3,0,19.3,3.1,26.8,9.1c8.6,7,13.6,17.1,14.5,29.2c0.8,11.2-2.3,21.3-8.8,29.3
			c-5.8,7-13.5,11.6-22.7,13.3c-0.3,5.5-2.1,10.5-5.4,14.7c-4.4,5.6-10.9,9.1-18.4,9.6c-0.8,0.1-1.5,0.1-2.2,0.1
			c-4.2,0-8.2-0.9-11.7-2.7c-2.4,0.9-5,1.5-7.8,1.7c-0.8,0.1-1.6,0.1-2.4,0.1c-6.4,0-12.5-2.4-17.1-6.6c-1.1-1-2.1-2.2-3-3.4
			l-0.2,0.4c-1.7,2.7-4.1,5.4-6.9,7.7c-0.3,0.2-0.5,0.4-0.7,0.6c-3.9,2.9-8.4,4.6-13.4,5.1c-0.8,0.1-1.6,0.1-2.3,0.1
			c-3.6,0-7-0.7-10.2-2.1c-3.3,1.4-6.8,2.1-10.6,2.1c-6.1,0-11.4-1.9-15.8-5.2c-4.4,3.4-9.9,5.2-15.9,5.2c-6.1,0-11.7-1.9-16.2-5.4
			c-4.9,3.8-10.7,5.4-15.9,5.4c-6.6,0-12.6-2.3-17.5-6.7c-1-0.9-2-1.9-2.8-2.9c-7.2,3.8-15.5,5.7-24.7,5.7
			c-15.3,0-28.3-5.5-37.8-15.9c-2.9-3.2-5.3-6.7-7.3-10.5c-4.1,1.6-8.6,2.5-13.2,2.6c-1.2,5.4-3.8,10-7.7,13.7
			c-4.6,4.3-10.7,6.6-17.2,6.6c-0.8,0-1.7,0-2.5-0.1c-7.3-0.7-13.4-3.8-17.5-8.6c-4.2,5.2-10.6,8.6-18.4,9.1c-0.8,0-1.5,0.1-2.2,0.1
			c-5.9,0-11.3-1.8-15.6-5c-1,0.4-2,0.7-3.1,1c-2.3,0.6-4.7,1-7,1c-4.8,0-9.3-1.3-13.4-3.9c-1.3-0.8-2.4-1.7-3.5-2.7l-0.2,0.4
			c-1.2,3-3.1,6-5.5,8.9c-0.2,0.2-0.4,0.5-0.6,0.7c-3.3,3.6-7.4,6.1-12.3,7.4C108.5,163.6,106.2,163.9,103.9,163.9z"/>
		<path class="st1" d="M538,93c-0.7-9.4-4.3-16.7-10.7-22c-5.6-4.5-12.4-6.8-20.2-6.8c-1,0-2,0-3.1,0.1l-17.5,1.3
			c-3.9,0.3-7.3,1.8-10,4.3c-0.4-0.5-0.9-1-1.3-1.5c-2.8-2.7-6.4-4.1-10.4-4.1c-0.5,0-1,0-1.6,0.1c-5,0.4-9.4,3.4-13.1,8.8l-13,19.5
			l-0.9-10.5c-0.5-5.8-3.4-9.1-5.7-10.9c-2.7-2.1-6.1-3.2-9.7-3.2c-0.6,0-1.1,0-1.7,0.1c-4.5,0.4-9,2.5-11.5,6.9
			c-0.7-0.9-1.5-1.8-2.3-2.6c-3.3-3-7.5-4.6-12.1-4.6c-6.7,0-10.6,3.1-12.7,5.5c-2.7,3.2-4.8,6.8-6,10.8l-2,6.2l-1.3-3.9
			c-1.6-4.9-3.4-8.7-5.4-11.7c-3-4.5-7.9-6.9-13.8-6.9c-7.5,0-11.7,3.3-14,6.2c-2.1,2.7-3.5,6.4-4.5,11.7l-0.3,1.7
			c-1.8-4.7-4.3-9-7.6-12.7c-7.5-8.3-17.6-12.6-30.2-12.6c-12.5,0-22.7,4.2-30.3,12.6c-1.2,1.4-2.3,2.9-3.4,4.4
			c-1.1-2.1-2.4-4.1-4-5.9c-5.4-6-12.8-9.5-21.9-10.3l-17.5-1.6c-0.5,0-1.1-0.1-1.6-0.1c-3.6,0-6.9,1.1-9.7,3.2
			c-0.2,0.2-0.5,0.4-0.7,0.6c-3-3-4.6-4.4-7.7-4.4c0,0,0,0,0,0c-0.2,0-0.4,0-0.5,0l-28.1,2c-0.8,0.1-1.7,0.2-2.8,0.5l-0.1,0
			c-7.5,0.7-10.8,5.1-12.1,7.7c-1.5,3-2.1,5.9-2,8.8l1.2,16.7l-6.7-24.5c-1.1-4.2-3.5-7.6-6.7-9.8c-2.4-1.6-5.2-2.5-8.1-2.5
			c-1.4,0-2.9,0.2-4.4,0.6c-4.8,1.3-8.6,5-11.3,11l-9.3,21.5l-2.8-10.1c-1.5-5.6-5-8.4-7.5-9.7c-2.2-1.1-4.5-1.7-7-1.7
			c-1.5,0-3.2,0.2-4.8,0.7c-5.8,1.6-8.5,5.2-9.7,7.9c-1.5,3.4-1.6,7.5-0.4,12.1l13.9,50.6c1.1,4,3.6,7.2,7.2,9.2
			c2.2,1.2,4.6,1.8,7.1,1.8c1.4,0,2.8-0.2,4.2-0.6c3-0.8,5.4-2.3,7.3-4.4c0.1-0.1,0.2-0.2,0.3-0.3c1.7-2.1,3.1-4.3,3.9-6.3l9.4-21.6
			l2.7,9.9c1.1,4.1,3.4,7.4,6.7,9.5c2.3,1.5,4.9,2.3,7.7,2.3c1.4,0,2.9-0.2,4.3-0.6c3.3-0.9,5.9-2.4,7.9-4.5
			c2.4,5.1,7.1,8.1,13.4,8.1c0.5,0,1,0,1.5-0.1c9.3-0.6,14.9-7.3,14.2-16.8L185,92.3l13.4-0.9c0.6,0,1.1-0.1,1.6-0.2l-3.2,35.9
			c-0.9,9.7,4.6,16.5,14,17.4c0.5,0,1.1,0.1,1.6,0.1c3.9,0,7.4-1.3,10.1-3.9c2.9-2.7,4.6-6.4,5-10.7l0.6-6.3l4.8,0.4
			c1.1,0.1,2.1,0.1,3.2,0.1c7.3,0,13.7-2.3,18.9-6.9c0.3-0.3,0.6-0.6,0.9-0.9c1.6,7.4,4.8,13.8,9.6,19.1
			c7.6,8.3,17.7,12.5,30.1,12.5c12.3,0,22.2-4,29.6-12c0,0.5,0,0.8,0,1.1c0,4.2,1.7,7.9,4.8,10.8c2.9,2.6,6.6,4,10.5,4
			c3.9,0,12.7-1.4,15.7-13.9l0.6,1.9c2.5,7.6,8.2,11.9,15.8,11.9c7.5,0,13.2-4.4,15.6-12l0.6-2c1.5,8.8,7.3,14,15.4,14
			c4,0,7.7-1.4,10.6-3.9c0.2,0.2,0.5,0.4,0.7,0.6c2.7,2.2,6,3.3,9.5,3.3c0.5,0,0.9,0,1.4-0.1c3-0.3,5.7-1.3,8-3
			c0.1-0.1,0.2-0.2,0.3-0.2c2.1-1.8,3.8-3.7,5-5.5l13.2-19.6l0.9,10.2c0.4,4.2,2.1,7.9,4.9,10.5c2.7,2.5,6.2,3.9,10,3.9
			c0.5,0,1,0,1.5-0.1c3.8-0.3,7-1.6,9.4-3.6c2.6,2.9,6.4,4.5,11,4.5c0.5,0,1,0,1.5,0c4.6-0.3,8.3-2.3,11-5.6c2.4-3.1,3.5-7,3.2-11.4
			l-0.5-6.3l4.8-0.4c8.7-0.6,15.6-4.1,20.7-10.2C536.5,109,538.6,101.5,538,93z M301.9,115.1c-1.5,2.2-3.3,3.1-6.3,3.1
			c-3.8,0-5.4-1.5-6.4-3c-1.7-2.5-2.5-5.9-2.5-10.1c0-4.3,0.8-7.7,2.6-10.2c1.5-2.3,3.4-3.2,6.3-3.2c3,0,4.9,0.9,6.4,3.1
			c1.6,2.5,2.5,6,2.5,10.3C304.5,109.3,303.6,112.7,301.9,115.1z"/>
		<g>
			<path class="st2" d="M154,124.2c1.4,5.1-0.5,8.4-5.6,9.8c-2.2,0.6-4.1,0.4-5.8-0.7c-1.7-1.1-2.8-2.7-3.4-5l-8.5-31l-0.1,0
				l-18.2,41.7c-0.6,1.5-1.5,3-2.8,4.5c-0.9,1-2.1,1.7-3.7,2.1c-2,0.5-3.8,0.3-5.6-0.6c-1.7-0.9-2.9-2.4-3.4-4.4L83.1,89.9
				c-1.6-5.7,0-9.2,4.7-10.5c2.3-0.6,4.4-0.5,6.2,0.4c1.8,0.9,3,2.6,3.6,4.9l8.6,31.4l18.1-41.8c1.6-3.7,3.7-6,6.2-6.6
				c2.3-0.6,4.4-0.4,6.1,0.8c1.7,1.2,2.9,3,3.6,5.4L154,124.2z"/>
			<path class="st2" d="M203.7,76.1c0.1,2-0.3,3.7-1.4,5.2c-1,1.5-2.5,2.3-4.4,2.4l-21.2,1.5l3,43.6c0.4,5.4-2,8.2-7,8.6
				c-5.1,0.4-7.9-2.1-8.2-7.4L161.1,81c0-0.2,0-0.6-0.1-1c0-0.4,0-0.7-0.1-0.8c-0.1-1.4,0.3-3,1.1-4.7c1.1-2.1,3.1-3.3,6.1-3.5
				c0.2,0,0.6-0.1,1.2-0.3c0.6-0.1,1-0.2,1.3-0.3c0.1,0,0.2,0,0.3,0l0.2,0l27.5-1.9c0.1,0,1,0.8,2.7,2.5
				C202.8,72.3,203.5,74,203.7,76.1z"/>
			<path class="st2" d="M257.3,95.9c-0.6,6.6-3,11.7-7.4,15.6c-4.3,3.8-9.7,5.5-16.2,4.9l-12.6-1.1l-1.2,14
				c-0.2,2.4-1.1,4.3-2.6,5.7c-1.5,1.4-3.4,2-5.7,1.8c-5.1-0.5-7.4-3.4-6.9-8.9l4.6-52c0.2-2.2,1.1-3.9,2.7-5.2
				c1.6-1.3,3.6-1.8,5.8-1.6l17.5,1.6c7.2,0.6,12.8,3.2,16.8,7.8C256.2,82.9,257.9,88.7,257.3,95.9z M241.4,94.3
				c0.5-6.2-2.5-9.6-9.2-10.2l-8.3-0.7l-1.6,18.3l8.8,0.8c2.6,0.2,4.9-0.4,7-1.9C240.1,99,241.2,96.9,241.4,94.3z"/>
			<path class="st2" d="M328.7,105.2c0,10.4-3,18.8-8.9,25.3c-5.9,6.5-14,9.8-24.2,9.8c-10.2,0-18.3-3.3-24.4-10
				c-5.8-6.4-8.7-14.7-8.7-25.1c0-10.4,2.9-18.9,8.6-25.3c6-6.7,14.2-10,24.5-10c10.3,0,18.4,3.3,24.4,10
				C325.8,86.3,328.7,94.7,328.7,105.2z M312.2,105.1c0-5.9-1.3-10.8-3.8-14.6c-2.9-4.4-7.2-6.6-12.8-6.6c-5.6,0-9.9,2.2-12.8,6.7
				c-2.6,3.7-3.9,8.5-3.9,14.5c0,5.8,1.3,10.7,3.9,14.5c3,4.2,7.2,6.4,12.8,6.4c5.5,0,9.8-2.2,12.7-6.5
				C310.9,115.7,312.2,111,312.2,105.1z"/>
			<path class="st2" d="M412.2,136.8c0,2.2-0.8,4-2.3,5.3c-1.5,1.4-3.4,2-5.6,2c-4.4,0-7-2.6-7.9-7.9l-5-32.1l-0.2,0l-10.4,33.5
				c-1.4,4.4-4.1,6.6-8.2,6.6c-4.2,0-7-2.2-8.4-6.6l-10.6-33.5h-0.2l-4.3,29.9c-1,6.8-3.9,10.2-8.6,10.2c-2,0-3.8-0.7-5.3-2
				c-1.5-1.4-2.3-3-2.3-5c0-1.1,0.3-3.3,0.8-6.5l7.6-43.6c0.7-3.9,1.7-6.6,2.9-8.3c1.7-2.1,4.3-3.2,7.8-3.2c3.3,0,5.8,1.2,7.4,3.5
				c1.6,2.3,3.1,5.6,4.4,9.8l8.6,26.4l0.3,0.1l9.1-28.9c0.9-3,2.4-5.7,4.4-8.1c1.6-1.9,3.8-2.8,6.8-2.8c2.7,0,5,0.9,6.9,2.6
				c1.9,1.7,3,3.9,3.6,6.6l8.1,46.4C412,133.4,412.2,135.3,412.2,136.8z"/>
			<path class="st2" d="M476.9,131.7c0.5,5.3-1.9,8.1-7.2,8.6c-2.3,0.2-4.1-0.4-5.6-1.7c-1.4-1.4-2.3-3.2-2.5-5.5l-2.8-32l-0.1,0
				l-25.3,37.7c-0.9,1.4-2,2.7-3.5,3.9c-1.1,0.8-2.4,1.3-4,1.4c-2,0.2-3.8-0.4-5.4-1.6c-1.6-1.2-2.4-2.9-2.6-4.9l-4.6-52.3
				c-0.5-5.9,1.6-9.1,6.5-9.5c2.4-0.2,4.4,0.3,6,1.5c1.6,1.2,2.5,3,2.7,5.5l2.8,32.5l25.3-37.9c2.3-3.4,4.7-5.2,7.3-5.4
				c2.4-0.2,4.4,0.4,5.9,1.9c1.5,1.5,2.4,3.4,2.6,5.9L476.9,131.7z"/>
			<path class="st2" d="M530.3,93.5c0.5,6.6-1.1,12.1-4.8,16.6c-3.7,4.5-8.7,6.9-15.2,7.4l-12.6,0.9l1,14c0.2,2.4-0.4,4.4-1.6,6
				c-1.3,1.6-3.1,2.5-5.4,2.7c-5.1,0.4-7.9-2.2-8.3-7.7l-3.7-52.1c-0.2-2.2,0.5-4,1.9-5.5c1.4-1.5,3.2-2.3,5.5-2.5l17.5-1.3
				c7.2-0.5,13.1,1.1,17.8,5C527.2,80.8,529.8,86.4,530.3,93.5z M514.4,94.4c-0.4-6.2-4-9-10.7-8.6l-8.3,0.6l1.3,18.3l8.8-0.6
				c2.6-0.2,4.8-1.2,6.6-3C513.9,99.3,514.6,97.1,514.4,94.4z"/>
		</g>
	</g>
	<g>
		<g>
			
				<radialGradient id="SVGID_1_" cx="522.0167" cy="148.5811" r="10.8897" gradientTransform="matrix(1 0 0 1 -1.731532e-02 0)" gradientUnits="userSpaceOnUse">
				<stop  offset="0" style="stop-color:#FFFFFF"/>
				<stop  offset="0.49" style="stop-color:#FDFDFD"/>
				<stop  offset="0.7023" style="stop-color:#F8F7F8"/>
				<stop  offset="0.8604" style="stop-color:#EDECED"/>
				<stop  offset="0.9916" style="stop-color:#DEDDDD"/>
				<stop  offset="1" style="stop-color:#DDDCDC"/>
			</radialGradient>
			<path class="st3" d="M530.5,146c0,0-9,11.2-15.2,8.5c0,0-3.9-3.4,1.1-7.3l10.5-7.3L530.5,146z"/>
			<path class="st4" d="M526.7,139.7l-10.5,7.3c-1.7,1.3-2.6,2.8-2.7,4.3c-0.1,2,1.5,3.4,1.5,3.5l0,0l0,0c6.3,2.7,15.2-8.1,15.6-8.6
				l0.1-0.2l-3.9-6.5L526.7,139.7z M514.1,151.4C514.1,151.4,514.1,151.3,514.1,151.4c0-1.4,0.9-2.7,2.4-3.9c0,0,9.8-6.8,10.2-7.1
				c0.3,0.4,3.2,5.4,3.4,5.7c-1.1,1.3-9.2,10.7-14.8,8.3C515.2,154.2,514.1,153,514.1,151.4z"/>
			<path class="st5" d="M530.1,146.5c0,0-11.3,12.4-15.2,7.6c0,0,10.2,3.2,13.9-10.2L530.1,146.5z"/>
			
				<radialGradient id="SVGID_2_" cx="530.1414" cy="142.3039" r="6.4055" gradientTransform="matrix(1 0 0 1 -1.731532e-02 0)" gradientUnits="userSpaceOnUse">
				<stop  offset="0" style="stop-color:#FFFFFF"/>
				<stop  offset="0.49" style="stop-color:#FDFDFD"/>
				<stop  offset="0.7023" style="stop-color:#F8F7F8"/>
				<stop  offset="0.8604" style="stop-color:#EDECED"/>
				<stop  offset="0.9916" style="stop-color:#DEDDDD"/>
				<stop  offset="1" style="stop-color:#DDDCDC"/>
			</radialGradient>
			<path class="st6" d="M534.5,144.9c0,0-3.9,1.1-4,1.8c0,0-6.6-4.7-4-6.8c0,0,3.9-5,7.9-3.3L534.5,144.9z"/>
			<path class="st4" d="M526.3,139.8L526.3,139.8c-0.4,0.3-0.7,0.8-0.6,1.4c0.1,2.4,4.5,5.7,4.7,5.8l0.3,0.2l0.1-0.4
				c0.1-0.3,1.9-1.1,3.8-1.6l0.2-0.1l-0.1-8.7l-0.2-0.1C530.3,134.6,526.4,139.5,526.3,139.8z M526.2,141.2
				C526.2,141.2,526.2,141.1,526.2,141.2c0-0.4,0.2-0.8,0.5-1c0.1-0.1,3.7-4.7,7.5-3.3c0,0.4,0.1,7.5,0.1,7.9
				c-1.1,0.3-3.1,1-3.8,1.6C529.5,145.7,526.2,143,526.2,141.2z"/>
			<path class="st5" d="M533.2,138.4c0,0-0.5,0.5,0,2.4c0,0-0.7,4.9-3.5,3.7c0,0,1,1.3,0.4,1.9l3.3-1.2c0,0-0.7-3.1,1-4.3
				C534.4,140.9,533.9,139.9,533.2,138.4z"/>
			<path class="st7" d="M525.8,141.6l0.4,0.2c2.5-4.5,6.9-4.2,7.1-4.1l0.1-0.5C533.4,137.2,528.5,136.8,525.8,141.6z"/>
			<path class="st8" d="M533.9,138.4c0,0-4.3-0.5-7.2,4l1.3,1.8c0,0,5.5-5,6.8-3.9L533.9,138.4z"/>
			<path class="st7" d="M528.8,144.9l0.4,0.3c0,0,3-3.2,4.6-2.1l0.3-0.4C532.1,141.3,528.9,144.8,528.8,144.9z"/>
			
				<radialGradient id="SVGID_3_" cx="571.9633" cy="143.1461" r="9.7976" gradientTransform="matrix(1 0 0 1 -1.731532e-02 0)" gradientUnits="userSpaceOnUse">
				<stop  offset="0" style="stop-color:#FFFFFF"/>
				<stop  offset="0.49" style="stop-color:#FDFDFD"/>
				<stop  offset="0.7023" style="stop-color:#F8F7F8"/>
				<stop  offset="0.8604" style="stop-color:#EDECED"/>
				<stop  offset="0.9916" style="stop-color:#DEDDDD"/>
				<stop  offset="1" style="stop-color:#DDDCDC"/>
			</radialGradient>
			<path class="st9" d="M564.3,144.4c0,0,8,5.7,13.9,2.9c0,0,4-2.2,0.5-5.5c0,0-10.4-5.7-12.9-5.5
				C565.7,136.4,563.4,142.2,564.3,144.4z"/>
			<path class="st4" d="M565.7,136.1l-0.2,0l-0.1,0.2c-0.1,0.2-2.3,6-1.5,8.2l0,0.1l0.1,0c0.3,0.2,8.2,5.8,14.2,3
				c0.1-0.1,1.9-1,2.1-2.7c0.1-1.1-0.4-2.1-1.5-3.2l0,0l0,0C578.4,141.4,568.3,135.9,565.7,136.1z M564.3,143.2
				c0-2.2,1.3-5.8,1.6-6.5c2.2,0,9.1,3.5,12.6,5.4c0.9,0.8,1.4,1.7,1.4,2.5c0,0.1,0,0.2,0,0.3c-0.2,1.4-1.8,2.3-1.8,2.3
				c-5.3,2.5-12.7-2.3-13.5-2.9C564.4,144,564.3,143.6,564.3,143.2z"/>
			
				<radialGradient id="SVGID_4_" cx="562.6441" cy="141.0535" r="7.1004" gradientTransform="matrix(1 0 0 1 -1.731532e-02 0)" gradientUnits="userSpaceOnUse">
				<stop  offset="0" style="stop-color:#FFFFFF"/>
				<stop  offset="0.49" style="stop-color:#FDFDFD"/>
				<stop  offset="0.7023" style="stop-color:#F8F7F8"/>
				<stop  offset="0.8604" style="stop-color:#EDECED"/>
				<stop  offset="0.9916" style="stop-color:#DEDDDD"/>
				<stop  offset="1" style="stop-color:#DDDCDC"/>
			</radialGradient>
			<path class="st10" d="M560.6,145.7c0,0,0.7-2.7,3.3-0.6c0,0,0.7,0.7,1.1,0.5c0,0,0.7-8.5,2.8-8.8c0,0-3.7-3.4-9.4-1.2
				C558.4,135.5,555.6,143.3,560.6,145.7z"/>
			<path class="st4" d="M558.3,135.3l-0.1,0l0,0.1c0,0.1-2.8,8.1,2.3,10.5l0.3,0.1l0.1-0.3c0,0,0.3-0.9,1-1.1
				c0.5-0.2,1.1,0.1,1.9,0.7c0.1,0.1,0.9,0.9,1.4,0.5l0.1-0.1l0-0.1c0.3-3.2,1.2-8.4,2.6-8.5l0.6-0.1l-0.4-0.4
				C568,136.5,564.1,133.1,558.3,135.3z M567.3,136.7c-1.7,1.2-2.4,7.2-2.5,8.6c-0.1,0-0.4-0.2-0.7-0.4c-0.9-0.8-1.7-1-2.4-0.8
				c-0.7,0.2-1,0.8-1.2,1.2c-2-1.1-2.6-3.2-2.6-5.2c0-2,0.5-3.9,0.7-4.3C563.1,134.1,566.3,136,567.3,136.7z"/>
			<path class="st11" d="M558.8,139.1c0,0,4.1,2.4,5.4,1.6c0,0-0.5,3.7,1,4.5c0,0,0,1.2-2.7-1c0,0-1.2-0.5-1.6,0.9
				C560.9,145.1,557.1,141.8,558.8,139.1z"/>
			<path class="st8" d="M558.6,137.9c0,0,2.9-1.5,7.6,0.6l-0.9,3l-6.6,0.2C558.7,141.8,557.4,138.1,558.6,137.9z"/>
			<path class="st7" d="M559.2,136.1l0.4,0.3c0.1-0.1,3.4-2.4,7.2,0.8l0.3-0.4C562.9,133.4,559.2,136.1,559.2,136.1z"/>
			<path class="st7" d="M558.9,142.6l0.2,0.4c0.1,0,2.7-1.4,5.8,0.6l0.3-0.4C561.9,141.1,559,142.5,558.9,142.6z"/>
			<linearGradient id="SVGID_5_" gradientUnits="userSpaceOnUse" x1="546.5494" y1="137.449" x2="547.2809" y2="164.5156">
				<stop  offset="5.618000e-03" style="stop-color:#4775B9"/>
				<stop  offset="0.1067" style="stop-color:#76CAE7"/>
				<stop  offset="1" style="stop-color:#4468B0"/>
			</linearGradient>
			<path class="st12" d="M534,136c0,0-1.6,1.1,0.4,4.9c0,0-1.8,1.6-1.1,3.8c0,0-0.7,3.9-3.2,5.6c0,0-1.5,2.1-1.9,4.6
				c0,0,0,1.7-0.5,1.8c0,0-1,0.5-0.9,4.6l11.3,14.6c0,0,2-0.5,5.1-6.3c0,0,0.4-1.2,1.3-1.1c0,0,1.7-1.1,1.8-1.5
				c0.1-0.4,2.3,1.9,2.3,1.9s14,0.9,15.8-2.1c0,0,3.1-7.2,2.8-9.6c0,0-0.1-8.4-4.6-11.2c0,0-3.4-1.3-3.5-4.9c0,0-0.2-1.3-0.7-1.7
				c0,0,0.6-3.3,1.7-3.9l-1.3-0.9L534,136z"/>
			
				<radialGradient id="SVGID_6_" cx="547.3995" cy="144.1387" r="4.4856" gradientTransform="matrix(1 0 0 1 -1.731532e-02 0)" gradientUnits="userSpaceOnUse">
				<stop  offset="0.3202" style="stop-color:#414F9D"/>
				<stop  offset="0.8989" style="stop-color:#13110C"/>
			</radialGradient>
			<path class="st13" d="M550.4,144.4c0,2-1.7,3.7-3.7,3.7c-2.1,0-3.7-1.7-3.7-3.7c0-2.1,1.7-3.7,3.7-3.7
				C548.7,140.7,550.4,142.3,550.4,144.4z"/>
			
				<radialGradient id="SVGID_7_" cx="546.5419" cy="145.4759" r="3.8059" gradientTransform="matrix(1 0 0 1 -1.731532e-02 0)" gradientUnits="userSpaceOnUse">
				<stop  offset="5.618000e-03" style="stop-color:#54B7E9"/>
				<stop  offset="1" style="stop-color:#404596"/>
			</radialGradient>
			<circle class="st14" cx="546.4" cy="144.1" r="3.7"/>
			
				<radialGradient id="SVGID_8_" cx="546.9161" cy="144.6225" r="6.2196" gradientTransform="matrix(1 0 0 1 -1.731532e-02 0)" gradientUnits="userSpaceOnUse">
				<stop  offset="0.2416" style="stop-color:#414F9D"/>
				<stop  offset="1" style="stop-color:#13110C"/>
			</radialGradient>
			<circle class="st15" cx="546.4" cy="144.1" r="2.7"/>
			<path class="st16" d="M549,143.2c0,0,0.9,1.5-1.1,3.3C547.9,146.5,550.3,145.2,549,143.2z"/>
			
				<radialGradient id="SVGID_9_" cx="545.6153" cy="143.683" r="0.5541" gradientTransform="matrix(1 0 0 1 -1.731532e-02 0)" gradientUnits="userSpaceOnUse">
				<stop  offset="0" style="stop-color:#13110C"/>
				<stop  offset="1" style="stop-color:#414F9D"/>
			</radialGradient>
			<circle class="st17" cx="545.8" cy="143.8" r="0.4"/>
			
				<radialGradient id="SVGID_10_" cx="546.9147" cy="143.683" r="0.5542" gradientTransform="matrix(1 0 0 1 -1.731532e-02 0)" gradientUnits="userSpaceOnUse">
				<stop  offset="0" style="stop-color:#13110C"/>
				<stop  offset="1" style="stop-color:#414F9D"/>
			</radialGradient>
			<ellipse class="st18" cx="547.1" cy="143.8" rx="0.4" ry="0.4"/>
			
				<radialGradient id="SVGID_11_" cx="545.6522" cy="144.9388" r="0.5553" gradientTransform="matrix(1 0 0 1 -1.731532e-02 0)" gradientUnits="userSpaceOnUse">
				<stop  offset="0" style="stop-color:#13110C"/>
				<stop  offset="1" style="stop-color:#414F9D"/>
			</radialGradient>
			<path class="st19" d="M546.2,145.1c0,0.2-0.2,0.4-0.4,0.4c-0.3,0-0.5-0.2-0.5-0.4c0-0.2,0.2-0.5,0.5-0.5
				C546,144.6,546.2,144.8,546.2,145.1z"/>
			
				<radialGradient id="SVGID_12_" cx="547.0338" cy="144.9388" r="0.5553" gradientTransform="matrix(1 0 0 1 -1.731532e-02 0)" gradientUnits="userSpaceOnUse">
				<stop  offset="0" style="stop-color:#13110C"/>
				<stop  offset="1" style="stop-color:#414F9D"/>
			</radialGradient>
			<circle class="st20" cx="547.2" cy="145.1" r="0.4"/>
			<path class="st21" d="M533.4,145.2c0,0,2.3-0.5-0.2,2.9c0,0-1,0.8-1.7,1.8c-0.8,1-1.3,2.3-0.2,3.3c0,0,6,1,2.6,2.3
				c0,0-4.7,2.1-3.3,2.6l-3.8,3.3c0,0-0.5-3.8,2-5.1c0,0-1.7-1.4,1.3-6C530.1,150.3,532.5,148,533.4,145.2z"/>
			<path class="st21" d="M543.6,145.7c0,0-1.5,1.5,0.5,2.6c0,0,1.8-0.3,3.1-0.5c0,0,4.9,0.8,4.2-1.9c0,0-0.2-2.5-2.9-2.3
				L543.6,145.7z"/>
			<path class="st21" d="M566.8,157.7c0-1.2-0.2-3-1.1-5.4c0,0,0.8-4.6-4.2-6.7c0,0-1.8-0.5-2.8-3.7c0,0,0.3-4.5-0.3-5.5
				c0,0-1.3,0.8-1.9,7.2c0,0-0.5,3.2,2.6,4.2c0,0,1.6-2.4,1.1,1.6c0,0,0.7,10.6-18.9,8.9c0,0-1.7,2.5,6.6,2.6
				c-4.1,1.3-7.7-0.8-7.7-0.8c-3.6-2.4-2.6,0.5-2.6,0.5l-1,13.8c3.4,4.1,7.1-5.9,7.1-5.9c1.3,0,2.7-1.4,2.7-1.4l13.6-0.8
				c5.8,2,6-4.7,6-4.7C566.7,159.5,566.8,158.3,566.8,157.7z"/>
			<path class="st22" d="M559,141.2c0,0,1,3.3,2.9,4.6C561.9,145.8,558.8,148.8,559,141.2z"/>
			<path class="st23" d="M529.6,153.3c0,0,0.4,1.5,4,1.2c0,0,2.1,0.1-3.9,1.6C529.7,156.1,526.9,156.9,529.6,153.3z"/>
			<path class="st23" d="M565.9,153.3c0,0,1.7,10.2-2.3,13.3c0,0-6.2-1.3-3.1-3.7C560.5,162.9,565.4,163.3,565.9,153.3z"/>
			<path class="st23" d="M539.5,160.7c0,0,4,5.7,9.5,3.8c0,0,0.7,4-1.1,3.4l-1.2-1.1c0,0-1.6,2.1-3.4,1.5c0,0-2.9,7.4-5.6,6.2
				L539.5,160.7z"/>
			
				<radialGradient id="SVGID_13_" cx="533.287" cy="168.8864" r="12.6077" gradientTransform="matrix(1 0 0 1 -1.731532e-02 0)" gradientUnits="userSpaceOnUse">
				<stop  offset="0" style="stop-color:#FFFFFF"/>
				<stop  offset="0.49" style="stop-color:#FDFDFD"/>
				<stop  offset="0.7023" style="stop-color:#F8F7F8"/>
				<stop  offset="0.8604" style="stop-color:#EDECED"/>
				<stop  offset="0.9916" style="stop-color:#DEDDDD"/>
				<stop  offset="1" style="stop-color:#DDDCDC"/>
			</radialGradient>
			<path class="st24" d="M531.7,157.5c0,0,2.2-1.8,4.8,1c0,0,9.8,7.7,2.9,16.5c0,0-6.2,7.6-13.7-2.1
				C525.7,172.8,522,160.4,531.7,157.5z"/>
			<path class="st4" d="M531.6,157.2c-2.5,0.8-4.4,2.2-5.5,4.4c-1,1.9-1.3,4.1-1.3,6c0,2.9,0.7,5.2,0.7,5.4l0,0l0,0
				c2.5,3.3,5.2,5,7.9,5c3.6,0.1,6-2.8,6.1-2.9c6.9-8.9-2.9-16.8-3-16.9C534.1,155.4,531.8,157.1,531.6,157.2z M525.3,167.6
				c0-1.9,0.3-3.9,1.3-5.7c1.1-2,2.8-3.4,5.2-4.1l0,0l0,0c0.1-0.1,2-1.6,4.4,0.9c0.4,0.3,9.5,7.7,2.9,16.1c0,0-2.3,2.8-5.7,2.7
				c-2.6,0-5.1-1.6-7.5-4.7C525.9,172.5,525.3,170.2,525.3,167.6z"/>
			
				<radialGradient id="SVGID_14_" cx="556.1355" cy="169.2309" r="12.4578" gradientTransform="matrix(1 0 0 1 -1.731532e-02 0)" gradientUnits="userSpaceOnUse">
				<stop  offset="0" style="stop-color:#FFFFFF"/>
				<stop  offset="0.49" style="stop-color:#FDFDFD"/>
				<stop  offset="0.7023" style="stop-color:#F8F7F8"/>
				<stop  offset="0.8604" style="stop-color:#EDECED"/>
				<stop  offset="0.9916" style="stop-color:#DEDDDD"/>
				<stop  offset="1" style="stop-color:#DDDCDC"/>
			</radialGradient>
			<path class="st25" d="M552.8,158.5c0,0,5.8-1.2,11.7,6.7c0,0,3.7,10.4-5,11.8c0,0-9.5,2.3-12.2-7.3
				C547.3,169.7,546.5,158.1,552.8,158.5z"/>
			<path class="st4" d="M552.8,158.2c-1.3-0.1-2.5,0.4-3.4,1.3c-2.9,2.9-2.4,10-2.4,10.2c2.7,9.8,12.4,7.6,12.5,7.6
				c2.3-0.4,4-1.4,4.9-3.1c2.1-3.6,0.3-8.9,0.2-9.1l0,0l0,0C558.9,157.2,553.2,158.1,552.8,158.2z M552.9,158.7
				c0.1,0,5.7-1.1,11.4,6.6c0.1,0.2,0.7,2.2,0.7,4.5c0,1.4-0.2,2.8-1,4c-0.9,1.5-2.4,2.5-4.6,2.8c-0.4,0.1-9.3,2.1-11.9-7.1
				c0,0-0.5-7,2.3-9.8C550.6,159,551.6,158.7,552.9,158.7L552.9,158.7L552.9,158.7z"/>
			<path class="st26" d="M556,137l-19.4,1.1c0,0-0.1,1.4,0.7,2.5c0.1,0.2,0.3,0.4,0.5,0.6c0.1,0.2,0.3,0.3,0.5,0.4
				c0.5,0.3,1.2,0.5,2.2,0.4c0.2,0,0.4,0,0.7-0.1c0.2,0,0.3-0.1,0.5-0.1c0.9-0.2,1.9-0.6,3.1-1.2c0,0,0.9-1.1,1.8-1.1
				c0,0,2.1,1.1,4,1.8c0.2,0.1,0.4,0.1,0.6,0.2c0.2,0.1,0.4,0.1,0.6,0.1c0.9,0.2,1.8,0.2,2.2-0.2c0,0,0.2-0.1,0.5-0.3
				c0.1-0.1,0.3-0.2,0.5-0.4c0.1-0.1,0.3-0.3,0.4-0.4C555.9,139.7,556.4,138.6,556,137z"/>
			<path class="st2" d="M554.4,137.5l0.5,2.4c0.6-0.7,1.1-1.8,0.7-3.4l-19.4,1.1c0,0-0.1,1.4,0.7,2.5l0.1-2l0.5,0l-0.1,2.6
				c0.2,0.2,0.3,0.3,0.6,0.4l0.5-3l2.1,0.2l-0.4,3.3c0.2,0,0.5,0,0.7-0.1l0.3-2.4l0.5,0.1l-0.3,2.3c0.9-0.2,1.9-0.6,3.1-1.2
				c0,0,0.9-1.1,1.8-1.1c0,0,2.1,1.1,4,1.8l-0.7-2.2l0.5-0.2l0.8,2.6c0.2,0.1,0.4,0.1,0.6,0.1l-0.5-2.8l2.4-0.8l0.7,3.2
				c0.2-0.1,0.3-0.2,0.5-0.4l-0.6-2.7L554.4,137.5z"/>
			<path class="st8" d="M538.4,138.1l-0.5,3c0.5,0.3,1.3,0.5,2.2,0.4l0.4-3.3L538.4,138.1z"/>
			<path class="st7" d="M537,138.1l-0.1,2c0.1,0.2,0.3,0.4,0.5,0.6l0.1-2.6L537,138.1z"/>
			<path class="st7" d="M541.1,139l-0.3,2.4c0.2,0,0.3-0.1,0.5-0.1l0.3-2.3L541.1,139z"/>
			<path class="st7" d="M549.5,138.6l0.7,2.2c0.2,0.1,0.4,0.1,0.6,0.2l-0.8-2.6L549.5,138.6z"/>
			<path class="st7" d="M554.9,139.9l-0.5-2.4l-0.5,0.1l0.6,2.7C554.6,140.2,554.8,140.1,554.9,139.9z"/>
			<path class="st8" d="M550.9,138.4l0.5,2.8c1,0.2,1.8,0.2,2.2-0.2c0,0,0.2-0.1,0.5-0.3l-0.7-3.2L550.9,138.4z"/>
			<path class="st26" d="M535.8,137.4c0,0,1.3,3.1,10.4,2.4c0,0,14.8,0,11.5-3.7L535.8,137.4z"/>
			
				<radialGradient id="SVGID_15_" cx="560.5759" cy="103.4542" r="13.2124" gradientTransform="matrix(1 0 0 1 -1.731532e-02 0)" gradientUnits="userSpaceOnUse">
				<stop  offset="0" style="stop-color:#FFFFFF"/>
				<stop  offset="0.49" style="stop-color:#FDFDFD"/>
				<stop  offset="0.7023" style="stop-color:#F8F7F8"/>
				<stop  offset="0.8604" style="stop-color:#EDECED"/>
				<stop  offset="0.9916" style="stop-color:#DEDDDD"/>
				<stop  offset="1" style="stop-color:#DDDCDC"/>
			</radialGradient>
			<path class="st27" d="M551.3,106.7c0,0,0.9-0.1,2.4-5.6c0,0,5.2-12.6,14-8.5c0,0,7.4,6.2-4.4,16.1l-4.9,3.5L551.3,106.7z"/>
			<path class="st4" d="M561.6,92c-5.1,2-7.9,8.7-8,9c-1.4,5-2.2,5.4-2.3,5.4l-0.4,0.2l0.3,0.3l7.4,5.6l5-3.7
				c4.5-3.8,6.8-7.5,6.8-11c0-3.5-2.3-5.5-2.4-5.6l0,0l0,0C565.8,91.3,563.6,91.2,561.6,92z M554,101.1c0,0,2.9-6.7,7.7-8.6
				c1.9-0.7,3.9-0.7,5.9,0.3c0.2,0.2,2.2,2,2.2,5.1c0,0,0,0,0,0c0,3.3-2.2,6.9-6.6,10.5c0,0-4.4,3.2-4.7,3.4
				c-0.3-0.2-6.3-4.8-6.8-5.1C552.2,106.1,553,104.8,554,101.1z"/>
			
				<radialGradient id="SVGID_16_" cx="532.1349" cy="101.6342" r="11.9358" gradientTransform="matrix(1 0 0 1 -1.731532e-02 0)" gradientUnits="userSpaceOnUse">
				<stop  offset="0" style="stop-color:#FFFFFF"/>
				<stop  offset="0.49" style="stop-color:#FDFDFD"/>
				<stop  offset="0.7023" style="stop-color:#F8F7F8"/>
				<stop  offset="0.8604" style="stop-color:#EDECED"/>
				<stop  offset="0.9916" style="stop-color:#DEDDDD"/>
				<stop  offset="1" style="stop-color:#DDDCDC"/>
			</radialGradient>
			<path class="st28" d="M539,107.9c0,0,2.6-9.4-2.9-14.1c0,0-11.6-11.3-11.2,3.4c0,0-0.4,5.9,5.6,9.9l4.5,3.5L539,107.9z"/>
			<path class="st4" d="M527.2,89.6c-1.8,0.8-2.7,3.4-2.6,7.6c0,0-0.3,6,5.7,10.1l4.6,3.6l4.3-2.9l0-0.1c0-0.1,2.5-9.6-3-14.4
				C536.1,93.3,530.7,88.1,527.2,89.6z M530.7,106.8c-5.3-3.5-5.5-8.6-5.5-9.5c0-0.1,0-0.1,0-0.1c0-0.2,0-0.5,0-0.7
				c0-3.6,0.8-5.8,2.3-6.4c3.1-1.3,8.4,3.8,8.5,3.9c2.8,2.4,3.4,6,3.4,9c0,2.4-0.4,4.4-0.5,4.8c-0.2,0.1-3.5,2.3-3.8,2.5
				C534.7,110,530.7,106.8,530.7,106.8z"/>
			<linearGradient id="SVGID_17_" gradientUnits="userSpaceOnUse" x1="556.9083" y1="107.7237" x2="563.3807" y2="98.1445">
				<stop  offset="0" style="stop-color:#BD2987"/>
				<stop  offset="0.1566" style="stop-color:#C1358B"/>
				<stop  offset="0.6986" style="stop-color:#CE579B"/>
				<stop  offset="1" style="stop-color:#D364A2"/>
			</linearGradient>
			<path class="st29" d="M556.5,107.9c0,0-0.5-10.6,6.7-12.4c0,0,5.9-2.2,2.1,6.2C565.3,101.7,560.6,109,556.5,107.9z"/>
			<linearGradient id="SVGID_18_" gradientUnits="userSpaceOnUse" x1="557.6382" y1="107.4776" x2="564.1105" y2="97.8986">
				<stop  offset="0" style="stop-color:#D0569B"/>
				<stop  offset="9.450948e-02" style="stop-color:#D56BA6"/>
				<stop  offset="0.3584" style="stop-color:#E39BC4"/>
				<stop  offset="0.558" style="stop-color:#ECB7D5"/>
				<stop  offset="0.6685" style="stop-color:#EFC1DB"/>
				<stop  offset="1" style="stop-color:#F4D2E6"/>
			</linearGradient>
			<path class="st30" d="M557.2,107.6c0,0-0.5-10.6,6.7-12.4c0,0,5.9-2.2,2.1,6.2C566,101.4,561.4,108.8,557.2,107.6z"/>
			<linearGradient id="SVGID_19_" gradientUnits="userSpaceOnUse" x1="529.3146" y1="103.3358" x2="533.1667" y2="97.6346">
				<stop  offset="0" style="stop-color:#BD2987"/>
				<stop  offset="0.1566" style="stop-color:#C1358B"/>
				<stop  offset="0.6986" style="stop-color:#CE579B"/>
				<stop  offset="1" style="stop-color:#D364A2"/>
			</linearGradient>
			<path class="st31" d="M536.2,107.1c0,0,1.8-9-4.3-12.9c0,0-7.8-5.1-5.5,4.6C526.4,98.8,528.1,104.9,536.2,107.1z"/>
			<linearGradient id="SVGID_20_" gradientUnits="userSpaceOnUse" x1="529.0501" y1="103.4664" x2="532.7676" y2="97.9645">
				<stop  offset="0" style="stop-color:#D0569B"/>
				<stop  offset="9.450948e-02" style="stop-color:#D56BA6"/>
				<stop  offset="0.3584" style="stop-color:#E39BC4"/>
				<stop  offset="0.558" style="stop-color:#ECB7D5"/>
				<stop  offset="0.6685" style="stop-color:#EFC1DB"/>
				<stop  offset="1" style="stop-color:#F4D2E6"/>
			</linearGradient>
			<path class="st32" d="M535.6,107.1c0,0,1.7-8.7-4-12.5c0,0-7.4-4.9-5.2,4.4C526.4,99,528,105,535.6,107.1z"/>
			
				<radialGradient id="SVGID_21_" cx="545.2039" cy="124.7847" r="24.7703" gradientTransform="matrix(1 0 0 1 -1.731532e-02 0)" gradientUnits="userSpaceOnUse">
				<stop  offset="0" style="stop-color:#FFFFFF"/>
				<stop  offset="0.49" style="stop-color:#FDFDFD"/>
				<stop  offset="0.7023" style="stop-color:#F8F7F8"/>
				<stop  offset="0.8604" style="stop-color:#EDECED"/>
				<stop  offset="0.9916" style="stop-color:#DEDDDD"/>
				<stop  offset="1" style="stop-color:#DDDCDC"/>
			</radialGradient>
			<path class="st33" d="M539.8,106.3c0,0,6.1-3.3,12.4,0c0,0,8.9,2.4,11.5,13c0,0,3.8,11.5-6.2,17.7c0,0-8.5,4.8-21.3,1.2
				c0,0-13-5-8.4-18.2C527.7,120.1,531.2,108.7,539.8,106.3z"/>
			<path class="st4" d="M539.7,106c-8.6,2.5-12.2,13.8-12.2,14c-0.7,2-1,3.8-1,5.5c0,9.2,9.5,13,9.6,13c12.8,3.5,21.5-1.2,21.6-1.2
				c10.1-6.3,6.4-17.9,6.3-18c-2.6-10.6-11.6-13.2-11.6-13.2C546,102.8,539.8,105.9,539.7,106z M536.2,138
				c-0.5-0.2-12.7-5.1-8.2-17.8c0-0.1,3.6-11.2,11.9-13.6l0,0l0,0c0.1,0,6-3.2,12.2,0c0.1,0,8.8,2.6,11.3,12.9
				c0,0.1,3.6,11.4-6.1,17.4C557.2,136.8,548.7,141.4,536.2,138z"/>
			<path class="st2" d="M540.1,111.8c0,0,4.6-2.5,9.5,0c0,0,6.8,1.9,8.7,9.9c0,0,2.9,8.7-4.7,13.5c0,0-6.5,3.6-16.3,0.9
				c0,0-9.9-3.8-6.4-13.8C530.9,122.2,533.6,113.6,540.1,111.8z"/>
			<path class="st34" d="M544.2,119.1c0,1.2,0,2.4,0.1,3.6c0.2,1.1,0.5,3.7,0.5,5.1c0,0.4,0,0.8-0.1,1c-0.3,1.5-0.8,4.2-0.8,6
				c0,0.8,0.1,1.4,0.3,1.7c0,0.2-0.1,0.6-0.1,1.1c0,0.8,0.1,1.8,0.7,2.2l0.3-0.4c-0.5-0.4-1.1-1.9-0.9-2.9l0.6-0.2l-0.1-0.1
				c-0.4-0.3-0.7-3.8,0-7.5c-0.1,0.2,0.9-0.7,0.2-6.2c-0.6-8.7,1.3-17.5,1.3-17.6l0,0C546.2,105.1,544.2,111.6,544.2,119.1z"/>
			<path class="st35" d="M537.6,133.5c0,0,0.3-0.3,1.4,1c0.2,0.2,1.2,0.8,1.4,1c0,0,3.7,2.3,8.3,0.4c0,0,3.7-1.8,4.8-1.3
				c0,0,0.1,0.1-2.2,1c0,0-2.2,0-4.4,1.3c0,0-2.2,0.7-5.5-0.6c0,0-0.8-0.9-1.7-0.9C539.6,135.4,536.7,134.7,537.6,133.5z"/>
			
				<radialGradient id="SVGID_22_" cx="535.344" cy="123.9742" r="2.5295" gradientTransform="matrix(1 0 0 1 -1.731532e-02 0)" gradientUnits="userSpaceOnUse">
				<stop  offset="0.3202" style="stop-color:#414F9D"/>
				<stop  offset="0.8989" style="stop-color:#13110C"/>
			</radialGradient>
			<ellipse class="st36" cx="536" cy="124.6" rx="1.8" ry="2.3"/>
			
				<radialGradient id="SVGID_23_" cx="554.0037" cy="123.3649" r="2.5261" gradientTransform="matrix(1 0 0 1 -1.731532e-02 0)" gradientUnits="userSpaceOnUse">
				<stop  offset="0.3202" style="stop-color:#414F9D"/>
				<stop  offset="0.8989" style="stop-color:#13110C"/>
			</radialGradient>
			<path class="st37" d="M556.5,124c0,1.2-0.8,2.3-1.8,2.3c-1,0-1.8-1-1.8-2.3c0-1.2,0.8-2.3,1.8-2.3
				C555.6,121.8,556.5,122.8,556.5,124z"/>
			<linearGradient id="SVGID_24_" gradientUnits="userSpaceOnUse" x1="543.8953" y1="132.0627" x2="545.619" y2="129.5117">
				<stop  offset="0" style="stop-color:#BC328A"/>
				<stop  offset="6.909883e-02" style="stop-color:#BF398D"/>
				<stop  offset="0.4544" style="stop-color:#CE5B9E"/>
				<stop  offset="0.6685" style="stop-color:#D468A5"/>
				<stop  offset="1" style="stop-color:#E3D5E3"/>
			</linearGradient>
			<path class="st38" d="M542.5,129.8c0,0,2.7-3,5.4,0.5c0,0-1.2,2.3-3.2,2.3C544.7,132.6,542.3,131.7,542.5,129.8z"/>
			<linearGradient id="SVGID_25_" gradientUnits="userSpaceOnUse" x1="544.0061" y1="131.8844" x2="545.5375" y2="129.6179">
				<stop  offset="0" style="stop-color:#D05399"/>
				<stop  offset="0.1586" style="stop-color:#D66BA6"/>
				<stop  offset="0.5455" style="stop-color:#E39BC4"/>
				<stop  offset="0.838" style="stop-color:#ECB7D5"/>
				<stop  offset="1" style="stop-color:#EFC1DB"/>
			</linearGradient>
			<path class="st39" d="M542.8,129.9c0,0,2.4-2.7,4.8,0.5c0,0-1,2-2.8,2C544.7,132.4,542.6,131.6,542.8,129.9z"/>
			<path class="st2" d="M554.4,122.5c0,0-1.5,0.1-0.8,1.9c0,0,0.8,0,0.6-1C554.1,123.5,553,123.8,554.4,122.5z"/>
			<path class="st2" d="M535.7,123.2c0,0-1.5,0.1-0.8,1.9c0,0,0.8,0,0.6-0.9C535.4,124.1,534.3,124.4,535.7,123.2z"/>
			<path class="st2" d="M543.3,129.5c0,0,2.6-1.7,4.1,1c0,0-1.8,2.2-2.8,1.6c0,0,0.9,0.3,1.9-1.1c0,0,0.7-1-0.2-1.2
				C546.2,129.8,545.6,128.9,543.3,129.5z"/>
			
				<radialGradient id="SVGID_26_" cx="534.1102" cy="130.6042" r="2.4366" gradientTransform="matrix(1 0 0 1 -1.731532e-02 0)" gradientUnits="userSpaceOnUse">
				<stop  offset="0" style="stop-color:#F4D6E8"/>
				<stop  offset="1" style="stop-color:#FFFFFF"/>
			</radialGradient>
			<path class="st40" d="M536.5,130.6c0,1.3-1.1,2.4-2.4,2.4c-1.3,0-2.4-1.1-2.4-2.4s1.1-2.4,2.4-2.4
				C535.4,128.2,536.5,129.3,536.5,130.6z"/>
			
				<radialGradient id="SVGID_27_" cx="555.322" cy="130.8481" r="2.4381" gradientTransform="matrix(1 0 0 1 -1.731532e-02 0)" gradientUnits="userSpaceOnUse">
				<stop  offset="0" style="stop-color:#F4D6E8"/>
				<stop  offset="1" style="stop-color:#FFFFFF"/>
			</radialGradient>
			<path class="st41" d="M557.7,130.8c0,1.3-1.1,2.4-2.4,2.4c-1.3,0-2.4-1.1-2.4-2.4c0-1.3,1.1-2.4,2.4-2.4
				C556.7,128.4,557.7,129.5,557.7,130.8z"/>
			<path class="st2" d="M561.2,96.7c0,0-5.7,5.4-3.4,10.9C557.7,107.6,556.3,102.7,561.2,96.7z"/>
			<path class="st2" d="M529.1,93.6c0,0,5.8,1,6.9,10.4c0,0,1.3,5-3.5,2.1c0,0,4.9,3.4,2.6-4.2C535.2,101.9,534.7,95.7,529.1,93.6z"
				/>
			<path class="st5" d="M548.2,162.5c0,0-0.2,11,8,12.2c0,0,7.3,1.5,8.5-5.4c0,0,2.9,8.5-9.5,7.6
				C555.3,176.9,543.8,175.2,548.2,162.5z"/>
			<path class="st5" d="M530.6,158.1c0,0-7.2,7.6-1.6,14.7c0,0,5.9,7.1,12.2-1.7c0,0-4.1,12.4-14.4,2.9
				C526.8,174,520.3,163.4,530.6,158.1z"/>
			<path class="st5" d="M564.2,140.7c0,0-0.1,4.5,1,4.5c0,0,7.9,4.6,11.8,2.4C577,147.7,565.5,148.2,564.2,140.7z"/>
		</g>
	</g>
	<g>
		<g>
			<g>
				<linearGradient id="SVGID_28_" gradientUnits="userSpaceOnUse" x1="336.824" y1="75.4089" x2="336.824" y2="61.0116">
					<stop  offset="0.2416" style="stop-color:#4461AA"/>
					<stop  offset="1" style="stop-color:#172945"/>
				</linearGradient>
				<path class="st42" d="M336.1,54.5l9.2,6.8l-7.5,14c0,0-8.6-1.7-9.6-11.3C328.3,64.1,329.3,53.8,336.1,54.5z"/>
				<linearGradient id="SVGID_29_" gradientUnits="userSpaceOnUse" x1="345.2987" y1="67.6581" x2="333.3498" y2="67.3167">
					<stop  offset="0" style="stop-color:#76CAE7"/>
					<stop  offset="1" style="stop-color:#4468B0"/>
				</linearGradient>
				<path class="st43" d="M348.8,65.7c0.3,4.3-3,8.7-7.2,9.7c-4.2,1-7.8-1.6-8.1-6c-0.2-4.3,3-8.7,7.2-9.7
					C344.9,58.6,348.5,61.3,348.8,65.7z"/>
				<linearGradient id="SVGID_30_" gradientUnits="userSpaceOnUse" x1="341.5537" y1="71.1845" x2="341.5537" y2="66.8703">
					<stop  offset="0.2416" style="stop-color:#4A82C3"/>
					<stop  offset="1" style="stop-color:#323E92"/>
				</linearGradient>
				<path class="st44" d="M344.5,67.3c0.1,1.7-1.2,3.4-2.8,3.8c-1.6,0.4-3.1-0.6-3.1-2.3c-0.1-1.7,1.2-3.4,2.8-3.8
					C343,64.6,344.4,65.6,344.5,67.3z"/>
				<g>
					<linearGradient id="SVGID_31_" gradientUnits="userSpaceOnUse" x1="362.5343" y1="15.6682" x2="359.6478" y2="13.9845">
						<stop  offset="0" style="stop-color:#FFEB00"/>
						<stop  offset="1" style="stop-color:#FFCF21"/>
					</linearGradient>
					<path class="st45" d="M365.6,14.5c0,0-13-5.1-5.5,2.7L365.6,14.5z"/>
					<linearGradient id="SVGID_32_" gradientUnits="userSpaceOnUse" x1="363.8092" y1="17.8549" x2="360.03" y2="16.3984">
						<stop  offset="1.685400e-02" style="stop-color:#FFD500"/>
						<stop  offset="0.3202" style="stop-color:#FFF9D7"/>
						<stop  offset="0.5281" style="stop-color:#FFD500"/>
						<stop  offset="0.7886" style="stop-color:#F7BF00"/>
						<stop  offset="1" style="stop-color:#F2B100"/>
					</linearGradient>
					<polygon class="st46" points="358.1,13.1 357.4,17.9 363.5,18.6 					"/>
				</g>
				<g>
					<linearGradient id="SVGID_33_" gradientUnits="userSpaceOnUse" x1="312.6111" y1="15.7392" x2="329.4032" y2="26.7054">
						<stop  offset="0" style="stop-color:#FFEB00"/>
						<stop  offset="1" style="stop-color:#FFCF21"/>
					</linearGradient>
					<path class="st47" d="M309.4,25.4l-12-17.8c0,0-6.5-6.5,10.6-4.4c0,0,16.1,3.8,21.9,17.8L309.4,25.4z"/>
					<linearGradient id="SVGID_34_" gradientUnits="userSpaceOnUse" x1="287.8878" y1="13.8347" x2="305.6895" y2="18.9698">
						<stop  offset="8.988800e-02" style="stop-color:#FFD500"/>
						<stop  offset="0.3483" style="stop-color:#FFF9D7"/>
						<stop  offset="0.5281" style="stop-color:#FFD500"/>
						<stop  offset="0.7886" style="stop-color:#F7BF00"/>
						<stop  offset="1" style="stop-color:#F2B100"/>
					</linearGradient>
					<path class="st48" d="M296.1,4.5l-3.1,11c0,0,6.8,12,13.7,15.4l6.8-5.5L296.1,4.5z"/>
				</g>
				<linearGradient id="SVGID_35_" gradientUnits="userSpaceOnUse" x1="296.429" y1="25.0393" x2="393.3353" y2="25.0393">
					<stop  offset="0" style="stop-color:#039339"/>
					<stop  offset="1" style="stop-color:#C9D400"/>
				</linearGradient>
				<path class="st49" d="M296.4,29.9c0,0-0.3-8.6,55.5-10.6c0,0,9.6-0.7,14-13.3c0,0,3.8-6.8,11.3-5.8L393,11.1c0,0,1,1.4-0.3,5.8
					L370,36.4l-62.3,13.7L296.4,29.9z"/>
				<linearGradient id="SVGID_36_" gradientUnits="userSpaceOnUse" x1="306.7161" y1="36.6196" x2="393.3056" y2="36.6196">
					<stop  offset="0" style="stop-color:#0F6E31"/>
					<stop  offset="1" style="stop-color:#84BC26"/>
				</linearGradient>
				<path class="st50" d="M307.7,53.5c0,0,12.7,17.5,42.5,2.4c0,0,20.9-10.6,30.1-13.7c0,0,8.6-1,13-30.5c0,0-4.1-3.4-12,7.2
					c0,0-4.8,13.7-18.1,14.4c0,0-43.1-4.1-55.8,14C307.4,47.3,305.7,52.1,307.7,53.5z"/>
				<polygon class="st51" points="321.6,21.4 330.3,33.2 353.6,30.9 				"/>
				<linearGradient id="SVGID_37_" gradientUnits="userSpaceOnUse" x1="338.3934" y1="15.7046" x2="327.6139" y2="25.4212">
					<stop  offset="0" style="stop-color:#F7F2D8"/>
					<stop  offset="1" style="stop-color:#FFFFFF"/>
				</linearGradient>
				<path class="st52" d="M335.8,32.6l-4.4,0.3l-9.8-11.6c0,0,3.5-16.9,19.3-14.1l11.4,10.6L335.8,32.6z"/>
				<linearGradient id="SVGID_38_" gradientUnits="userSpaceOnUse" x1="334.5736" y1="32.255" x2="350.5334" y2="22.4732">
					<stop  offset="0" style="stop-color:#C2B684"/>
					<stop  offset="1" style="stop-color:#F9F6D3"/>
				</linearGradient>
				<path class="st53" d="M353.6,30.9c0,0,7.2-15.1-8.9-14.4c0,0-5.8-1-13.4,16.4L353.6,30.9z"/>
				<linearGradient id="SVGID_39_" gradientUnits="userSpaceOnUse" x1="295.7531" y1="46.1534" x2="303.0694" y2="37.9224">
					<stop  offset="0" style="stop-color:#C2B684"/>
					<stop  offset="1" style="stop-color:#E6E0A7"/>
				</linearGradient>
				<path class="st54" d="M305.4,39.1c5.4,11.2,7.3,21.4,4.3,22.8c-7.2,3.4-11.5-10.1-15.1-17.6c-5.9-12.2-11.3-19.5-4.3-22.8
					C293.3,20,300.1,27.9,305.4,39.1z"/>
				<linearGradient id="SVGID_40_" gradientUnits="userSpaceOnUse" x1="288.3307" y1="51.4694" x2="300.0122" y2="40.4751">
					<stop  offset="0" style="stop-color:#F7F2D8"/>
					<stop  offset="1" style="stop-color:#FFFFFF"/>
				</linearGradient>
				<path class="st55" d="M303,40.1c5.4,11.2,7.3,21.4,4.3,22.8c-3,1.4-9.7-6.5-15.1-17.6c-5.4-11.2-7.3-21.4-4.3-22.8
					C290.9,21.1,297.7,29,303,40.1z"/>
				<path class="st56" d="M300.6,40.7c1.6,2.9,1.3,6.1-0.6,7.2c-1.9,1.1-4.8-0.4-6.4-3.3c-1.6-2.9-1.3-6.1,0.6-7.2
					C296.2,36.3,299,37.8,300.6,40.7z"/>
				
					<radialGradient id="SVGID_41_" cx="296.7866" cy="39.813" r="11.3966" gradientTransform="matrix(1 0 0 1 -1.731532e-02 0)" gradientUnits="userSpaceOnUse">
					<stop  offset="0" style="stop-color:#F7A600"/>
					<stop  offset="3.987449e-02" style="stop-color:#F59E00"/>
					<stop  offset="0.2729" style="stop-color:#EE7601"/>
					<stop  offset="0.493" style="stop-color:#E9510E"/>
					<stop  offset="0.694" style="stop-color:#E63312"/>
					<stop  offset="0.8695" style="stop-color:#E41D13"/>
					<stop  offset="1" style="stop-color:#E31013"/>
				</radialGradient>
				<path class="st57" d="M300.5,41.7c0,2.9-2.3,5.3-5.1,5.3c-2.8,0-5.1-2.4-5.1-5.3c0-2.9,2.3-5.3,5.1-5.3
					C298.2,36.4,300.5,38.8,300.5,41.7z"/>
				<linearGradient id="SVGID_42_" gradientUnits="userSpaceOnUse" x1="334.5422" y1="43.3628" x2="344.0403" y2="50.0371">
					<stop  offset="0" style="stop-color:#13110C"/>
					<stop  offset="1" style="stop-color:#FFFFFF"/>
				</linearGradient>
				<path class="st58" d="M357.7,37.4l-29.9,1.7l-2.9,12.3l4.2,10.3c0,0,6.7,0.5,17.2-3.3L357.7,37.4z"/>
				<g>
					<linearGradient id="SVGID_43_" gradientUnits="userSpaceOnUse" x1="359.0905" y1="50.4723" x2="330.6394" y2="40.1888">
						<stop  offset="0" style="stop-color:#FFEB00"/>
						<stop  offset="1" style="stop-color:#FFCF21"/>
					</linearGradient>
					<path class="st59" d="M328.3,39.8l29.4-2.4c0,0,26,19.2,27.7,21.9l-1,5.1c0,0-6.5,6.5-22.9-0.7
						C361.5,63.8,324.5,44.3,328.3,39.8z"/>
					<linearGradient id="SVGID_44_" gradientUnits="userSpaceOnUse" x1="383.0359" y1="68.8703" x2="350.1704" y2="56.2036">
						<stop  offset="1.685400e-02" style="stop-color:#FFD500"/>
						<stop  offset="0.3202" style="stop-color:#FFF9D7"/>
						<stop  offset="0.5281" style="stop-color:#FFD500"/>
						<stop  offset="0.7886" style="stop-color:#F7BF00"/>
						<stop  offset="1" style="stop-color:#F2B100"/>
					</linearGradient>
					<path class="st60" d="M328.3,39.8l-3.4,11.6c0,0,39.4,21.9,45.9,22.9c0,0,9.6,2.4,11.6-3.8l3.1-11.3c0,0-0.7,8.6-14.4,3.4
						C371.1,62.8,331.3,43.2,328.3,39.8z"/>
				</g>
				<linearGradient id="SVGID_45_" gradientUnits="userSpaceOnUse" x1="380.8957" y1="33.7176" x2="386.0952" y2="39.1772">
					<stop  offset="0" style="stop-color:#13110C"/>
					<stop  offset="1" style="stop-color:#FFFFFF"/>
				</linearGradient>
				<path class="st61" d="M388.5,31.6l-12.2,0.1l-1.1,3.3l3.9,6.9C379.1,42,384.6,42,388.5,31.6z"/>
				<g>
					<linearGradient id="SVGID_46_" gradientUnits="userSpaceOnUse" x1="395.6455" y1="40.636" x2="384.3614" y2="36.287">
						<stop  offset="1.685400e-02" style="stop-color:#FFD500"/>
						<stop  offset="0.3202" style="stop-color:#FFF9D7"/>
						<stop  offset="0.5281" style="stop-color:#FFD500"/>
						<stop  offset="0.7886" style="stop-color:#F7BF00"/>
						<stop  offset="1" style="stop-color:#F2B100"/>
					</linearGradient>
					<path class="st62" d="M376.5,32.3h3.8l16.1,6.2l-1,2.7c0,0,1.4,3.1-20.2-6.2L376.5,32.3z"/>
					<linearGradient id="SVGID_47_" gradientUnits="userSpaceOnUse" x1="391.2532" y1="37.0308" x2="382.9261" y2="32.1735">
						<stop  offset="0" style="stop-color:#FFEB00"/>
						<stop  offset="1" style="stop-color:#FFCF21"/>
					</linearGradient>
					<path class="st63" d="M376.5,32.3c0,0,28.4,13,18.1,3.8l-6.2-4.4L376.5,32.3z"/>
				</g>
				<path class="st64" d="M291.8,39.4c0,0,1.5-3.6,5.4-1.8l0.5,0.8c0,0-4.6,0-4.6,1.5L291.8,39.4z"/>
			</g>
			<path class="st65" d="M356.9,17.4l12.2,12.3c0,0,4.7-1.7,8.3-6.6l-14.2-10.1C361.7,15.1,359.6,17.4,356.9,17.4z"/>
			<path class="st65" d="M380.4,17.4L365.8,8L365.4,9c0,0-0.4,0.9-1,2.2l14.5,9.9C379.4,19.9,380,18.7,380.4,17.4z"/>
		</g>
	</g>
	<g>
		<g>
			<path class="st66" d="M37.9,105c0,0,4.6-2.6,10.3-0.3C48.2,104.8,44,102,37.9,105z"/>
			
				<linearGradient id="SVGID_48_" gradientUnits="userSpaceOnUse" x1="26.2237" y1="192.321" x2="-6.3822" y2="191.6163" gradientTransform="matrix(0.9927 0.1207 -0.1207 0.9927 78.4956 -15.4884)">
				<stop  offset="0" style="stop-color:#81A52A"/>
				<stop  offset="1" style="stop-color:#ACC90F"/>
			</linearGradient>
			<path class="st67" d="M16.8,166.2c0,0,28.6,7.8,60.3-1.6c0,0,40.9-1.5,19.1,16.8c0,0-60.1,10.1-71.7,2.6
				C24.4,183.9,4.9,167.9,16.8,166.2z"/>
			<g>
				
					<linearGradient id="SVGID_49_" gradientUnits="userSpaceOnUse" x1="37.9434" y1="154.186" x2="30.0188" y2="143.9979" gradientTransform="matrix(0.9927 0.1207 -0.1207 0.9927 78.4956 -15.4884)">
					<stop  offset="0" style="stop-color:#E41713"/>
					<stop  offset="0.1828" style="stop-color:#E52513"/>
					<stop  offset="0.468" style="stop-color:#E73E11"/>
					<stop  offset="0.8181" style="stop-color:#EB6209"/>
					<stop  offset="1" style="stop-color:#EE7601"/>
				</linearGradient>
				<path class="st68" d="M85.8,131.9c0,0,0.8-6.5,8.9-3.6c0,0,4.1,0.6,4.8,10.7c0,0,2.7,5.7,4.9,6.6c0,0,1.9,2.1-1.5,2.5
					c0,0-5.1,2.1-14.1-9.6L85.8,131.9z"/>
				
					<linearGradient id="SVGID_50_" gradientUnits="userSpaceOnUse" x1="36.6972" y1="156.6748" x2="30.968" y2="149.3091" gradientTransform="matrix(0.9927 0.1207 -0.1207 0.9927 78.4956 -15.4884)">
					<stop  offset="0" style="stop-color:#A01916"/>
					<stop  offset="0.1103" style="stop-color:#A32218"/>
					<stop  offset="0.2825" style="stop-color:#AC341F"/>
					<stop  offset="0.4951" style="stop-color:#BE542F"/>
					<stop  offset="0.7397" style="stop-color:#D7824E"/>
					<stop  offset="1" style="stop-color:#FAC07F"/>
				</linearGradient>
				<path class="st69" d="M87.2,136.3c0,0,1.4-4.5,5.3,3.1c0,0,3.4,8.3,9.5,8.5c0,0-4.1,1.6-11.8-7.3L87.2,136.3z"/>
			</g>
			<g>
				
					<linearGradient id="SVGID_51_" gradientUnits="userSpaceOnUse" x1="19.0136" y1="175.5421" x2="24.7305" y2="175.1444" gradientTransform="matrix(0.9927 0.1207 -0.1207 0.9927 78.4956 -15.4884)">
					<stop  offset="5.618000e-03" style="stop-color:#FAB200"/>
					<stop  offset="0.5459" style="stop-color:#FED300"/>
					<stop  offset="1" style="stop-color:#FFE900"/>
				</linearGradient>
				<path class="st70" d="M87.1,162.2c-0.6,4.6-4.7,7.9-9.4,7.3c-4.6-0.6-7.9-4.7-7.3-9.4c0.6-4.6,4.7-7.9,9.4-7.3
					C84.4,153.4,87.6,157.6,87.1,162.2z"/>
				
					<linearGradient id="SVGID_52_" gradientUnits="userSpaceOnUse" x1="15.99" y1="176.6022" x2="29.8551" y2="176.6022" gradientTransform="matrix(0.9927 0.1207 -0.1207 0.9927 78.4956 -15.4884)">
					<stop  offset="0" style="stop-color:#A61916"/>
					<stop  offset="1" style="stop-color:#E31013"/>
				</linearGradient>
				<path class="st71" d="M85.5,163.3c-0.4,3.4-3.6,5.9-7,5.5c-3.4-0.4-5.9-3.6-5.5-7c0.4-3.4,3.6-5.9,7-5.5
					C83.5,156.7,85.9,159.8,85.5,163.3z"/>
				<path class="st72" d="M82.6,163.4c-0.2,1.7-1.7,2.9-3.4,2.7c-1.7-0.2-2.9-1.8-2.7-3.4c0.2-1.7,1.8-2.9,3.4-2.7
					C81.6,160.2,82.8,161.7,82.6,163.4z"/>
				
					<radialGradient id="SVGID_53_" cx="24.2146" cy="178.9896" r="6.9331" gradientTransform="matrix(0.9927 0.1207 -0.1207 0.9927 78.4962 -15.4884)" gradientUnits="userSpaceOnUse">
					<stop  offset="0" style="stop-color:#A5559C"/>
					<stop  offset="1" style="stop-color:#D8B4D6"/>
				</radialGradient>
				<path class="st73" d="M82.5,162.8c-0.2,1.7-1.8,2.9-3.4,2.7c-1.7-0.2-2.9-1.7-2.7-3.4c0.2-1.7,1.7-2.9,3.4-2.7
					C81.5,159.6,82.7,161.1,82.5,162.8z"/>
			</g>
			<g>
				
					<linearGradient id="SVGID_54_" gradientUnits="userSpaceOnUse" x1="-43.1946" y1="187.6702" x2="-19.0655" y2="187.3255" gradientTransform="matrix(0.9927 0.1207 -0.1207 0.9927 78.4956 -15.4884)">
					<stop  offset="5.618000e-03" style="stop-color:#FAB200"/>
					<stop  offset="0.5459" style="stop-color:#FED300"/>
					<stop  offset="1" style="stop-color:#FFE900"/>
				</linearGradient>
				<path class="st74" d="M34.3,168c-0.6,4.6-4.7,7.9-9.4,7.3c-4.6-0.6-7.9-4.8-7.3-9.4c0.6-4.6,4.8-7.9,9.4-7.3
					C31.6,159.2,34.9,163.4,34.3,168z"/>
				
					<linearGradient id="SVGID_55_" gradientUnits="userSpaceOnUse" x1="-35.652" y1="188.72" x2="-21.7948" y2="188.72" gradientTransform="matrix(0.9927 0.1207 -0.1207 0.9927 78.4956 -15.4884)">
					<stop  offset="0" style="stop-color:#A61916"/>
					<stop  offset="1" style="stop-color:#E31013"/>
				</linearGradient>
				<path class="st75" d="M32.8,169.1c-0.4,3.4-3.5,5.9-7,5.5c-3.4-0.4-5.9-3.5-5.5-7s3.6-5.9,7-5.5
					C30.8,162.5,33.2,165.6,32.8,169.1z"/>
				<path class="st72" d="M29.8,169.2c-0.2,1.7-1.8,2.9-3.4,2.7c-1.7-0.2-2.9-1.8-2.7-3.5c0.2-1.7,1.7-2.9,3.4-2.7
					C28.8,166,30,167.5,29.8,169.2z"/>
				
					<radialGradient id="SVGID_56_" cx="-27.4256" cy="191.105" r="6.9343" gradientTransform="matrix(0.9927 0.1207 -0.1207 0.9927 78.4962 -15.4884)" gradientUnits="userSpaceOnUse">
					<stop  offset="0" style="stop-color:#A5559C"/>
					<stop  offset="1" style="stop-color:#D8B4D6"/>
				</radialGradient>
				<path class="st76" d="M29.8,168.6c-0.2,1.7-1.8,2.9-3.5,2.7c-1.7-0.2-2.9-1.7-2.7-3.4c0.2-1.7,1.7-2.9,3.4-2.7
					C28.8,165.4,30,166.9,29.8,168.6z"/>
			</g>
			
				<linearGradient id="SVGID_57_" gradientUnits="userSpaceOnUse" x1="2.3182" y1="195.9801" x2="0.479" y2="168.3902" gradientTransform="matrix(0.9927 0.1207 -0.1207 0.9927 78.4956 -15.4884)">
				<stop  offset="0" style="stop-color:#FFF17D"/>
				<stop  offset="1" style="stop-color:#FFFFFF"/>
			</linearGradient>
			<path class="st77" d="M37.1,110.3c0,0-4.6,1.4-5.5,4.1c0,0-2.8,2.5-3,6.5c0,0-1.1,1.6-1.3,2.9c0,0-5.2,2.4-4.6,6.4
				c0,0,0.4,3.4,4.5,4.5c0,0-0.4,1.2,2.6,1.6c0,0,3.3-0.7,4.6-2.3c0,0,2.7,0.2,3.8,0c0,0-8.5,8.4-7.1,14.6c0,0-6.2,9-5.7,11.6
				l-4.2,8.3l5.9,10.3l15-6.5l2.4-1.8c0,0,5.2-6.8,6.1-7.1c0,0,9.8,2.4,20.7-3.5c0,0,4,1,4.6,2c0,0,0.6,8.4,8.7,11.6l10.6-9.2
				c0,0,0.6-3.9,0.1-5.1c0,0-1-2.7-0.8-3.3c0,0-0.2-1.4-1.6-2.5c0,0-4.5-3-3.1-6.3c0,0,1-3.5,0-7.9l0.5-1.7c0,0-2-5.9-5.6-5.8
				c0,0-27.1,8.9-31.3,2.2c0,0,0.5-14.7,0.3-16.6C53.5,117.2,48,102.3,37.1,110.3z"/>
			<path class="st78" d="M37,110.1c-0.3,0.1-4.7,1.5-5.5,4.1c-0.2,0.2-2.6,2.5-3,6c0,0.2,0,0.4,0,0.6c-0.1,0.2-1,1.6-1.3,2.8
				c-0.5,0.3-4.3,2.2-4.6,5.3c0,0.4,0,0.8,0,1.2c0,0,0.5,3.4,4.5,4.5c0,0.1,0,0.3,0.1,0.5c0.3,0.6,1.2,0.9,2.6,1.1l0,0l0,0
				c0.1,0,3.3-0.7,4.6-2.3c0.3,0,2.3,0.1,3.4,0c-1.2,1.2-6.4,6.8-7,12c-0.1,0.8-0.1,1.6,0.1,2.4c-0.4,0.6-5.3,7.7-5.7,10.9
				c0,0.3,0,0.5,0,0.7c0,0.1-4.2,8.3-4.2,8.3l6,10.5l15.2-6.6l2.5-1.8l0,0c1.4-1.9,5.3-6.7,6-7c0.6,0.1,10.1,2.2,20.7-3.5
				c1.1,0.3,3.9,1.2,4.4,1.9c0,0.5,0.9,8.5,8.7,11.7l0.1,0l10.7-9.3l0,0c0,0,0-0.2,0.1-0.5c0.1-1.1,0.4-3.7,0-4.6
				c-0.4-1-0.9-2.7-0.8-3.2c0,0,0,0,0-0.1l0,0l0,0c0-0.1-0.2-1.5-1.6-2.6c0,0-3.6-2.4-3.3-5.2c0-0.3,0.1-0.6,0.3-0.9
				c0,0,0.2-0.6,0.3-1.7c0.2-1.5,0.3-3.8-0.3-6.3c0-0.1,0.5-1.7,0.5-1.7l0,0c-0.1-0.2-2-5.9-5.8-5.9h0l0,0c-0.3,0.1-27,8.8-31.2,2.2
				c0-1,0.5-14.7,0.3-16.6l0,0l0,0c0-0.1-2.8-7.4-8.2-9.1C42.8,107.3,40,108,37,110.1z M27.4,135c-0.1-0.2-0.1-0.3-0.1-0.4
				c0,0,0,0,0,0l0-0.1l-0.1,0c-4-1.1-4.4-4.3-4.4-4.4c-0.1-0.4-0.1-0.7,0-1.1c0.4-3.2,4.5-5.1,4.5-5.2l0.1,0l0-0.1
				c0.2-1.3,1.3-2.8,1.3-2.8l0,0l0,0c0-0.2,0-0.4,0-0.6c0.4-3.5,2.9-5.8,2.9-5.8l0,0l0,0c0.8-2.6,5.4-4,5.4-4l0,0l0,0
				c2.9-2.1,5.7-2.8,8.2-2c5.2,1.6,7.9,8.7,8,8.9c0.2,1.9-0.3,16.4-0.3,16.6v0l0,0c4.2,6.7,30.2-1.7,31.5-2.1
				c3.4-0.1,5.3,5.2,5.5,5.6c0,0.1-0.5,1.7-0.5,1.7l0,0c0.6,2.6,0.5,4.8,0.3,6.3c-0.1,1-0.3,1.6-0.3,1.6c-0.1,0.3-0.2,0.7-0.3,1
				c-0.4,2.9,3.4,5.4,3.4,5.4c1.3,1,1.5,2.3,1.5,2.4c0,0,0,0,0,0c-0.1,0.7,0.8,3,0.9,3.3c0.4,0.9,0.1,3.4,0,4.5c0,0.2,0,0.4-0.1,0.4
				c-0.1,0.1-10.3,9-10.5,9.1c-7.8-3.2-8.5-11.4-8.5-11.5v0l0,0c-0.6-1-4.5-2-4.6-2l0,0l0,0c-10.8,5.9-20.5,3.6-20.6,3.5l0,0l0,0
				c-0.9,0.3-5.6,6.4-6.2,7.1c0,0-2.4,1.7-2.4,1.7s-14.7,6.4-14.9,6.5c-0.1-0.2-5.7-10-5.8-10.2c0.1-0.1,4.2-8.3,4.2-8.3l0,0
				c0-0.2,0-0.4,0-0.7c0.4-3.2,5.6-10.7,5.7-10.8l0,0l0-0.1c-0.2-0.8-0.2-1.6-0.1-2.4c0.7-5.7,7.1-12.1,7.2-12.2l0.3-0.3l-0.4,0
				c-1.1,0.1-3.8,0-3.8,0l-0.1,0l-0.1,0.1c-1.2,1.5-4.2,2.2-4.5,2.2C28.2,135.8,27.6,135.4,27.4,135z"/>
			
				<linearGradient id="SVGID_58_" gradientUnits="userSpaceOnUse" x1="-16.194" y1="134.3608" x2="-23.4535" y2="125.0278" gradientTransform="matrix(0.9927 0.1207 -0.1207 0.9927 78.4956 -15.4884)">
				<stop  offset="0" style="stop-color:#E41713"/>
				<stop  offset="0.113" style="stop-color:#E52517"/>
				<stop  offset="0.2894" style="stop-color:#E73E20"/>
				<stop  offset="0.5071" style="stop-color:#EC6433"/>
				<stop  offset="0.7553" style="stop-color:#F39254"/>
				<stop  offset="1" style="stop-color:#FAC07F"/>
			</linearGradient>
			<path class="st79" d="M36.1,113c0,0,1.2-1.1,2.9-1c0,0,1.5,0.1,2.2-1.4c0,0,3-4.3,6.4-0.2c0,0,1.2,1.9,1.6,3.1
				c0,0,4.6,3.1,4.4,6.9c0,0,2.2-4.7-2.1-12.2c0,0-4.2-7.5-14.3-4.6c0,0-3.7,1.1-1.5,5.3c0,0,0.7,1.1-1,2.9
				C34.6,111.9,33.4,113.3,36.1,113z"/>
			
				<radialGradient id="SVGID_59_" cx="-23.2241" cy="139.5303" r="1.9706" gradientTransform="matrix(0.9927 0.1207 -0.1207 0.9927 78.4962 -15.4884)" gradientUnits="userSpaceOnUse">
				<stop  offset="0.3202" style="stop-color:#414F9D"/>
				<stop  offset="0.8989" style="stop-color:#13110C"/>
			</radialGradient>
			<path class="st80" d="M40.7,120.9c-0.1,0.9-0.9,1.5-1.8,1.4c-0.9-0.1-1.5-0.9-1.4-1.8c0.1-0.9,0.9-1.5,1.8-1.4
				C40.2,119.3,40.8,120.1,40.7,120.9z"/>
			
				<linearGradient id="SVGID_60_" gradientUnits="userSpaceOnUse" x1="-13.1757" y1="142.2652" x2="-15.6672" y2="139.0621" gradientTransform="matrix(0.9927 0.1207 -0.1207 0.9927 78.4956 -15.4884)">
				<stop  offset="0" style="stop-color:#E41713"/>
				<stop  offset="0.1828" style="stop-color:#E52513"/>
				<stop  offset="0.468" style="stop-color:#E73E11"/>
				<stop  offset="0.8181" style="stop-color:#EB6209"/>
				<stop  offset="1" style="stop-color:#EE7601"/>
			</linearGradient>
			<path class="st81" d="M48.1,119.1c-2.2-0.3-4.1,1.3-4.4,3.4c0,0.4,0,0.8,0,1.2v0c0.2,0.8,0.5,1.8,1.2,2.4l0.1-0.1l0.1-0.1
				c0.5,0.4,1.2,0.8,2,0.8c2.2,0.3,4.1-1.3,4.4-3.4C51.8,121.3,50.2,119.3,48.1,119.1z"/>
			
				<linearGradient id="SVGID_61_" gradientUnits="userSpaceOnUse" x1="-25.9453" y1="125.0267" x2="-26.4101" y2="127.4171" gradientTransform="matrix(0.9927 0.1207 -0.1207 0.9927 78.4956 -15.4884)">
				<stop  offset="0" style="stop-color:#F9B569"/>
				<stop  offset="0.6573" style="stop-color:#FFFFFF"/>
				<stop  offset="1" style="stop-color:#F49800"/>
			</linearGradient>
			<path class="st82" d="M36.2,104.2c0,0-1.5,0.5-1.1,3.4l3.1,1l1.5-2.5l0.5-0.3C40.1,105.7,35.5,104.5,36.2,104.2z"/>
			
				<linearGradient id="SVGID_62_" gradientUnits="userSpaceOnUse" x1="-15.0465" y1="134.0571" x2="-21.73" y2="125.4645" gradientTransform="matrix(0.9927 0.1207 -0.1207 0.9927 78.4956 -15.4884)">
				<stop  offset="0" style="stop-color:#E41713"/>
				<stop  offset="0.1828" style="stop-color:#E52513"/>
				<stop  offset="0.468" style="stop-color:#E73E11"/>
				<stop  offset="0.8181" style="stop-color:#EB6209"/>
				<stop  offset="1" style="stop-color:#EE7601"/>
			</linearGradient>
			<path class="st83" d="M54.1,117.4c0.1-2.1-0.3-5.3-2.7-9.4c0,0-1-1.8-3.1-3.2c-2.3-1-5.3-1.5-9.4-0.3c0,0-3.7,1.1-1.5,5.3
				c0,0,0.7,1-0.8,2.7c0.5-0.3,1.3-0.7,2.4-0.6c0,0,1.5,0,2.2-1.4c0,0,2.6-3.8,5.8-0.9c0.2,0.2,0.4,0.4,0.6,0.6c0,0,1.2,1.9,1.6,3.1
				c0,0,4.6,3.1,4.4,6.9C53.6,120.2,54,119.2,54.1,117.4z"/>
			<path class="st5" d="M43.1,113.7c0,0,4.1-1.1,5.3-0.1l0.3,0c0,0-2-5.7-4.5-3.3c0,0-1,4.1-3.9,1.8
				C40.3,112.1,41.6,113.9,43.1,113.7z"/>
			<path class="st2" d="M38.8,119.7c0,0-1.3-0.1-0.9,1.6c0,0,0.7,0,0.6-0.8C38.5,120.4,37.4,120.6,38.8,119.7z"/>
			<path class="st84" d="M50.8,123.2c0,0,0-0.1,0-0.1c-0.1-0.6-0.8-3.3-4.2-1.8c0,0,3.4-1.1,3.6,1.6"/>
			<path class="st85" d="M22.7,129.1c0,0,0.5,4.2,6,4.5c0,0,1.4,0.1,1.8-0.4c0,0,0.9,1.1-3.4,1.4C27.2,134.5,22.4,133.1,22.7,129.1z
				"/>
			<path class="st86" d="M27.2,134.5c0,0,2.8,0,3.4-1c0,0-3.2,1.2-6.3-0.4C24.3,133.1,26,134.6,27.2,134.5z"/>
			
				<linearGradient id="SVGID_63_" gradientUnits="userSpaceOnUse" x1="-16.6218" y1="152.2842" x2="-21.9638" y2="150.2809" gradientTransform="matrix(0.9927 0.1207 -0.1207 0.9927 78.4956 -15.4884)">
				<stop  offset="0" style="stop-color:#817D7B"/>
				<stop  offset="0.1942" style="stop-color:#999392"/>
				<stop  offset="1" style="stop-color:#FFFFFF"/>
			</linearGradient>
			<path class="st87" d="M27.3,135.1c0,0,3,0.4,4.9-1.8c0,0,6.3-10.9,15-7l2.9,0.5c0,0-7.1,7.8-11.9,7.1c-4.8-0.6,0.1-0.3,0.1-0.3
				l-4,0.3c0,0-3.3,3.1-5.6,2.2C28.7,136.1,26.9,135.6,27.3,135.1z"/>
			<g>
				
					<linearGradient id="SVGID_64_" gradientUnits="userSpaceOnUse" x1="-28.7576" y1="151.2056" x2="-33.502" y2="145.106" gradientTransform="matrix(0.9927 0.1207 -0.1207 0.9927 78.4956 -15.4884)">
					<stop  offset="0" style="stop-color:#E41713"/>
					<stop  offset="0.1828" style="stop-color:#E52513"/>
					<stop  offset="0.468" style="stop-color:#E73E11"/>
					<stop  offset="0.8181" style="stop-color:#EB6209"/>
					<stop  offset="1" style="stop-color:#EE7601"/>
				</linearGradient>
				<path class="st88" d="M32.6,129c0,0-4.5-6.6-5.6-6c0,0-2.4-0.5-1.7,1.9c0,0,5.3,3.8,6.9,10.5c0,0,2.1,1.6,2.4-1.4l-1.2-2.6l0,0
					c-0.4-0.8-0.2-1.8-0.6-2.5L32.6,129z"/>
				
					<linearGradient id="SVGID_65_" gradientUnits="userSpaceOnUse" x1="-21.8505" y1="147.3905" x2="-23.0885" y2="145.7988" gradientTransform="matrix(0.9927 0.1207 -0.1207 0.9927 78.4956 -15.4884)">
					<stop  offset="0" style="stop-color:#E41713"/>
					<stop  offset="0.1828" style="stop-color:#E52513"/>
					<stop  offset="0.468" style="stop-color:#E73E11"/>
					<stop  offset="0.8181" style="stop-color:#EB6209"/>
					<stop  offset="1" style="stop-color:#EE7601"/>
				</linearGradient>
				<path class="st89" d="M43.7,123.7L43.7,123.7l-10.8,5.1c0.4,0.7,0.2,1.7,0.6,2.5l11.4-5.1C44.3,125.5,43.9,124.5,43.7,123.7z"/>
				
					<linearGradient id="SVGID_66_" gradientUnits="userSpaceOnUse" x1="-15.709" y1="140.862" x2="-5.3814" y2="142.9745" gradientTransform="matrix(0.9927 0.1207 -0.1207 0.9927 78.4956 -15.4884)">
					<stop  offset="0" style="stop-color:#E41713"/>
					<stop  offset="0.113" style="stop-color:#E52517"/>
					<stop  offset="0.2894" style="stop-color:#E73E20"/>
					<stop  offset="0.5071" style="stop-color:#EC6433"/>
					<stop  offset="0.7553" style="stop-color:#F39254"/>
					<stop  offset="1" style="stop-color:#FAC07F"/>
				</linearGradient>
				<path class="st90" d="M51.2,123.6c-0.2,1.7-1.8,2.9-3.5,2.7c-1.7-0.2-2.9-1.8-2.7-3.5c0.2-1.7,1.8-2.9,3.5-2.7
					C50.2,120.3,51.4,121.9,51.2,123.6z"/>
				
					<linearGradient id="SVGID_67_" gradientUnits="userSpaceOnUse" x1="-12.0999" y1="143.8215" x2="-13.7957" y2="140.7832" gradientTransform="matrix(0.9927 0.1207 -0.1207 0.9927 78.4956 -15.4884)">
					<stop  offset="0" style="stop-color:#F18500"/>
					<stop  offset="1" style="stop-color:#FED06D"/>
				</linearGradient>
				<path class="st91" d="M50.8,123.8c-0.2,1.5-1.5,2.5-3,2.3c-1.5-0.2-2.5-1.5-2.4-3c0.2-1.5,1.5-2.5,3-2.4
					C50,121,51,122.3,50.8,123.8z"/>
				
					<linearGradient id="SVGID_68_" gradientUnits="userSpaceOnUse" x1="-9.5171" y1="145.5751" x2="-11.5111" y2="142.0026" gradientTransform="matrix(0.9927 0.1207 -0.1207 0.9927 78.4956 -15.4884)">
					<stop  offset="0" style="stop-color:#F18500"/>
					<stop  offset="1" style="stop-color:#FED06D"/>
				</linearGradient>
				<path class="st92" d="M49.9,122.7c0,0-3.6-1.3-2.2,3c0,0,3.8,2.8,4.4,2.1c0,0,2.7-0.8,0.8-3.3L49.9,122.7z"/>
				<path class="st84" d="M48.8,122.6c0,0-2.3-0.1-1.1,3.1c0,0,3.8,2.7,4.2,2c0,0-1.5-0.6-0.4-2.5c0,0-0.5,0.1-0.8,1.3
					c0,0-1.6-0.1-2.7-1.3C48.1,125.3,46.6,123.4,48.8,122.6z"/>
			</g>
			
				<linearGradient id="SVGID_69_" gradientUnits="userSpaceOnUse" x1="-14.9684" y1="150.2593" x2="-22.0057" y2="166.4259" gradientTransform="matrix(0.9927 0.1207 -0.1207 0.9927 78.4956 -15.4884)">
				<stop  offset="0" style="stop-color:#817D7B"/>
				<stop  offset="0.1942" style="stop-color:#999392"/>
				<stop  offset="1" style="stop-color:#FFFFFF"/>
			</linearGradient>
			<path class="st93" d="M51.4,127l-1.4-0.2c0,0-7.6,7.9-11.9,7.1c0,0-8.8,9.4-6.1,15.1c0,0-0.1,5.2,6.3,4.1l2.7-1.6
				c0,0-2.6-6.7,4.2-15.4L51.4,127z"/>
			
				<linearGradient id="SVGID_70_" gradientUnits="userSpaceOnUse" x1="-16.0776" y1="147.8397" x2="-20.0124" y2="156.8789" gradientTransform="matrix(0.9927 0.1207 -0.1207 0.9927 78.4956 -15.4884)">
				<stop  offset="0" style="stop-color:#656160"/>
				<stop  offset="0.2944" style="stop-color:#8E8887"/>
				<stop  offset="1" style="stop-color:#FFFFFF"/>
			</linearGradient>
			<path class="st94" d="M49.6,127.5c0,0-11.1,12.5-14.1,11.8c0,0,0.6-2.5,3.2-5.4c2.6-2.9-0.2-0.1-0.2-0.1s2.7,0.1,7.3-3
				L49.6,127.5z"/>
			
				<linearGradient id="SVGID_71_" gradientUnits="userSpaceOnUse" x1="-24.5815" y1="167.1312" x2="-13.7916" y2="177.3905" gradientTransform="matrix(0.9927 0.1207 -0.1207 0.9927 78.4956 -15.4884)">
				<stop  offset="0" style="stop-color:#656160"/>
				<stop  offset="0.2944" style="stop-color:#8E8887"/>
				<stop  offset="1" style="stop-color:#FFFFFF"/>
			</linearGradient>
			<path class="st95" d="M31.1,146.6c0,0-1.5,9.1,8.6,8.2c0,0-12.4-3.5-6.2-14.7C33.5,140.1,31.1,143,31.1,146.6z"/>
			
				<linearGradient id="SVGID_72_" gradientUnits="userSpaceOnUse" x1="2.3249" y1="175.6141" x2="10.4327" y2="179.475" gradientTransform="matrix(0.9927 0.1207 -0.1207 0.9927 78.4956 -15.4884)">
				<stop  offset="0" style="stop-color:#817D7B"/>
				<stop  offset="0.1942" style="stop-color:#999392"/>
				<stop  offset="1" style="stop-color:#FFFFFF"/>
			</linearGradient>
			<path class="st96" d="M72,157.2c-2.4,4.6-13.1,5.1-13.1,5.1c-7.6,1.2-3.9-4.9-3.9-4.9l-4.5,5.9c0,0,9.8,2.4,20.7-3.5
				C71.8,158.9,71.9,158,72,157.2z"/>
			
				<linearGradient id="SVGID_73_" gradientUnits="userSpaceOnUse" x1="18.269" y1="173.3695" x2="24.4313" y2="176.304" gradientTransform="matrix(0.9927 0.1207 -0.1207 0.9927 78.4956 -15.4884)">
				<stop  offset="0" style="stop-color:#817D7B"/>
				<stop  offset="0.1942" style="stop-color:#999392"/>
				<stop  offset="1" style="stop-color:#FFFFFF"/>
			</linearGradient>
			<path class="st97" d="M72.3,156.6c-0.1,0.2-0.2,0.4-0.3,0.6c-0.1,0.9-0.2,1.7-0.7,2.5c0,0,0,0,0,0s4,1,4.6,2c0,0,0,0.3,0.1,0.9
				c2.6-0.2,5.3-0.5,7.6-1.7c0-0.4,0.1-0.5,0.1-0.5C73.2,160.6,72.3,156.6,72.3,156.6z"/>
			
				<linearGradient id="SVGID_74_" gradientUnits="userSpaceOnUse" x1="23.8002" y1="178.8707" x2="31.3925" y2="182.4861" gradientTransform="matrix(0.9927 0.1207 -0.1207 0.9927 78.4956 -15.4884)">
				<stop  offset="0" style="stop-color:#817D7B"/>
				<stop  offset="0.1942" style="stop-color:#999392"/>
				<stop  offset="1" style="stop-color:#FFFFFF"/>
			</linearGradient>
			<path class="st98" d="M83.6,160.8c-2.2,1.2-4.9,1.6-7.6,1.7c0.4,2.2,2.1,8.1,8.5,10.7l4.4-3.9l0.5-0.8
				C83.8,164.8,83.5,162,83.6,160.8z"/>
			
				<linearGradient id="SVGID_75_" gradientUnits="userSpaceOnUse" x1="-20.2752" y1="185.7852" x2="-18.8439" y2="191.6897" gradientTransform="matrix(0.9927 0.1207 -0.1207 0.9927 78.4956 -15.4884)">
				<stop  offset="0" style="stop-color:#817D7B"/>
				<stop  offset="0.1942" style="stop-color:#999392"/>
				<stop  offset="1" style="stop-color:#FFFFFF"/>
			</linearGradient>
			<path class="st99" d="M44.5,170.5c0,0-10.9-11.1-15.9,1.5l13.5,0.3L44.5,170.5z"/>
			
				<linearGradient id="SVGID_76_" gradientUnits="userSpaceOnUse" x1="31.7417" y1="173.861" x2="32.9399" y2="178.8038" gradientTransform="matrix(0.9927 0.1207 -0.1207 0.9927 78.4956 -15.4884)">
				<stop  offset="0" style="stop-color:#817D7B"/>
				<stop  offset="0.1942" style="stop-color:#999392"/>
				<stop  offset="1" style="stop-color:#FFFFFF"/>
			</linearGradient>
			<path class="st100" d="M95.5,161.7c0,0-8.3-5.1-12.3,3.9l11.3,0L95.5,161.7z"/>
			<g>
				
					<linearGradient id="SVGID_77_" gradientUnits="userSpaceOnUse" x1="-22.1065" y1="195.5302" x2="-16.3898" y2="195.1325" gradientTransform="matrix(0.9927 0.1207 -0.1207 0.9927 78.4956 -15.4884)">
					<stop  offset="5.618000e-03" style="stop-color:#FAB200"/>
					<stop  offset="0.5459" style="stop-color:#FED300"/>
					<stop  offset="1" style="stop-color:#FFE900"/>
				</linearGradient>
				<path class="st101" d="M43.8,177.1c-0.6,4.6-4.7,7.9-9.4,7.3c-4.6-0.6-7.9-4.7-7.3-9.4c0.6-4.6,4.7-7.9,9.4-7.3
					C41.1,168.3,44.4,172.5,43.8,177.1z"/>
				
					<linearGradient id="SVGID_78_" gradientUnits="userSpaceOnUse" x1="-25.1244" y1="196.5922" x2="-11.2691" y2="196.5922" gradientTransform="matrix(0.9927 0.1207 -0.1207 0.9927 78.4956 -15.4884)">
					<stop  offset="0" style="stop-color:#E31013"/>
					<stop  offset="0.1483" style="stop-color:#E52613"/>
					<stop  offset="0.4159" style="stop-color:#E8490F"/>
					<stop  offset="0.7697" style="stop-color:#EF7900"/>
					<stop  offset="1" style="stop-color:#F49800"/>
				</linearGradient>
				<path class="st102" d="M42.3,178.1c-0.4,3.4-3.5,5.9-7,5.5c-3.4-0.4-5.9-3.5-5.5-7c0.4-3.4,3.5-5.9,7-5.5
					C40.3,171.6,42.7,174.7,42.3,178.1z"/>
				<path class="st72" d="M39.3,178.3c-0.2,1.7-1.7,2.9-3.4,2.7c-1.7-0.2-2.9-1.8-2.7-3.5c0.2-1.7,1.7-2.9,3.4-2.7
					C38.3,175.1,39.5,176.6,39.3,178.3z"/>
				
					<linearGradient id="SVGID_79_" gradientUnits="userSpaceOnUse" x1="-17.2675" y1="199.0152" x2="-19.213" y2="195.5294" gradientTransform="matrix(0.9927 0.1207 -0.1207 0.9927 78.4956 -15.4884)">
					<stop  offset="0" style="stop-color:#F18500"/>
					<stop  offset="1" style="stop-color:#FED06D"/>
				</linearGradient>
				<path class="st103" d="M39.3,177.7c-0.2,1.7-1.7,2.9-3.4,2.7c-1.7-0.2-2.9-1.7-2.7-3.4c0.2-1.7,1.8-2.9,3.4-2.7
					C38.3,174.5,39.5,176,39.3,177.7z"/>
			</g>
			<g>
				
					<linearGradient id="SVGID_80_" gradientUnits="userSpaceOnUse" x1="31.3062" y1="183.1487" x2="37.0236" y2="182.751" gradientTransform="matrix(0.9927 0.1207 -0.1207 0.9927 78.4956 -15.4884)">
					<stop  offset="5.618000e-03" style="stop-color:#FAB200"/>
					<stop  offset="0.5459" style="stop-color:#FED300"/>
					<stop  offset="1" style="stop-color:#FFE900"/>
				</linearGradient>
				<path class="st104" d="M98.4,171.2c-0.6,4.6-4.7,7.9-9.4,7.3c-4.6-0.6-7.9-4.7-7.3-9.3c0.6-4.6,4.7-7.9,9.4-7.3
					C95.6,162.5,98.9,166.6,98.4,171.2z"/>
				
					<linearGradient id="SVGID_81_" gradientUnits="userSpaceOnUse" x1="28.2834" y1="184.2073" x2="42.1438" y2="184.2073" gradientTransform="matrix(0.9927 0.1207 -0.1207 0.9927 78.4956 -15.4884)">
					<stop  offset="0" style="stop-color:#E31013"/>
					<stop  offset="0.1483" style="stop-color:#E52613"/>
					<stop  offset="0.4159" style="stop-color:#E8490F"/>
					<stop  offset="0.7697" style="stop-color:#EF7900"/>
					<stop  offset="1" style="stop-color:#F49800"/>
				</linearGradient>
				<path class="st105" d="M96.8,172.3c-0.4,3.4-3.6,5.9-7,5.5c-3.4-0.4-5.9-3.5-5.5-7c0.4-3.4,3.6-5.9,7-5.5
					C94.8,165.7,97.2,168.9,96.8,172.3z"/>
				<path class="st72" d="M93.8,172.5c-0.2,1.7-1.7,2.9-3.4,2.7c-1.7-0.2-2.9-1.8-2.7-3.4c0.2-1.7,1.8-2.9,3.4-2.7
					C92.8,169.2,94.1,170.8,93.8,172.5z"/>
				
					<linearGradient id="SVGID_82_" gradientUnits="userSpaceOnUse" x1="36.1452" y1="186.638" x2="34.1967" y2="183.147" gradientTransform="matrix(0.9927 0.1207 -0.1207 0.9927 78.4956 -15.4884)">
					<stop  offset="0" style="stop-color:#F18500"/>
					<stop  offset="1" style="stop-color:#FED06D"/>
				</linearGradient>
				<path class="st106" d="M93.8,171.9c-0.2,1.7-1.7,2.9-3.4,2.7c-1.7-0.2-2.9-1.8-2.7-3.4c0.2-1.7,1.7-2.9,3.4-2.7
					C92.8,168.6,94,170.2,93.8,171.9z"/>
			</g>
			<path class="st107" d="M53.2,133.9c0,0,3.4,14,2.5,20c0,0,3.1,14.3,23.8-6.4c0,0-20.1,8.6-19.4,5.7L53.2,133.9z"/>
			<g>
				
					<linearGradient id="SVGID_83_" gradientUnits="userSpaceOnUse" x1="16.0715" y1="163.3847" x2="9.6759" y2="151.9259" gradientTransform="matrix(0.9927 0.1207 -0.1207 0.9927 78.4956 -15.4884)">
					<stop  offset="0" style="stop-color:#F7A738"/>
					<stop  offset="1" style="stop-color:#FFF3AE"/>
				</linearGradient>
				<path class="st108" d="M56.4,134.9c0,0,1.9-0.6,4.7,0.6c0,0,2.9,1.2,10-3.5c0,0,5.9-2.7,8.4-1.9c0,0,6.4-1.8,3.5,7.4
					c0,0-8.2,15.8-22,16.2C61.1,153.7,55.1,140.1,56.4,134.9z"/>
				
					<linearGradient id="SVGID_84_" gradientUnits="userSpaceOnUse" x1="16.8723" y1="167.0144" x2="8.0476" y2="151.2033" gradientTransform="matrix(0.9927 0.1207 -0.1207 0.9927 78.4956 -15.4884)">
					<stop  offset="0" style="stop-color:#F18500"/>
					<stop  offset="1" style="stop-color:#FED06D"/>
				</linearGradient>
				<path class="st109" d="M53.1,132.1c0,0,3.4-2.7,5,4.9c0,0,1.1,1.9,1.6,12c0,0,1.1,5.1,5.6,3.1c0,0,15.1-5.9,16.9-17.3
					c0,0-0.7-5.4-4.1-4.8c0,0,3.1-2.6,5.7-0.5c0,0,5.3,2.8-0.6,12.5c0,0-3.4,7.2-14.1,13.6c0,0-8,5.3-12.8-2.2
					c0,0-1.6-18.4-2.8-18.6C53.6,134.7,52.1,133.2,53.1,132.1z"/>
			</g>
			<path class="st26" d="M21.2,168.3c0,0,2.7,3.7,3.2,6.1c0,0,2.1,8.8,18.1,6c0,0,7.8-0.6,6.5-1.9c-1.3-1.2-0.1-0.4-0.1-0.4
				l-4.9-1.8c0,0-0.4,2.9-1,3c0,0-4.6,1.1-4.1,0c0,0-4.3,2.3-5.5-1.2c0,0-7.3,1.2-6.2-3.1l-0.5-2.9l-2.5-3.7l-2.2-1.1l-1.2-1.1
				c0,0-3.6-2.4-1.8-3.6l-1.2,2.9L21.2,168.3z"/>
			
				<linearGradient id="SVGID_85_" gradientUnits="userSpaceOnUse" x1="14.8913" y1="209.8763" x2="-1.998" y2="179.6164" gradientTransform="matrix(0.9927 0.1207 -0.1207 0.9927 78.4956 -15.4884)">
				<stop  offset="0" style="stop-color:#ECE200"/>
				<stop  offset="1" style="stop-color:#C9D400"/>
			</linearGradient>
			<path class="st110" d="M24.6,174.5c0,0,1.9-3.6-3.2-6.1c0,0-14.1-11.9-21.4,1.3c0,0,4.7,10.3,24.2,18.4c0,0,17.4,7.7,57.2,0.7
				c0,0,26.4-2.9,30.8-16.9c0,0,6.4-8.7-7.2-14.4l-10.2,0.4c0,0,1.1,3.9,0.6,5.9c0,0-0.1-0.3,1,1c1.4,1.7,2.1,2.9,1.9,8.2
				c0,0-29.2,11.8-56.5,7.5C41.9,180.3,28.7,181.8,24.6,174.5z"/>
			
				<linearGradient id="SVGID_86_" gradientUnits="userSpaceOnUse" x1="-21.2101" y1="216.848" x2="-33.9493" y2="194.0237" gradientTransform="matrix(0.9927 0.1207 -0.1207 0.9927 78.4956 -15.4884)">
				<stop  offset="0" style="stop-color:#E5D600"/>
				<stop  offset="1" style="stop-color:#B5CC04"/>
			</linearGradient>
			<path class="st111" d="M2.1,167c0,0-3.7-0.2,0,6.4c0,0,15.8,19.8,46.4,18.2c0,0-44.3-9.7-45.7-24.5"/>
			<path class="st112" d="M71.1,164.7l2.9,1.5l1.1,0.5l2.4,0.3l-1.3-4.7c3.1,3.9,7.9-1,7.9-1l0.1,2.9c-2.5,2.2-2.5,5-2.5,5
				c-0.8,4.6,3.3,4.6,3.3,4.6c3,2.5,13.1-2.9,13.1-2.9c-0.1-1.6-0.2-3.2-0.2-3.2l3,1.6c1.9,4.2-8.4,5.3-8.4,5.3
				c-12,4.4-10.7,0.4-10.7,0.4c0.3-2.4-3.6-3.4-3.6-3.4c-1.8,1.4-7,0.5-7,0.5c-9-3.2,1.8-4.6,1.8-4.6L71.1,164.7z"/>
			
				<linearGradient id="SVGID_87_" gradientUnits="userSpaceOnUse" x1="14.719" y1="209.8616" x2="-2.1354" y2="179.664" gradientTransform="matrix(0.9927 0.1207 -0.1207 0.9927 78.4956 -15.4884)">
				<stop  offset="0" style="stop-color:#E5D600"/>
				<stop  offset="1" style="stop-color:#B5CC04"/>
			</linearGradient>
			<path class="st113" d="M2.2,173.4c0,0,11.6,14.8,36.6,17.8c0,0,58.3,3.6,71.5-16.2c0,0,6-7.8,0.6-13.8c0,0,8.6,14.7-16.1,22.6
				c0,0-43.2,14.3-72.9,1.6c0,0-30.7-13.1-16.4-21.2C5.4,164.2-2.4,167,2.2,173.4z"/>
			
				<linearGradient id="SVGID_88_" gradientUnits="userSpaceOnUse" x1="-14.6179" y1="179.4272" x2="-7.7138" y2="185.5346" gradientTransform="matrix(0.9927 0.1207 -0.1207 0.9927 78.4956 -15.4884)">
				<stop  offset="0" style="stop-color:#817D7B"/>
				<stop  offset="0.1942" style="stop-color:#999392"/>
				<stop  offset="1" style="stop-color:#FFFFFF"/>
			</linearGradient>
			<path class="st114" d="M33.7,166.6c0,0,13.6-19.5,19.7-8.3l-9.9,12.9C43.6,171.2,39.9,164.1,33.7,166.6z"/>
			<path class="st2" d="M40.4,111.6c0,0,1.6-2.3,2.3-2.3c0,0,1.5-1.1,2.9-0.4c0,0-2.3-0.5-4,2.1C41.6,111,41.2,111.7,40.4,111.6z"/>
			<path class="st115" d="M38.5,112.1c0,0-8.3,3.3-9.6,11.2l-0.2,0.3c0,0-2.4-0.4-2.2,2c0,0-2.8,1-3.1,5.4c0,0-0.7-3.3,2.5-5.6
				c0,0,0.3-2.4,2.1-2.1c0,0,2.4-8.3,6.3-10.6C34.3,112.8,34.7,114.3,38.5,112.1z"/>
			<path class="st115" d="M57.9,135.5c0,0,3.5,1.4,6.2,0.7c0,0,3.3-0.5,6-2.4c0,0,4.2-3.1,10.2-3.5c0,0-8,1.8-11.3,5.1
				c0,0-6.7,3.4-10.8,0.9L57.9,135.5z"/>
			<path class="st115" d="M87.6,129.4c0,0,5.3-3.7,9.1,2C96.8,131.4,92.6,127.4,87.6,129.4z"/>
			<path class="st115" d="M4.2,166.8c0,0,3.3-4.7,12.7-0.1c0,0,7.5,3.2,6.2,7.7c0,0,0.4,5.6,12.7,6.6c0,0-11.1,1.7-14.5-8.7
				c0,0-5.9-9-13-5.3c0,0,3.5,2-1.1,3.1C7.3,170.1,4.6,171,4.2,166.8z"/>
			<path class="st2" d="M31,149.8c0,0-5.2,8.2-4.9,10.7l-3,6.4l3.5-6c0,0,4.1-9.4,4.8-9.3L31,149.8z"/>
		</g>
	</g>
</g>
</svg>
