<?xml version="1.0" encoding="utf-8"?>
<!-- Generator: Adobe Illustrator 21.0.2, SVG Export Plug-In . SVG Version: 6.00 Build 0)  -->
<svg version="1.1" id="Layer_1" xmlns="http://www.w3.org/2000/svg" xmlns:xlink="http://www.w3.org/1999/xlink" x="0px" y="0px"
	 viewBox="50 0 50 100" style="enable-background:new 0 0 200 400;" xml:space="preserve">
<style type="text/css">
	.st0{fill:#E1DE0E;}
	.st1{fill:#6AB53C;}
	.st2{fill:#FFFFFF;}
	.st3{fill:url(#SVGID_1_);}
	.st4{fill:#E2E0E0;}
	.st5{opacity:0.1;fill:#13110C;}
	.st6{fill:url(#SVGID_2_);}
	.st7{fill:#F4A7AB;}
	.st8{fill:#C4D3EE;}
	.st9{fill:url(#SVGID_3_);}
	.st10{fill:url(#SVGID_4_);}
	.st11{opacity:7.000000e-02;fill:#13110C;}
	.st12{fill:url(#SVGID_5_);}
	.st13{fill:url(#SVGID_6_);}
	.st14{fill:url(#SVGID_7_);}
	.st15{fill:url(#SVGID_8_);}
	.st16{opacity:0.55;fill:#FFFFFF;}
	.st17{fill:url(#SVGID_9_);}
	.st18{fill:url(#SVGID_10_);}
	.st19{fill:url(#SVGID_11_);}
	.st20{fill:url(#SVGID_12_);}
	.st21{opacity:0.2;fill:#3D398C;}
	.st22{opacity:0.4;fill:#3D398C;}
	.st23{opacity:0.26;fill:#3D398C;}
	.st24{fill:url(#SVGID_13_);}
	.st25{fill:url(#SVGID_14_);}
	.st26{opacity:0.2;fill:#13110C;}
	.st27{fill:url(#SVGID_15_);}
	.st28{fill:url(#SVGID_16_);}
	.st29{fill:url(#SVGID_17_);}
	.st30{fill:url(#SVGID_18_);}
	.st31{fill:url(#SVGID_19_);}
	.st32{fill:url(#SVGID_20_);}
	.st33{fill:url(#SVGID_21_);}
	.st34{fill:#DAD9DA;}
	.st35{fill:#DFD9C6;}
	.st36{fill:url(#SVGID_22_);}
	.st37{fill:url(#SVGID_23_);}
	.st38{fill:url(#SVGID_24_);}
	.st39{fill:url(#SVGID_25_);}
	.st40{fill:url(#SVGID_26_);}
	.st41{fill:url(#SVGID_27_);}
	.st42{fill:url(#SVGID_28_);}
	.st43{fill:url(#SVGID_29_);}
	.st44{fill:url(#SVGID_30_);}
	.st45{fill:url(#SVGID_31_);}
	.st46{fill:url(#SVGID_32_);}
	.st47{fill:url(#SVGID_33_);}
	.st48{fill:url(#SVGID_34_);}
	.st49{fill:url(#SVGID_35_);}
	.st50{fill:url(#SVGID_36_);}
	.st51{opacity:0.22;fill:#13110C;}
	.st52{fill:url(#SVGID_37_);}
	.st53{fill:url(#SVGID_38_);}
	.st54{fill:url(#SVGID_39_);}
	.st55{fill:url(#SVGID_40_);}
	.st56{opacity:0.15;fill:#13110C;}
	.st57{fill:url(#SVGID_41_);}
	.st58{opacity:0.22;fill:url(#SVGID_42_);}
	.st59{fill:url(#SVGID_43_);}
	.st60{fill:url(#SVGID_44_);}
	.st61{opacity:0.22;fill:url(#SVGID_45_);}
	.st62{fill:url(#SVGID_46_);}
	.st63{fill:url(#SVGID_47_);}
	.st64{opacity:0.75;fill:#FFFFFF;}
	.st65{opacity:0.37;fill:#FFFFFF;}
	.st66{opacity:0.58;fill:#FFFFFF;}
	.st67{fill:url(#SVGID_48_);}
	.st68{fill:url(#SVGID_49_);}
	.st69{fill:url(#SVGID_50_);}
	.st70{fill:url(#SVGID_51_);}
	.st71{fill:url(#SVGID_52_);}
	.st72{opacity:0.57;fill:#13110C;}
	.st73{fill:url(#SVGID_53_);}
	.st74{fill:url(#SVGID_54_);}
	.st75{fill:url(#SVGID_55_);}
	.st76{fill:url(#SVGID_56_);}
	.st77{fill:url(#SVGID_57_);}
	.st78{fill:#C5C2C2;}
	.st79{fill:url(#SVGID_58_);}
	.st80{fill:url(#SVGID_59_);}
	.st81{fill:url(#SVGID_60_);}
	.st82{fill:url(#SVGID_61_);}
	.st83{fill:url(#SVGID_62_);}
	.st84{opacity:0.56;fill:#974292;}
	.st85{opacity:9.000000e-02;fill:#13110C;}
	.st86{opacity:0.18;fill:#13110C;}
	.st87{opacity:0.18;fill:url(#SVGID_63_);}
	.st88{fill:url(#SVGID_64_);}
	.st89{fill:url(#SVGID_65_);}
	.st90{fill:url(#SVGID_66_);}
	.st91{fill:url(#SVGID_67_);}
	.st92{fill:url(#SVGID_68_);}
	.st93{opacity:0.18;fill:url(#SVGID_69_);}
	.st94{opacity:0.32;fill:url(#SVGID_70_);}
	.st95{opacity:0.21;fill:url(#SVGID_71_);}
	.st96{opacity:0.18;fill:url(#SVGID_72_);}
	.st97{opacity:0.18;fill:url(#SVGID_73_);}
	.st98{opacity:0.18;fill:url(#SVGID_74_);}
	.st99{opacity:0.31;fill:url(#SVGID_75_);}
	.st100{opacity:0.31;fill:url(#SVGID_76_);}
	.st101{fill:url(#SVGID_77_);}
	.st102{fill:url(#SVGID_78_);}
	.st103{fill:url(#SVGID_79_);}
	.st104{fill:url(#SVGID_80_);}
	.st105{fill:url(#SVGID_81_);}
	.st106{fill:url(#SVGID_82_);}
	.st107{opacity:0.24;fill:#13110C;}
	.st108{fill:url(#SVGID_83_);}
	.st109{fill:url(#SVGID_84_);}
	.st110{fill:url(#SVGID_85_);}
	.st111{opacity:0.68;fill:url(#SVGID_86_);}
	.st112{opacity:0.21;fill:#5A3112;}
	.st113{fill:url(#SVGID_87_);}
	.st114{opacity:0.14;fill:url(#SVGID_88_);}
	.st115{opacity:0.86;fill:#FFFFFF;}
</style>
<g>
	<g>
		<path class="st0" d="M34.5,49.7c-1,0-2-0.2-2.9-0.7c-1.5-0.8-2.5-2.1-2.9-3.7l-3.3-12.1c-0.5-1.7-0.4-3.2,0.2-4.5
			c0.7-1.6,2.1-2.8,3.9-3.3c0.6-0.2,1.2-0.2,1.8-0.2c1,0,1.9,0.2,2.8,0.7c0.5,0.2,0.9,0.5,1.3,0.9l0-0.1c1.2-2.7,3-3.7,4.3-4
			c0.6-0.2,1.1-0.2,1.7-0.2c1.2,0,2.3,0.4,3.3,1c0.5,0.3,0.9,0.7,1.3,1.2c0.9-0.7,1.9-1.2,3.1-1.3c0.3-0.1,0.7-0.1,1-0.2l6.7-0.5
			c0.1,0,0.2,0,0.3,0c0.9,0,1.5,0.2,2.1,0.5c0.7-0.3,1.5-0.4,2.2-0.4c0.2,0,0.4,0,0.6,0l4.2,0.4c2.4,0.2,4.5,1.1,6.1,2.5
			c2.1-1.8,4.8-2.7,7.9-2.7c3.4,0,6.4,1.2,8.6,3.3c1.2-1.3,2.9-2,4.9-2c2,0,3.7,0.8,4.9,2.2c1.2-1.4,2.9-2.2,4.9-2.2
			c1.2,0,2.4,0.3,3.4,0.9c0.8-0.4,1.7-0.7,2.6-0.8c0.2,0,0.4,0,0.6,0c1.4,0,2.7,0.4,3.8,1.3c0.4,0.3,0.8,0.7,1.1,1.1l0-0.1
			c1.6-2.4,3.6-3.1,4.9-3.2c0.2,0,0.4,0,0.6,0c1.1,0,2.1,0.3,3,0.8c0.6-0.3,1.3-0.4,2-0.5l4.2-0.3c0.3,0,0.6,0,0.9,0
			c2.5,0,4.6,0.7,6.4,2.2c2,1.7,3.2,4.1,3.5,7c0.2,2.7-0.5,5.1-2.1,7c-1.4,1.7-3.2,2.8-5.4,3.2c-0.1,1.3-0.5,2.5-1.3,3.5
			c-1,1.3-2.6,2.2-4.4,2.3c-0.2,0-0.4,0-0.5,0c-1,0-2-0.2-2.8-0.6c-0.6,0.2-1.2,0.4-1.9,0.4c-0.2,0-0.4,0-0.6,0
			c-1.5,0-3-0.6-4.1-1.6c-0.3-0.2-0.5-0.5-0.7-0.8l-0.1,0.1c-0.4,0.6-1,1.3-1.7,1.8c-0.1,0.1-0.1,0.1-0.2,0.1
			c-0.9,0.7-2,1.1-3.2,1.2c-0.2,0-0.4,0-0.6,0c-0.9,0-1.7-0.2-2.4-0.5c-0.8,0.3-1.6,0.5-2.5,0.5c-1.4,0-2.7-0.4-3.8-1.2
			c-1,0.8-2.4,1.2-3.8,1.2c-1.5,0-2.8-0.5-3.9-1.3c-1.2,0.9-2.5,1.3-3.8,1.3c-1.6,0-3-0.6-4.2-1.6c-0.2-0.2-0.5-0.5-0.7-0.7
			c-1.7,0.9-3.7,1.4-5.9,1.4c-3.6,0-6.7-1.3-9-3.8c-0.7-0.8-1.3-1.6-1.7-2.5c-1,0.4-2,0.6-3.1,0.6c-0.3,1.3-0.9,2.4-1.8,3.3
			c-1.1,1-2.5,1.6-4.1,1.6c-0.2,0-0.4,0-0.6,0c-1.7-0.2-3.2-0.9-4.2-2c-1,1.2-2.5,2-4.4,2.2c-0.2,0-0.4,0-0.5,0
			c-1.4,0-2.7-0.4-3.7-1.2c-0.2,0.1-0.5,0.2-0.7,0.2c-0.6,0.2-1.1,0.2-1.7,0.2c-1.2,0-2.2-0.3-3.2-0.9c-0.3-0.2-0.6-0.4-0.8-0.6
			l0,0.1c-0.3,0.7-0.7,1.4-1.3,2.1c0,0.1-0.1,0.1-0.1,0.2c-0.8,0.9-1.8,1.4-2.9,1.8C35.6,49.6,35,49.7,34.5,49.7z"/>
		<path class="st1" d="M137.9,32.8c-0.2-2.2-1-4-2.5-5.2c-1.3-1.1-2.9-1.6-4.8-1.6c-0.2,0-0.5,0-0.7,0l-4.2,0.3
			c-0.9,0.1-1.7,0.4-2.4,1c-0.1-0.1-0.2-0.2-0.3-0.4c-0.7-0.6-1.5-1-2.5-1c-0.1,0-0.2,0-0.4,0c-1.2,0.1-2.2,0.8-3.1,2.1l-3.1,4.7
			l-0.2-2.5c-0.1-1.4-0.8-2.2-1.4-2.6c-0.6-0.5-1.4-0.8-2.3-0.8c-0.1,0-0.3,0-0.4,0c-1.1,0.1-2.1,0.6-2.8,1.6
			c-0.2-0.2-0.3-0.4-0.6-0.6c-0.8-0.7-1.8-1.1-2.9-1.1c-1.6,0-2.5,0.7-3,1.3c-0.7,0.8-1.1,1.6-1.4,2.6l-0.5,1.5l-0.3-0.9
			c-0.4-1.2-0.8-2.1-1.3-2.8c-0.7-1.1-1.9-1.7-3.3-1.7c-1.8,0-2.8,0.8-3.3,1.5c-0.5,0.7-0.8,1.5-1.1,2.8l-0.1,0.4
			c-0.4-1.1-1-2.1-1.8-3c-1.8-2-4.2-3-7.2-3c-3,0-5.4,1-7.2,3c-0.3,0.3-0.6,0.7-0.8,1.1c-0.3-0.5-0.6-1-1-1.4
			c-1.3-1.4-3-2.3-5.2-2.5l-4.2-0.4c-0.1,0-0.3,0-0.4,0c-0.9,0-1.6,0.3-2.3,0.8c-0.1,0-0.1,0.1-0.2,0.1c-0.7-0.7-1.1-1-1.8-1
			c0,0,0,0,0,0c0,0-0.1,0-0.1,0l-6.7,0.5c-0.2,0-0.4,0.1-0.7,0.1l0,0c-1.8,0.2-2.6,1.2-2.9,1.8c-0.4,0.7-0.5,1.4-0.5,2.1l0.3,4
			l-1.6-5.8c-0.3-1-0.8-1.8-1.6-2.3c-0.6-0.4-1.2-0.6-1.9-0.6c-0.3,0-0.7,0-1.1,0.1c-1.2,0.3-2.1,1.2-2.7,2.6l-2.2,5.1l-0.7-2.4
			c-0.4-1.3-1.2-2-1.8-2.3c-0.5-0.3-1.1-0.4-1.7-0.4c-0.4,0-0.8,0.1-1.1,0.2c-1.4,0.4-2,1.2-2.3,1.9c-0.4,0.8-0.4,1.8-0.1,2.9
			L31,44.6c0.3,1,0.9,1.7,1.7,2.2c0.5,0.3,1.1,0.4,1.7,0.4c0.3,0,0.7,0,1-0.1c0.7-0.2,1.3-0.5,1.7-1c0,0,0,0,0.1-0.1
			c0.4-0.5,0.7-1,0.9-1.5l2.2-5.2l0.6,2.4c0.3,1,0.8,1.8,1.6,2.3c0.6,0.4,1.2,0.5,1.8,0.5c0.3,0,0.7,0,1-0.1
			c0.8-0.2,1.4-0.6,1.9-1.1c0.6,1.2,1.7,1.9,3.2,1.9c0.1,0,0.2,0,0.4,0c2.2-0.2,3.5-1.7,3.4-4l-0.6-8.5l3.2-0.2c0.1,0,0.3,0,0.4,0
			l-0.8,8.6c-0.2,2.3,1.1,3.9,3.3,4.1c0.1,0,0.3,0,0.4,0c0.9,0,1.8-0.3,2.4-0.9c0.7-0.6,1.1-1.5,1.2-2.5l0.1-1.5l1.1,0.1
			c0.3,0,0.5,0,0.8,0c1.7,0,3.3-0.6,4.5-1.7c0.1-0.1,0.1-0.1,0.2-0.2c0.4,1.8,1.1,3.3,2.3,4.5c1.8,2,4.2,3,7.2,3
			c2.9,0,5.3-1,7.1-2.9c0,0.1,0,0.2,0,0.3c0,1,0.4,1.9,1.2,2.6c0.7,0.6,1.6,1,2.5,1c0.9,0,3-0.3,3.7-3.3l0.1,0.5
			c0.6,1.8,2,2.8,3.8,2.8c1.8,0,3.1-1,3.7-2.9l0.1-0.5c0.4,2.1,1.7,3.3,3.7,3.3c1,0,1.8-0.3,2.5-0.9c0.1,0,0.1,0.1,0.2,0.1
			c0.6,0.5,1.4,0.8,2.3,0.8c0.1,0,0.2,0,0.3,0c0.7-0.1,1.4-0.3,1.9-0.7c0,0,0.1,0,0.1-0.1c0.5-0.4,0.9-0.9,1.2-1.3l3.1-4.7l0.2,2.4
			c0.1,1,0.5,1.9,1.2,2.5c0.6,0.6,1.5,0.9,2.4,0.9c0.1,0,0.2,0,0.4,0c0.9-0.1,1.7-0.4,2.2-0.9c0.6,0.7,1.5,1.1,2.6,1.1
			c0.1,0,0.2,0,0.4,0c1.1-0.1,2-0.5,2.6-1.3c0.6-0.7,0.8-1.7,0.8-2.7l-0.1-1.5l1.1-0.1c2.1-0.1,3.7-1,4.9-2.4
			C137.5,36.6,138,34.8,137.9,32.8z M81.6,38c-0.4,0.5-0.8,0.7-1.5,0.7c-0.9,0-1.3-0.4-1.5-0.7c-0.4-0.6-0.6-1.4-0.6-2.4
			c0-1,0.2-1.8,0.6-2.4c0.4-0.5,0.8-0.8,1.5-0.8c0.7,0,1.2,0.2,1.5,0.7c0.4,0.6,0.6,1.4,0.6,2.5C82.2,36.7,82,37.5,81.6,38z"/>
		<g>
			<path class="st2" d="M46.4,40.2c0.3,1.2-0.1,2-1.3,2.3c-0.5,0.1-1,0.1-1.4-0.2c-0.4-0.3-0.7-0.7-0.8-1.2l-2-7.4l0,0l-4.3,9.9
				c-0.1,0.4-0.4,0.7-0.7,1.1c-0.2,0.2-0.5,0.4-0.9,0.5c-0.5,0.1-0.9,0.1-1.3-0.1c-0.4-0.2-0.7-0.6-0.8-1L29.5,32
				c-0.4-1.4,0-2.2,1.1-2.5c0.6-0.2,1-0.1,1.5,0.1c0.4,0.2,0.7,0.6,0.9,1.2l2.1,7.5l4.3-10c0.4-0.9,0.9-1.4,1.5-1.6
				c0.6-0.2,1-0.1,1.5,0.2c0.4,0.3,0.7,0.7,0.9,1.3L46.4,40.2z"/>
			<path class="st2" d="M58.2,28.7c0,0.5-0.1,0.9-0.3,1.2c-0.2,0.4-0.6,0.5-1,0.6l-5,0.3l0.7,10.4c0.1,1.3-0.5,2-1.7,2
				c-1.2,0.1-1.9-0.5-2-1.8l-0.8-11.7c0-0.1,0-0.1,0-0.2c0-0.1,0-0.2,0-0.2c0-0.3,0.1-0.7,0.3-1.1c0.3-0.5,0.7-0.8,1.5-0.8
				c0.1,0,0.1,0,0.3-0.1c0.1,0,0.2-0.1,0.3-0.1c0,0,0,0,0.1,0l0.1,0l6.6-0.5c0,0,0.2,0.2,0.6,0.6C58,27.8,58.2,28.2,58.2,28.7z"/>
			<path class="st2" d="M71,33.5c-0.1,1.6-0.7,2.8-1.8,3.7c-1,0.9-2.3,1.3-3.9,1.2l-3-0.3l-0.3,3.3c-0.1,0.6-0.3,1-0.6,1.4
				c-0.4,0.3-0.8,0.5-1.4,0.4c-1.2-0.1-1.8-0.8-1.7-2.1l1.1-12.4c0-0.5,0.3-0.9,0.7-1.2c0.4-0.3,0.9-0.4,1.4-0.4l4.2,0.4
				c1.7,0.2,3,0.8,4,1.8C70.7,30.4,71.1,31.8,71,33.5z M67.2,33.1c0.1-1.5-0.6-2.3-2.2-2.4l-2-0.2l-0.4,4.4l2.1,0.2
				c0.6,0.1,1.2-0.1,1.7-0.5C66.9,34.2,67.2,33.7,67.2,33.1z"/>
			<path class="st2" d="M88,35.7c0,2.5-0.7,4.5-2.1,6c-1.4,1.6-3.3,2.3-5.8,2.3c-2.4,0-4.4-0.8-5.8-2.4c-1.4-1.5-2.1-3.5-2.1-6
				c0-2.5,0.7-4.5,2.1-6c1.4-1.6,3.4-2.4,5.8-2.4c2.5,0,4.4,0.8,5.8,2.4C87.3,31.2,88,33.2,88,35.7z M84.1,35.7
				c0-1.4-0.3-2.6-0.9-3.5c-0.7-1-1.7-1.6-3.1-1.6c-1.3,0-2.4,0.5-3.1,1.6c-0.6,0.9-0.9,2-0.9,3.4c0,1.4,0.3,2.5,0.9,3.4
				c0.7,1,1.7,1.5,3.1,1.5c1.3,0,2.3-0.5,3-1.5C83.8,38.2,84.1,37,84.1,35.7z"/>
			<path class="st2" d="M107.9,43.2c0,0.5-0.2,0.9-0.5,1.3c-0.4,0.3-0.8,0.5-1.3,0.5c-1.1,0-1.7-0.6-1.9-1.9l-1.2-7.7l0,0l-2.5,8
				c-0.3,1-1,1.6-1.9,1.6c-1,0-1.7-0.5-2-1.6l-2.5-8h-0.1l-1,7.1C92.7,44.1,92,45,90.8,45c-0.5,0-0.9-0.2-1.3-0.5
				c-0.4-0.3-0.5-0.7-0.5-1.2c0-0.3,0.1-0.8,0.2-1.5L91,31.4c0.2-0.9,0.4-1.6,0.7-2c0.4-0.5,1-0.8,1.9-0.8c0.8,0,1.4,0.3,1.8,0.8
				c0.4,0.6,0.7,1.3,1.1,2.3l2,6.3l0.1,0l2.2-6.9c0.2-0.7,0.6-1.4,1.1-1.9c0.4-0.5,0.9-0.7,1.6-0.7c0.6,0,1.2,0.2,1.6,0.6
				c0.4,0.4,0.7,0.9,0.9,1.6l1.9,11.1C107.9,42.4,107.9,42.8,107.9,43.2z"/>
			<path class="st2" d="M123.3,42c0.1,1.3-0.5,1.9-1.7,2.1c-0.5,0-1-0.1-1.3-0.4c-0.3-0.3-0.5-0.8-0.6-1.3l-0.7-7.6l0,0l-6,9
				c-0.2,0.3-0.5,0.6-0.8,0.9c-0.3,0.2-0.6,0.3-0.9,0.3c-0.5,0-0.9-0.1-1.3-0.4c-0.4-0.3-0.6-0.7-0.6-1.2l-1.1-12.5
				c-0.1-1.4,0.4-2.2,1.5-2.3c0.6,0,1.1,0.1,1.4,0.4c0.4,0.3,0.6,0.7,0.6,1.3l0.7,7.7l6-9c0.5-0.8,1.1-1.2,1.7-1.3
				c0.6,0,1,0.1,1.4,0.4c0.4,0.3,0.6,0.8,0.6,1.4L123.3,42z"/>
			<path class="st2" d="M136,32.9c0.1,1.6-0.3,2.9-1.1,3.9c-0.9,1.1-2.1,1.7-3.6,1.8l-3,0.2l0.2,3.3c0,0.6-0.1,1.1-0.4,1.4
				c-0.3,0.4-0.7,0.6-1.3,0.6c-1.2,0.1-1.9-0.5-2-1.8L124,30c0-0.5,0.1-1,0.4-1.3c0.3-0.4,0.8-0.6,1.3-0.6l4.2-0.3
				c1.7-0.1,3.1,0.3,4.2,1.2C135.3,29.9,135.9,31.2,136,32.9z M132.2,33.1c-0.1-1.5-1-2.2-2.6-2l-2,0.1l0.3,4.4l2.1-0.2
				c0.6,0,1.1-0.3,1.6-0.7C132.1,34.3,132.3,33.7,132.2,33.1z"/>
		</g>
	</g>
	<g>
		<g>
			<radialGradient id="SVGID_1_" cx="134.0515" cy="46.0066" r="2.5941" gradientUnits="userSpaceOnUse">
				<stop  offset="0" style="stop-color:#FFFFFF"/>
				<stop  offset="0.49" style="stop-color:#FDFDFD"/>
				<stop  offset="0.7023" style="stop-color:#F8F7F8"/>
				<stop  offset="0.8604" style="stop-color:#EDECED"/>
				<stop  offset="0.9916" style="stop-color:#DEDDDD"/>
				<stop  offset="1" style="stop-color:#DDDCDC"/>
			</radialGradient>
			<path class="st3" d="M136.1,45.4c0,0-2.1,2.7-3.6,2c0,0-0.9-0.8,0.3-1.7l2.5-1.7L136.1,45.4z"/>
			<path class="st4" d="M135.2,43.9l-2.5,1.7c-0.4,0.3-0.6,0.7-0.6,1c0,0.5,0.4,0.8,0.4,0.8l0,0l0,0c1.5,0.7,3.6-1.9,3.7-2.1l0,0
				L135.2,43.9L135.2,43.9z M132.2,46.7C132.2,46.7,132.2,46.7,132.2,46.7c0-0.3,0.2-0.6,0.6-0.9c0,0,2.3-1.6,2.4-1.7
				c0.1,0.1,0.8,1.3,0.8,1.4c-0.3,0.3-2.2,2.5-3.5,2C132.4,47.3,132.2,47.1,132.2,46.7z"/>
			<path class="st5" d="M136,45.5c0,0-2.7,3-3.6,1.8c0,0,2.4,0.8,3.3-2.4L136,45.5z"/>
			<radialGradient id="SVGID_2_" cx="135.9869" cy="44.5113" r="1.5259" gradientUnits="userSpaceOnUse">
				<stop  offset="0" style="stop-color:#FFFFFF"/>
				<stop  offset="0.49" style="stop-color:#FDFDFD"/>
				<stop  offset="0.7023" style="stop-color:#F8F7F8"/>
				<stop  offset="0.8604" style="stop-color:#EDECED"/>
				<stop  offset="0.9916" style="stop-color:#DEDDDD"/>
				<stop  offset="1" style="stop-color:#DDDCDC"/>
			</radialGradient>
			<path class="st6" d="M137,45.1c0,0-0.9,0.3-1,0.4c0,0-1.6-1.1-1-1.6c0,0,0.9-1.2,1.9-0.8L137,45.1z"/>
			<path class="st4" d="M135.1,43.9L135.1,43.9c-0.1,0.1-0.2,0.2-0.2,0.3c0,0.6,1.1,1.3,1.1,1.4l0.1,0.1l0-0.1
				c0-0.1,0.4-0.3,0.9-0.4l0,0l0-2.1l0,0C136,42.7,135.1,43.9,135.1,43.9z M135,44.2C135,44.2,135,44.2,135,44.2
				c0-0.1,0-0.2,0.1-0.2c0,0,0.9-1.1,1.8-0.8c0,0.1,0,1.8,0,1.9c-0.3,0.1-0.8,0.2-0.9,0.4C135.8,45.3,135.1,44.7,135,44.2z"/>
			<path class="st5" d="M136.7,43.6c0,0-0.1,0.1,0,0.6c0,0-0.2,1.2-0.8,0.9c0,0,0.2,0.3,0.1,0.5l0.8-0.3c0,0-0.2-0.7,0.2-1
				C137,44.2,136.9,43.9,136.7,43.6z"/>
			<path class="st7" d="M135,44.3L135,44.3c0.7-1,1.8-0.9,1.8-0.9l0-0.1C136.8,43.3,135.6,43.2,135,44.3z"/>
			<path class="st8" d="M136.9,43.6c0,0-1-0.1-1.7,1l0.3,0.4c0,0,1.3-1.2,1.6-0.9L136.9,43.6z"/>
			<path class="st7" d="M135.7,45.1L135.7,45.1c0.1,0.1,0.8-0.7,1.2-0.4l0.1-0.1C136.4,44.3,135.7,45.1,135.7,45.1z"/>
			<radialGradient id="SVGID_3_" cx="145.9496" cy="44.7119" r="2.3339" gradientUnits="userSpaceOnUse">
				<stop  offset="0" style="stop-color:#FFFFFF"/>
				<stop  offset="0.49" style="stop-color:#FDFDFD"/>
				<stop  offset="0.7023" style="stop-color:#F8F7F8"/>
				<stop  offset="0.8604" style="stop-color:#EDECED"/>
				<stop  offset="0.9916" style="stop-color:#DEDDDD"/>
				<stop  offset="1" style="stop-color:#DDDCDC"/>
			</radialGradient>
			<path class="st9" d="M144.1,45c0,0,1.9,1.4,3.3,0.7c0,0,1-0.5,0.1-1.3c0,0-2.5-1.4-3.1-1.3C144.5,43.1,143.9,44.5,144.1,45z"/>
			<path class="st4" d="M144.5,43L144.5,43L144.5,43c-0.1,0.1-0.6,1.5-0.4,2l0,0l0,0c0.1,0.1,2,1.4,3.4,0.7c0,0,0.4-0.2,0.5-0.7
				c0-0.3-0.1-0.5-0.4-0.8l0,0l0,0C147.5,44.3,145.1,43,144.5,43z M144.1,44.7c0-0.5,0.3-1.4,0.4-1.6c0.5,0,2.2,0.8,3,1.3
				c0.2,0.2,0.3,0.4,0.3,0.6c0,0,0,0,0,0.1c0,0.3-0.4,0.5-0.4,0.6c-1.3,0.6-3-0.5-3.2-0.7C144.2,44.9,144.1,44.8,144.1,44.7z"/>
			<radialGradient id="SVGID_4_" cx="143.7296" cy="44.2134" r="1.6914" gradientUnits="userSpaceOnUse">
				<stop  offset="0" style="stop-color:#FFFFFF"/>
				<stop  offset="0.49" style="stop-color:#FDFDFD"/>
				<stop  offset="0.7023" style="stop-color:#F8F7F8"/>
				<stop  offset="0.8604" style="stop-color:#EDECED"/>
				<stop  offset="0.9916" style="stop-color:#DEDDDD"/>
				<stop  offset="1" style="stop-color:#DDDCDC"/>
			</radialGradient>
			<path class="st10" d="M143.2,45.3c0,0,0.2-0.6,0.8-0.1c0,0,0.2,0.2,0.3,0.1c0,0,0.2-2,0.7-2.1c0,0-0.9-0.8-2.2-0.3
				C142.7,42.9,142.1,44.8,143.2,45.3z"/>
			<path class="st4" d="M142.7,42.8L142.7,42.8L142.7,42.8c0,0.1-0.7,2,0.5,2.5l0.1,0l0-0.1c0,0,0.1-0.2,0.2-0.3
				c0.1,0,0.3,0,0.5,0.2c0,0,0.2,0.2,0.3,0.1l0,0l0,0c0.1-0.8,0.3-2,0.6-2l0.1,0l-0.1-0.1C145,43.1,144.1,42.3,142.7,42.8z
				 M144.8,43.2c-0.4,0.3-0.6,1.7-0.6,2c0,0-0.1,0-0.2-0.1c-0.2-0.2-0.4-0.2-0.6-0.2c-0.2,0-0.2,0.2-0.3,0.3
				c-0.5-0.3-0.6-0.8-0.6-1.2c0-0.5,0.1-0.9,0.2-1C143.8,42.6,144.6,43,144.8,43.2z"/>
			<path class="st11" d="M142.8,43.8c0,0,1,0.6,1.3,0.4c0,0-0.1,0.9,0.2,1.1c0,0,0,0.3-0.6-0.2c0,0-0.3-0.1-0.4,0.2
				C143.3,45.2,142.4,44.4,142.8,43.8z"/>
			<path class="st8" d="M142.8,43.5c0,0,0.7-0.4,1.8,0.1l-0.2,0.7l-1.6,0.1C142.8,44.4,142.5,43.5,142.8,43.5z"/>
			<path class="st7" d="M142.9,43L142.9,43c0.1,0.1,0.9-0.5,1.8,0.3l0.1-0.1C143.8,42.4,142.9,43,142.9,43z"/>
			<path class="st7" d="M142.9,44.6l0.1,0.1c0,0,0.6-0.3,1.4,0.2l0.1-0.1C143.5,44.2,142.9,44.6,142.9,44.6z"/>
			<linearGradient id="SVGID_5_" gradientUnits="userSpaceOnUse" x1="139.8997" y1="43.3548" x2="140.074" y2="49.8025">
				<stop  offset="5.618000e-03" style="stop-color:#4775B9"/>
				<stop  offset="0.1067" style="stop-color:#76CAE7"/>
				<stop  offset="1" style="stop-color:#4468B0"/>
			</linearGradient>
			<path class="st12" d="M136.9,43c0,0-0.4,0.3,0.1,1.2c0,0-0.4,0.4-0.3,0.9c0,0-0.2,0.9-0.8,1.3c0,0-0.3,0.5-0.5,1.1
				c0,0,0,0.4-0.1,0.4c0,0-0.2,0.1-0.2,1.1l2.7,3.5c0,0,0.5-0.1,1.2-1.5c0,0,0.1-0.3,0.3-0.3c0,0,0.4-0.3,0.4-0.3
				c0-0.1,0.6,0.5,0.6,0.5s3.3,0.2,3.8-0.5c0,0,0.7-1.7,0.7-2.3c0,0,0-2-1.1-2.7c0,0-0.8-0.3-0.8-1.2c0,0-0.1-0.3-0.2-0.4
				c0,0,0.1-0.8,0.4-0.9l-0.3-0.2L136.9,43z"/>
			<radialGradient id="SVGID_6_" cx="140.0981" cy="44.9484" r="1.0685" gradientUnits="userSpaceOnUse">
				<stop  offset="0.3202" style="stop-color:#414F9D"/>
				<stop  offset="0.8989" style="stop-color:#13110C"/>
			</radialGradient>
			<circle class="st13" cx="139.9" cy="45" r="0.9"/>
			<radialGradient id="SVGID_7_" cx="139.8938" cy="45.2669" r="0.9066" gradientUnits="userSpaceOnUse">
				<stop  offset="5.618000e-03" style="stop-color:#54B7E9"/>
				<stop  offset="1" style="stop-color:#404596"/>
			</radialGradient>
			<circle class="st14" cx="139.9" cy="44.9" r="0.9"/>
			<radialGradient id="SVGID_8_" cx="139.9829" cy="45.0636" r="1.4816" gradientUnits="userSpaceOnUse">
				<stop  offset="0.2416" style="stop-color:#414F9D"/>
				<stop  offset="1" style="stop-color:#13110C"/>
			</radialGradient>
			<circle class="st15" cx="139.9" cy="44.9" r="0.7"/>
			<path class="st16" d="M140.5,44.7c0,0,0.2,0.4-0.3,0.8C140.2,45.5,140.8,45.2,140.5,44.7z"/>
			<radialGradient id="SVGID_9_" cx="139.6731" cy="44.8398" r="0.132" gradientUnits="userSpaceOnUse">
				<stop  offset="0" style="stop-color:#13110C"/>
				<stop  offset="1" style="stop-color:#414F9D"/>
			</radialGradient>
			<circle class="st17" cx="139.7" cy="44.9" r="0.1"/>
			<radialGradient id="SVGID_10_" cx="139.9826" cy="44.8398" r="0.132" gradientUnits="userSpaceOnUse">
				<stop  offset="0" style="stop-color:#13110C"/>
				<stop  offset="1" style="stop-color:#414F9D"/>
			</radialGradient>
			<circle class="st18" cx="140" cy="44.9" r="0.1"/>
			<radialGradient id="SVGID_11_" cx="139.6819" cy="45.139" r="0.1323" gradientUnits="userSpaceOnUse">
				<stop  offset="0" style="stop-color:#13110C"/>
				<stop  offset="1" style="stop-color:#414F9D"/>
			</radialGradient>
			<circle class="st19" cx="139.7" cy="45.2" r="0.1"/>
			<radialGradient id="SVGID_12_" cx="140.011" cy="45.139" r="0.1323" gradientUnits="userSpaceOnUse">
				<stop  offset="0" style="stop-color:#13110C"/>
				<stop  offset="1" style="stop-color:#414F9D"/>
			</radialGradient>
			<circle class="st20" cx="140" cy="45.2" r="0.1"/>
			<path class="st21" d="M136.8,45.2c0,0,0.5-0.1,0,0.7c0,0-0.2,0.2-0.4,0.4c-0.2,0.3-0.3,0.6-0.1,0.8c0,0,1.4,0.2,0.6,0.5
				c0,0-1.1,0.5-0.8,0.6l-0.9,0.8c0,0-0.1-0.9,0.5-1.2c0,0-0.4-0.3,0.3-1.4C136,46.4,136.6,45.9,136.8,45.2z"/>
			<path class="st21" d="M139.2,45.3c0,0-0.3,0.3,0.1,0.6c0,0,0.4-0.1,0.7-0.1c0,0,1.2,0.2,1-0.5c0,0,0-0.6-0.7-0.5L139.2,45.3z"/>
			<path class="st21" d="M144.7,48.2c0-0.3-0.1-0.7-0.3-1.3c0,0,0.2-1.1-1-1.6c0,0-0.4-0.1-0.7-0.9c0,0,0.1-1.1-0.1-1.3
				c0,0-0.3,0.2-0.5,1.7c0,0-0.1,0.8,0.6,1c0,0,0.4-0.6,0.3,0.4c0,0,0.2,2.5-4.5,2.1c0,0-0.4,0.6,1.6,0.6c-1,0.3-1.8-0.2-1.8-0.2
				c-0.9-0.6-0.6,0.1-0.6,0.1l-0.2,3.3c0.8,1,1.7-1.4,1.7-1.4c0.3,0,0.6-0.3,0.6-0.3l3.2-0.2c1.4,0.5,1.4-1.1,1.4-1.1
				C144.7,48.6,144.7,48.3,144.7,48.2z"/>
			<path class="st22" d="M142.9,44.2c0,0,0.2,0.8,0.7,1.1C143.6,45.4,142.8,46.1,142.9,44.2z"/>
			<path class="st23" d="M135.9,47.1c0,0,0.1,0.3,1,0.3c0,0,0.5,0-0.9,0.4C135.9,47.8,135.2,48,135.9,47.1z"/>
			<path class="st23" d="M144.5,47.1c0,0,0.4,2.4-0.6,3.2c0,0-1.5-0.3-0.7-0.9C143.2,49.4,144.4,49.5,144.5,47.1z"/>
			<path class="st23" d="M138.2,48.9c0,0,1,1.4,2.3,0.9c0,0,0.2,1-0.3,0.8l-0.3-0.3c0,0-0.4,0.5-0.8,0.3c0,0-0.7,1.8-1.3,1.5
				L138.2,48.9z"/>
			<radialGradient id="SVGID_13_" cx="136.7363" cy="50.8437" r="3.0034" gradientUnits="userSpaceOnUse">
				<stop  offset="0" style="stop-color:#FFFFFF"/>
				<stop  offset="0.49" style="stop-color:#FDFDFD"/>
				<stop  offset="0.7023" style="stop-color:#F8F7F8"/>
				<stop  offset="0.8604" style="stop-color:#EDECED"/>
				<stop  offset="0.9916" style="stop-color:#DEDDDD"/>
				<stop  offset="1" style="stop-color:#DDDCDC"/>
			</radialGradient>
			<path class="st24" d="M136.4,48.1c0,0,0.5-0.4,1.1,0.2c0,0,2.3,1.8,0.7,3.9c0,0-1.5,1.8-3.3-0.5C134.9,51.8,134,48.8,136.4,48.1z
				"/>
			<path class="st4" d="M136.3,48.1c-0.6,0.2-1,0.5-1.3,1c-0.2,0.5-0.3,1-0.3,1.4c0,0.7,0.2,1.2,0.2,1.3l0,0l0,0
				c0.6,0.8,1.2,1.2,1.9,1.2c0.9,0,1.4-0.7,1.5-0.7c1.6-2.1-0.7-4-0.7-4C136.9,47.6,136.4,48,136.3,48.1z M134.8,50.5
				c0-0.4,0.1-0.9,0.3-1.4c0.3-0.5,0.7-0.8,1.2-1l0,0l0,0c0,0,0.5-0.4,1,0.2c0.1,0.1,2.3,1.8,0.7,3.8c0,0-0.6,0.7-1.4,0.6
				c-0.6,0-1.2-0.4-1.8-1.1C135,51.7,134.8,51.2,134.8,50.5z"/>
			<radialGradient id="SVGID_14_" cx="142.1792" cy="50.9258" r="2.9677" gradientUnits="userSpaceOnUse">
				<stop  offset="0" style="stop-color:#FFFFFF"/>
				<stop  offset="0.49" style="stop-color:#FDFDFD"/>
				<stop  offset="0.7023" style="stop-color:#F8F7F8"/>
				<stop  offset="0.8604" style="stop-color:#EDECED"/>
				<stop  offset="0.9916" style="stop-color:#DEDDDD"/>
				<stop  offset="1" style="stop-color:#DDDCDC"/>
			</radialGradient>
			<path class="st25" d="M141.4,48.4c0,0,1.4-0.3,2.8,1.6c0,0,0.9,2.5-1.2,2.8c0,0-2.3,0.6-2.9-1.7C140.1,51,139.9,48.3,141.4,48.4z
				"/>
			<path class="st4" d="M141.4,48.3c-0.3,0-0.6,0.1-0.8,0.3c-0.7,0.7-0.6,2.4-0.6,2.4c0.6,2.3,3,1.8,3,1.8c0.5-0.1,0.9-0.3,1.2-0.7
				c0.5-0.9,0.1-2.1,0.1-2.2l0,0l0,0C142.9,48,141.5,48.3,141.4,48.3z M141.4,48.4c0,0,1.4-0.3,2.7,1.6c0,0.1,0.2,0.5,0.2,1.1
				c0,0.3-0.1,0.7-0.2,1c-0.2,0.4-0.6,0.6-1.1,0.7c-0.1,0-2.2,0.5-2.8-1.7c0,0-0.1-1.7,0.5-2.3C140.9,48.5,141.1,48.4,141.4,48.4
				L141.4,48.4L141.4,48.4z"/>
			<path class="st26" d="M142.1,43.2l-4.6,0.3c0,0,0,0.3,0.2,0.6c0,0,0.1,0.1,0.1,0.1c0,0,0.1,0.1,0.1,0.1c0.1,0.1,0.3,0.1,0.5,0.1
				c0.1,0,0.1,0,0.2,0c0,0,0.1,0,0.1,0c0.2,0,0.4-0.1,0.7-0.3c0,0,0.2-0.3,0.4-0.3c0,0,0.5,0.3,1,0.4c0,0,0.1,0,0.1,0
				c0,0,0.1,0,0.1,0c0.2,0.1,0.4,0.1,0.5,0c0,0,0,0,0.1-0.1c0,0,0.1-0.1,0.1-0.1c0,0,0.1-0.1,0.1-0.1
				C142.1,43.9,142.2,43.6,142.1,43.2z"/>
			<path class="st2" d="M141.8,43.4l0.1,0.6c0.1-0.2,0.3-0.4,0.2-0.8l-4.6,0.3c0,0,0,0.3,0.2,0.6l0-0.5l0.1,0l0,0.6
				c0,0,0.1,0.1,0.1,0.1l0.1-0.7l0.5,0l-0.1,0.8c0.1,0,0.1,0,0.2,0l0.1-0.6l0.1,0l-0.1,0.5c0.2,0,0.4-0.1,0.7-0.3
				c0,0,0.2-0.3,0.4-0.3c0,0,0.5,0.3,1,0.4l-0.2-0.5l0.1,0l0.2,0.6c0,0,0.1,0,0.1,0l-0.1-0.7l0.6-0.2l0.2,0.8c0,0,0.1-0.1,0.1-0.1
				l-0.1-0.6L141.8,43.4z"/>
			<path class="st8" d="M138,43.5l-0.1,0.7c0.1,0.1,0.3,0.1,0.5,0.1l0.1-0.8L138,43.5z"/>
			<path class="st7" d="M137.6,43.5l0,0.5c0,0,0.1,0.1,0.1,0.1l0-0.6L137.6,43.5z"/>
			<path class="st7" d="M138.6,43.7l-0.1,0.6c0,0,0.1,0,0.1,0l0.1-0.5L138.6,43.7z"/>
			<path class="st7" d="M140.6,43.6l0.2,0.5c0,0,0.1,0,0.1,0l-0.2-0.6L140.6,43.6z"/>
			<path class="st7" d="M141.9,43.9l-0.1-0.6l-0.1,0l0.1,0.6C141.8,44,141.9,44,141.9,43.9z"/>
			<path class="st8" d="M140.9,43.6l0.1,0.7c0.2,0.1,0.4,0.1,0.5,0c0,0,0,0,0.1-0.1l-0.2-0.8L140.9,43.6z"/>
			<path class="st26" d="M137.3,43.4c0,0,0.3,0.7,2.5,0.6c0,0,3.5,0,2.7-0.9L137.3,43.4z"/>
			<radialGradient id="SVGID_15_" cx="143.237" cy="35.2566" r="3.1474" gradientUnits="userSpaceOnUse">
				<stop  offset="0" style="stop-color:#FFFFFF"/>
				<stop  offset="0.49" style="stop-color:#FDFDFD"/>
				<stop  offset="0.7023" style="stop-color:#F8F7F8"/>
				<stop  offset="0.8604" style="stop-color:#EDECED"/>
				<stop  offset="0.9916" style="stop-color:#DEDDDD"/>
				<stop  offset="1" style="stop-color:#DDDCDC"/>
			</radialGradient>
			<path class="st27" d="M141,36c0,0,0.2,0,0.6-1.3c0,0,1.3-3,3.3-2c0,0,1.8,1.5-1,3.8l-1.2,0.8L141,36z"/>
			<path class="st4" d="M143.5,32.5c-1.2,0.5-1.9,2.1-1.9,2.1c-0.3,1.2-0.5,1.3-0.5,1.3l-0.1,0l0.1,0.1l1.8,1.3l1.2-0.9
				c1.1-0.9,1.6-1.8,1.6-2.6c0-0.8-0.5-1.3-0.6-1.3l0,0l0,0C144.5,32.4,144,32.3,143.5,32.5z M141.7,34.7c0,0,0.7-1.6,1.8-2.1
				c0.5-0.2,0.9-0.2,1.4,0.1c0,0,0.5,0.5,0.5,1.2c0,0,0,0,0,0c0,0.8-0.5,1.6-1.6,2.5c0,0-1,0.8-1.1,0.8c-0.1-0.1-1.5-1.1-1.6-1.2
				C141.3,35.9,141.4,35.6,141.7,34.7z"/>
			<radialGradient id="SVGID_16_" cx="136.4618" cy="34.8231" r="2.8433" gradientUnits="userSpaceOnUse">
				<stop  offset="0" style="stop-color:#FFFFFF"/>
				<stop  offset="0.49" style="stop-color:#FDFDFD"/>
				<stop  offset="0.7023" style="stop-color:#F8F7F8"/>
				<stop  offset="0.8604" style="stop-color:#EDECED"/>
				<stop  offset="0.9916" style="stop-color:#DEDDDD"/>
				<stop  offset="1" style="stop-color:#DDDCDC"/>
			</radialGradient>
			<path class="st28" d="M138.1,36.3c0,0,0.6-2.2-0.7-3.4c0,0-2.8-2.7-2.7,0.8c0,0-0.1,1.4,1.3,2.4l1.1,0.8L138.1,36.3z"/>
			<path class="st4" d="M135.3,31.9c-0.4,0.2-0.6,0.8-0.6,1.8c0,0-0.1,1.4,1.4,2.4l1.1,0.9l1-0.7l0,0c0,0,0.6-2.3-0.7-3.4
				C137.4,32.8,136.1,31.6,135.3,31.9z M136.1,36.1c-1.3-0.8-1.3-2-1.3-2.3c0,0,0,0,0,0c0-0.1,0-0.1,0-0.2c0-0.9,0.2-1.4,0.5-1.5
				c0.7-0.3,2,0.9,2,0.9c0.7,0.6,0.8,1.4,0.8,2.1c0,0.6-0.1,1-0.1,1.1c0,0-0.8,0.6-0.9,0.6C137.1,36.8,136.1,36.1,136.1,36.1z"/>
			<linearGradient id="SVGID_17_" gradientUnits="userSpaceOnUse" x1="142.3674" y1="36.2737" x2="143.9092" y2="33.9918">
				<stop  offset="0" style="stop-color:#BD2987"/>
				<stop  offset="0.1566" style="stop-color:#C1358B"/>
				<stop  offset="0.6986" style="stop-color:#CE579B"/>
				<stop  offset="1" style="stop-color:#D364A2"/>
			</linearGradient>
			<path class="st29" d="M142.3,36.3c0,0-0.1-2.5,1.6-3c0,0,1.4-0.5,0.5,1.5C144.4,34.8,143.3,36.6,142.3,36.3z"/>
			<linearGradient id="SVGID_18_" gradientUnits="userSpaceOnUse" x1="142.5412" y1="36.2151" x2="144.083" y2="33.9332">
				<stop  offset="0" style="stop-color:#D0569B"/>
				<stop  offset="9.450948e-02" style="stop-color:#D56BA6"/>
				<stop  offset="0.3584" style="stop-color:#E39BC4"/>
				<stop  offset="0.558" style="stop-color:#ECB7D5"/>
				<stop  offset="0.6685" style="stop-color:#EFC1DB"/>
				<stop  offset="1" style="stop-color:#F4D2E6"/>
			</linearGradient>
			<path class="st30" d="M142.4,36.2c0,0-0.1-2.5,1.6-3c0,0,1.4-0.5,0.5,1.5C144.5,34.8,143.4,36.5,142.4,36.2z"/>
			<linearGradient id="SVGID_19_" gradientUnits="userSpaceOnUse" x1="135.7941" y1="35.2284" x2="136.7117" y2="33.8703">
				<stop  offset="0" style="stop-color:#BD2987"/>
				<stop  offset="0.1566" style="stop-color:#C1358B"/>
				<stop  offset="0.6986" style="stop-color:#CE579B"/>
				<stop  offset="1" style="stop-color:#D364A2"/>
			</linearGradient>
			<path class="st31" d="M137.4,36.1c0,0,0.4-2.1-1-3.1c0,0-1.9-1.2-1.3,1.1C135.1,34.1,135.5,35.6,137.4,36.1z"/>
			<linearGradient id="SVGID_20_" gradientUnits="userSpaceOnUse" x1="135.7311" y1="35.2595" x2="136.6167" y2="33.9489">
				<stop  offset="0" style="stop-color:#D0569B"/>
				<stop  offset="9.450948e-02" style="stop-color:#D56BA6"/>
				<stop  offset="0.3584" style="stop-color:#E39BC4"/>
				<stop  offset="0.558" style="stop-color:#ECB7D5"/>
				<stop  offset="0.6685" style="stop-color:#EFC1DB"/>
				<stop  offset="1" style="stop-color:#F4D2E6"/>
			</linearGradient>
			<path class="st32" d="M137.3,36.1c0,0,0.4-2.1-1-3c0,0-1.8-1.2-1.2,1.1C135.1,34.2,135.5,35.6,137.3,36.1z"/>
			<radialGradient id="SVGID_21_" cx="139.5751" cy="40.3379" r="5.9007" gradientUnits="userSpaceOnUse">
				<stop  offset="0" style="stop-color:#FFFFFF"/>
				<stop  offset="0.49" style="stop-color:#FDFDFD"/>
				<stop  offset="0.7023" style="stop-color:#F8F7F8"/>
				<stop  offset="0.8604" style="stop-color:#EDECED"/>
				<stop  offset="0.9916" style="stop-color:#DEDDDD"/>
				<stop  offset="1" style="stop-color:#DDDCDC"/>
			</radialGradient>
			<path class="st33" d="M138.3,35.9c0,0,1.5-0.8,3,0c0,0,2.1,0.6,2.7,3.1c0,0,0.9,2.7-1.5,4.2c0,0-2,1.1-5.1,0.3c0,0-3.1-1.2-2-4.3
				C135.4,39.2,136.3,36.5,138.3,35.9z"/>
			<path class="st4" d="M138.3,35.9c-2,0.6-2.9,3.3-2.9,3.3c-0.2,0.5-0.2,0.9-0.2,1.3c0,2.2,2.3,3.1,2.3,3.1c3,0.8,5.1-0.3,5.1-0.3
				c2.4-1.5,1.5-4.3,1.5-4.3c-0.6-2.5-2.8-3.1-2.8-3.2C139.8,35.1,138.3,35.8,138.3,35.9z M137.4,43.5c-0.1,0-3-1.2-2-4.2
				c0,0,0.9-2.7,2.8-3.2l0,0l0,0c0,0,1.4-0.8,2.9,0c0,0,2.1,0.6,2.7,3.1c0,0,0.9,2.7-1.5,4.1C142.4,43.2,140.4,44.3,137.4,43.5z"/>
			<path class="st2" d="M138.4,37.2c0,0,1.1-0.6,2.3,0c0,0,1.6,0.4,2.1,2.4c0,0,0.7,2.1-1.1,3.2c0,0-1.5,0.9-3.9,0.2
				c0,0-2.4-0.9-1.5-3.3C136.2,39.7,136.8,37.7,138.4,37.2z"/>
			<path class="st34" d="M139.4,39c0,0.3,0,0.6,0,0.8c0,0.3,0.1,0.9,0.1,1.2c0,0.1,0,0.2,0,0.2c-0.1,0.3-0.2,1-0.2,1.4
				c0,0.2,0,0.3,0.1,0.4c0,0,0,0.1,0,0.3c0,0.2,0,0.4,0.2,0.5l0.1-0.1c-0.1-0.1-0.3-0.5-0.2-0.7l0.1,0l0,0c-0.1-0.1-0.2-0.9,0-1.8
				c0,0,0.2-0.2,0-1.5c-0.1-2.1,0.3-4.2,0.3-4.2l0,0C139.8,35.6,139.4,37.2,139.4,39z"/>
			<path class="st35" d="M137.8,42.4c0,0,0.1-0.1,0.3,0.2c0,0,0.3,0.2,0.3,0.2c0,0,0.9,0.6,2,0.1c0,0,0.9-0.4,1.1-0.3
				c0,0,0,0-0.5,0.2c0,0-0.5,0-1,0.3c0,0-0.5,0.2-1.3-0.1c0,0-0.2-0.2-0.4-0.2C138.3,42.9,137.6,42.7,137.8,42.4z"/>
			<radialGradient id="SVGID_22_" cx="137.2263" cy="40.1449" r="0.6026" gradientUnits="userSpaceOnUse">
				<stop  offset="0.3202" style="stop-color:#414F9D"/>
				<stop  offset="0.8989" style="stop-color:#13110C"/>
			</radialGradient>
			<ellipse class="st36" cx="137.4" cy="40.3" rx="0.4" ry="0.5"/>
			<radialGradient id="SVGID_23_" cx="141.6713" cy="39.9997" r="0.6018" gradientUnits="userSpaceOnUse">
				<stop  offset="0.3202" style="stop-color:#414F9D"/>
				<stop  offset="0.8989" style="stop-color:#13110C"/>
			</radialGradient>
			<ellipse class="st37" cx="141.8" cy="40.2" rx="0.4" ry="0.5"/>
			<linearGradient id="SVGID_24_" gradientUnits="userSpaceOnUse" x1="139.2675" y1="42.0717" x2="139.6781" y2="41.464">
				<stop  offset="0" style="stop-color:#BC328A"/>
				<stop  offset="6.909883e-02" style="stop-color:#BF398D"/>
				<stop  offset="0.4544" style="stop-color:#CE5B9E"/>
				<stop  offset="0.6685" style="stop-color:#D468A5"/>
				<stop  offset="1" style="stop-color:#E3D5E3"/>
			</linearGradient>
			<path class="st38" d="M138.9,41.5c0,0,0.6-0.7,1.3,0.1c0,0-0.3,0.5-0.8,0.5C139.5,42.2,138.9,42,138.9,41.5z"/>
			<linearGradient id="SVGID_25_" gradientUnits="userSpaceOnUse" x1="139.2939" y1="42.0292" x2="139.6586" y2="41.4893">
				<stop  offset="0" style="stop-color:#D05399"/>
				<stop  offset="0.1586" style="stop-color:#D66BA6"/>
				<stop  offset="0.5455" style="stop-color:#E39BC4"/>
				<stop  offset="0.838" style="stop-color:#ECB7D5"/>
				<stop  offset="1" style="stop-color:#EFC1DB"/>
			</linearGradient>
			<path class="st39" d="M139,41.5c0,0,0.6-0.7,1.1,0.1c0,0-0.2,0.5-0.7,0.5C139.5,42.1,139,42,139,41.5z"/>
			<path class="st2" d="M141.8,39.8c0,0-0.4,0-0.2,0.4c0,0,0.2,0,0.1-0.2C141.7,40,141.4,40.1,141.8,39.8z"/>
			<path class="st2" d="M137.3,40c0,0-0.3,0-0.2,0.4c0,0,0.2,0,0.1-0.2C137.3,40.2,137,40.2,137.3,40z"/>
			<path class="st2" d="M139.1,41.5c0,0,0.6-0.4,1,0.2c0,0-0.4,0.5-0.7,0.4c0,0,0.2,0.1,0.4-0.3c0,0,0.2-0.2-0.1-0.3
				C139.8,41.5,139.7,41.3,139.1,41.5z"/>
			<radialGradient id="SVGID_26_" cx="136.9323" cy="41.7242" r="0.5805" gradientUnits="userSpaceOnUse">
				<stop  offset="0" style="stop-color:#F4D6E8"/>
				<stop  offset="1" style="stop-color:#FFFFFF"/>
			</radialGradient>
			<circle class="st40" cx="136.9" cy="41.7" r="0.6"/>
			<radialGradient id="SVGID_27_" cx="141.9854" cy="41.7823" r="0.5808" gradientUnits="userSpaceOnUse">
				<stop  offset="0" style="stop-color:#F4D6E8"/>
				<stop  offset="1" style="stop-color:#FFFFFF"/>
			</radialGradient>
			<circle class="st41" cx="142" cy="41.8" r="0.6"/>
			<path class="st2" d="M143.4,33.7c0,0-1.4,1.3-0.8,2.6C142.6,36.2,142.2,35.1,143.4,33.7z"/>
			<path class="st2" d="M135.8,32.9c0,0,1.4,0.2,1.6,2.5c0,0,0.3,1.2-0.8,0.5c0,0,1.2,0.8,0.6-1C137.2,34.9,137.1,33.4,135.8,32.9z"
				/>
			<path class="st5" d="M140.3,49.3c0,0-0.1,2.6,1.9,2.9c0,0,1.7,0.3,2-1.3c0,0,0.7,2-2.3,1.8C142,52.8,139.3,52.4,140.3,49.3z"/>
			<path class="st5" d="M136.1,48.3c0,0-1.7,1.8-0.4,3.5c0,0,1.4,1.7,2.9-0.4c0,0-1,3-3.4,0.7C135.2,52.1,133.6,49.5,136.1,48.3z"/>
			<path class="st5" d="M144.1,44.1c0,0,0,1.1,0.2,1.1c0,0,1.9,1.1,2.8,0.6C147.2,45.8,144.4,45.9,144.1,44.1z"/>
		</g>
	</g>
	<g>
		<g>
			<g>
				<linearGradient id="SVGID_28_" gradientUnits="userSpaceOnUse" x1="89.9397" y1="28.5758" x2="89.9397" y2="25.1461">
					<stop  offset="0.2416" style="stop-color:#4461AA"/>
					<stop  offset="1" style="stop-color:#172945"/>
				</linearGradient>
				<path class="st42" d="M89.8,23.6l2.2,1.6l-1.8,3.3c0,0-2-0.4-2.3-2.7C87.9,25.9,88.1,23.4,89.8,23.6z"/>
				<linearGradient id="SVGID_29_" gradientUnits="userSpaceOnUse" x1="91.9585" y1="26.7294" x2="89.112" y2="26.6481">
					<stop  offset="0" style="stop-color:#76CAE7"/>
					<stop  offset="1" style="stop-color:#4468B0"/>
				</linearGradient>
				<path class="st43" d="M92.8,26.3c0.1,1-0.7,2.1-1.7,2.3c-1,0.2-1.9-0.4-1.9-1.4c-0.1-1,0.7-2.1,1.7-2.3
					C91.9,24.6,92.7,25.2,92.8,26.3z"/>
				<linearGradient id="SVGID_30_" gradientUnits="userSpaceOnUse" x1="91.0664" y1="27.5694" x2="91.0664" y2="26.5417">
					<stop  offset="0.2416" style="stop-color:#4A82C3"/>
					<stop  offset="1" style="stop-color:#323E92"/>
				</linearGradient>
				<path class="st44" d="M91.8,26.6c0,0.4-0.3,0.8-0.7,0.9c-0.4,0.1-0.7-0.2-0.8-0.6c0-0.4,0.3-0.8,0.7-0.9
					C91.4,26,91.8,26.2,91.8,26.6z"/>
				<g>
					<linearGradient id="SVGID_31_" gradientUnits="userSpaceOnUse" x1="96.0643" y1="14.3445" x2="95.3767" y2="13.9434">
						<stop  offset="0" style="stop-color:#FFEB00"/>
						<stop  offset="1" style="stop-color:#FFCF21"/>
					</linearGradient>
					<path class="st45" d="M96.8,14.1c0,0-3.1-1.2-1.3,0.7L96.8,14.1z"/>
					<linearGradient id="SVGID_32_" gradientUnits="userSpaceOnUse" x1="96.368" y1="14.8654" x2="95.4677" y2="14.5185">
						<stop  offset="1.685400e-02" style="stop-color:#FFD500"/>
						<stop  offset="0.3202" style="stop-color:#FFF9D7"/>
						<stop  offset="0.5281" style="stop-color:#FFD500"/>
						<stop  offset="0.7886" style="stop-color:#F7BF00"/>
						<stop  offset="1" style="stop-color:#F2B100"/>
					</linearGradient>
					<polygon class="st46" points="95,13.7 94.8,14.9 96.3,15 					"/>
				</g>
				<g>
					<linearGradient id="SVGID_33_" gradientUnits="userSpaceOnUse" x1="84.1717" y1="14.3614" x2="88.1719" y2="16.9738">
						<stop  offset="0" style="stop-color:#FFEB00"/>
						<stop  offset="1" style="stop-color:#FFCF21"/>
					</linearGradient>
					<path class="st47" d="M83.4,16.7l-2.9-4.2c0,0-1.5-1.5,2.5-1.1c0,0,3.8,0.9,5.2,4.2L83.4,16.7z"/>
					<linearGradient id="SVGID_34_" gradientUnits="userSpaceOnUse" x1="78.2822" y1="13.9077" x2="82.5229" y2="15.131">
						<stop  offset="8.988800e-02" style="stop-color:#FFD500"/>
						<stop  offset="0.3483" style="stop-color:#FFF9D7"/>
						<stop  offset="0.5281" style="stop-color:#FFD500"/>
						<stop  offset="0.7886" style="stop-color:#F7BF00"/>
						<stop  offset="1" style="stop-color:#F2B100"/>
					</linearGradient>
					<path class="st48" d="M80.2,11.7l-0.7,2.6c0,0,1.6,2.9,3.3,3.7l1.6-1.3L80.2,11.7z"/>
				</g>
				<linearGradient id="SVGID_35_" gradientUnits="userSpaceOnUse" x1="80.3169" y1="16.5769" x2="103.4016" y2="16.5769">
					<stop  offset="0" style="stop-color:#039339"/>
					<stop  offset="1" style="stop-color:#C9D400"/>
				</linearGradient>
				<path class="st49" d="M80.3,17.7c0,0-0.1-2,13.2-2.5c0,0,2.3-0.2,3.3-3.2c0,0,0.9-1.6,2.7-1.4l3.8,2.6c0,0,0.2,0.3-0.1,1.4
					l-5.4,4.6L83,22.5L80.3,17.7z"/>
				<linearGradient id="SVGID_36_" gradientUnits="userSpaceOnUse" x1="82.7675" y1="19.3355" x2="103.3945" y2="19.3355">
					<stop  offset="0" style="stop-color:#0F6E31"/>
					<stop  offset="1" style="stop-color:#84BC26"/>
				</linearGradient>
				<path class="st50" d="M83,23.4c0,0,3,4.2,10.1,0.6c0,0,5-2.5,7.2-3.3c0,0,2-0.2,3.1-7.3c0,0-1-0.8-2.9,1.7c0,0-1.1,3.3-4.3,3.4
					c0,0-10.3-1-13.3,3.3C82.9,21.9,82.5,23,83,23.4z"/>
				<polygon class="st51" points="86.3,15.7 88.4,18.5 93.9,18 				"/>
				<linearGradient id="SVGID_37_" gradientUnits="userSpaceOnUse" x1="90.3135" y1="14.3532" x2="87.7456" y2="16.6678">
					<stop  offset="0" style="stop-color:#F7F2D8"/>
					<stop  offset="1" style="stop-color:#FFFFFF"/>
				</linearGradient>
				<path class="st52" d="M89.7,18.4l-1.1,0.1l-2.3-2.8c0,0,0.8-4,4.6-3.4l2.7,2.5L89.7,18.4z"/>
				<linearGradient id="SVGID_38_" gradientUnits="userSpaceOnUse" x1="89.4036" y1="18.2958" x2="93.2055" y2="15.9656">
					<stop  offset="0" style="stop-color:#C2B684"/>
					<stop  offset="1" style="stop-color:#F9F6D3"/>
				</linearGradient>
				<path class="st53" d="M93.9,18c0,0,1.7-3.6-2.1-3.4c0,0-1.4-0.2-3.2,3.9L93.9,18z"/>
				<linearGradient id="SVGID_39_" gradientUnits="userSpaceOnUse" x1="80.1559" y1="21.6066" x2="81.8988" y2="19.6458">
					<stop  offset="0" style="stop-color:#C2B684"/>
					<stop  offset="1" style="stop-color:#E6E0A7"/>
				</linearGradient>
				<path class="st54" d="M82.5,19.9c1.3,2.7,1.7,5.1,1,5.4c-1.7,0.8-2.7-2.4-3.6-4.2c-1.4-2.9-2.7-4.6-1-5.4
					C79.6,15.4,81.2,17.3,82.5,19.9z"/>
				<linearGradient id="SVGID_40_" gradientUnits="userSpaceOnUse" x1="78.3877" y1="22.873" x2="81.1705" y2="20.2539">
					<stop  offset="0" style="stop-color:#F7F2D8"/>
					<stop  offset="1" style="stop-color:#FFFFFF"/>
				</linearGradient>
				<path class="st55" d="M81.9,20.2c1.3,2.7,1.7,5.1,1,5.4c-0.7,0.3-2.3-1.5-3.6-4.2c-1.3-2.7-1.7-5.1-1-5.4
					C79,15.6,80.6,17.5,81.9,20.2z"/>
				
					<ellipse transform="matrix(0.8747 -0.4846 0.4846 0.8747 2.286703e-02 41.6087)" class="st56" cx="80.5" cy="20.8" rx="0.9" ry="1.4"/>
				<radialGradient id="SVGID_41_" cx="80.398" cy="20.0962" r="2.7149" gradientUnits="userSpaceOnUse">
					<stop  offset="0" style="stop-color:#F7A600"/>
					<stop  offset="3.987449e-02" style="stop-color:#F59E00"/>
					<stop  offset="0.2729" style="stop-color:#EE7601"/>
					<stop  offset="0.493" style="stop-color:#E9510E"/>
					<stop  offset="0.694" style="stop-color:#E63312"/>
					<stop  offset="0.8695" style="stop-color:#E41D13"/>
					<stop  offset="1" style="stop-color:#E31013"/>
				</radialGradient>
				<ellipse class="st57" cx="80.1" cy="20.5" rx="1.2" ry="1.3"/>
				<linearGradient id="SVGID_42_" gradientUnits="userSpaceOnUse" x1="89.3961" y1="20.9418" x2="91.6587" y2="22.5318">
					<stop  offset="0" style="stop-color:#13110C"/>
					<stop  offset="1" style="stop-color:#FFFFFF"/>
				</linearGradient>
				<path class="st58" d="M94.9,19.5l-7.1,0.4l-0.7,2.9l1,2.4c0,0,1.6,0.1,4.1-0.8L94.9,19.5z"/>
				<g>
					<linearGradient id="SVGID_43_" gradientUnits="userSpaceOnUse" x1="95.2439" y1="22.6354" x2="88.4664" y2="20.1857">
						<stop  offset="0" style="stop-color:#FFEB00"/>
						<stop  offset="1" style="stop-color:#FFCF21"/>
					</linearGradient>
					<path class="st59" d="M87.9,20.1l7-0.6c0,0,6.2,4.6,6.6,5.2l-0.2,1.2c0,0-1.6,1.5-5.5-0.2C95.8,25.8,87,21.2,87.9,20.1z"/>
					<linearGradient id="SVGID_44_" gradientUnits="userSpaceOnUse" x1="100.9481" y1="27.0181" x2="93.119" y2="24.0007">
						<stop  offset="1.685400e-02" style="stop-color:#FFD500"/>
						<stop  offset="0.3202" style="stop-color:#FFF9D7"/>
						<stop  offset="0.5281" style="stop-color:#FFD500"/>
						<stop  offset="0.7886" style="stop-color:#F7BF00"/>
						<stop  offset="1" style="stop-color:#F2B100"/>
					</linearGradient>
					<path class="st60" d="M87.9,20.1l-0.8,2.8c0,0,9.4,5.2,10.9,5.5c0,0,2.3,0.6,2.8-0.9l0.7-2.7c0,0-0.2,2-3.4,0.8
						C98.1,25.6,88.6,20.9,87.9,20.1z"/>
				</g>
				<linearGradient id="SVGID_45_" gradientUnits="userSpaceOnUse" x1="100.4383" y1="18.6442" x2="101.6769" y2="19.9447">
					<stop  offset="0" style="stop-color:#13110C"/>
					<stop  offset="1" style="stop-color:#FFFFFF"/>
				</linearGradient>
				<path class="st61" d="M102.3,18.1l-2.9,0L99.1,19l0.9,1.7C100,20.6,101.3,20.6,102.3,18.1z"/>
				<g>
					<linearGradient id="SVGID_46_" gradientUnits="userSpaceOnUse" x1="103.9519" y1="20.2923" x2="101.2638" y2="19.2563">
						<stop  offset="1.685400e-02" style="stop-color:#FFD500"/>
						<stop  offset="0.3202" style="stop-color:#FFF9D7"/>
						<stop  offset="0.5281" style="stop-color:#FFD500"/>
						<stop  offset="0.7886" style="stop-color:#F7BF00"/>
						<stop  offset="1" style="stop-color:#F2B100"/>
					</linearGradient>
					<path class="st62" d="M99.4,18.3h0.9l3.8,1.5l-0.2,0.7c0,0,0.3,0.7-4.8-1.5L99.4,18.3z"/>
					<linearGradient id="SVGID_47_" gradientUnits="userSpaceOnUse" x1="102.9056" y1="19.4334" x2="100.9219" y2="18.2763">
						<stop  offset="0" style="stop-color:#FFEB00"/>
						<stop  offset="1" style="stop-color:#FFCF21"/>
					</linearGradient>
					<path class="st63" d="M99.4,18.3c0,0,6.8,3.1,4.3,0.9l-1.5-1.1L99.4,18.3z"/>
				</g>
				<path class="st64" d="M79.2,20c0,0,0.4-0.9,1.3-0.4l0.1,0.2c0,0-1.1,0-1.1,0.4L79.2,20z"/>
			</g>
			<path class="st65" d="M94.7,14.8l2.9,2.9c0,0,1.1-0.4,2-1.6l-3.4-2.4C95.9,14.2,95.4,14.8,94.7,14.8z"/>
			<path class="st65" d="M100.3,14.8l-3.5-2.2l-0.1,0.2c0,0-0.1,0.2-0.2,0.5l3.5,2.3C100.1,15.4,100.2,15.1,100.3,14.8z"/>
		</g>
	</g>
	<g>
		<g>
			<path class="st66" d="M18.7,35.6c0,0,1.1-0.6,2.5-0.1C21.2,35.6,20.2,34.9,18.7,35.6z"/>
			
				<linearGradient id="SVGID_48_" gradientUnits="userSpaceOnUse" x1="-43.9743" y1="73.4736" x2="-51.7416" y2="73.3058" gradientTransform="matrix(0.9927 0.1207 -0.1207 0.9927 81.5947 -14.4734)">
				<stop  offset="0" style="stop-color:#81A52A"/>
				<stop  offset="1" style="stop-color:#ACC90F"/>
			</linearGradient>
			<path class="st67" d="M13.7,50.2c0,0,6.8,1.9,14.4-0.4c0,0,9.8-0.4,4.5,4c0,0-14.3,2.4-17.1,0.6C15.5,54.4,10.9,50.6,13.7,50.2z"
				/>
			<g>
				
					<linearGradient id="SVGID_49_" gradientUnits="userSpaceOnUse" x1="-41.1825" y1="64.3892" x2="-43.0703" y2="61.9622" gradientTransform="matrix(0.9927 0.1207 -0.1207 0.9927 81.5947 -14.4734)">
					<stop  offset="0" style="stop-color:#E41713"/>
					<stop  offset="0.1828" style="stop-color:#E52513"/>
					<stop  offset="0.468" style="stop-color:#E73E11"/>
					<stop  offset="0.8181" style="stop-color:#EB6209"/>
					<stop  offset="1" style="stop-color:#EE7601"/>
				</linearGradient>
				<path class="st68" d="M30.1,42c0,0,0.2-1.5,2.1-0.9c0,0,1,0.1,1.2,2.6c0,0,0.6,1.4,1.2,1.6c0,0,0.4,0.5-0.4,0.6
					c0,0-1.2,0.5-3.4-2.3L30.1,42z"/>
				
					<linearGradient id="SVGID_50_" gradientUnits="userSpaceOnUse" x1="-41.4794" y1="64.9821" x2="-42.8442" y2="63.2275" gradientTransform="matrix(0.9927 0.1207 -0.1207 0.9927 81.5947 -14.4734)">
					<stop  offset="0" style="stop-color:#A01916"/>
					<stop  offset="0.1103" style="stop-color:#A32218"/>
					<stop  offset="0.2825" style="stop-color:#AC341F"/>
					<stop  offset="0.4951" style="stop-color:#BE542F"/>
					<stop  offset="0.7397" style="stop-color:#D7824E"/>
					<stop  offset="1" style="stop-color:#FAC07F"/>
				</linearGradient>
				<path class="st69" d="M30.5,43.1c0,0,0.3-1.1,1.3,0.7c0,0,0.8,2,2.3,2c0,0-1,0.4-2.8-1.7L30.5,43.1z"/>
			</g>
			<g>
				
					<linearGradient id="SVGID_51_" gradientUnits="userSpaceOnUse" x1="-45.6919" y1="69.4766" x2="-44.33" y2="69.3819" gradientTransform="matrix(0.9927 0.1207 -0.1207 0.9927 81.5947 -14.4734)">
					<stop  offset="5.618000e-03" style="stop-color:#FAB200"/>
					<stop  offset="0.5459" style="stop-color:#FED300"/>
					<stop  offset="1" style="stop-color:#FFE900"/>
				</linearGradient>
				<circle class="st70" cx="28.5" cy="49" r="2"/>
				
					<linearGradient id="SVGID_52_" gradientUnits="userSpaceOnUse" x1="-46.4122" y1="69.7291" x2="-43.1093" y2="69.7291" gradientTransform="matrix(0.9927 0.1207 -0.1207 0.9927 81.5947 -14.4734)">
					<stop  offset="0" style="stop-color:#A61916"/>
					<stop  offset="1" style="stop-color:#E31013"/>
				</linearGradient>
				<circle class="st71" cx="28.6" cy="49.3" r="1.5"/>
				
					<ellipse transform="matrix(0.1205 -0.9927 0.9927 0.1205 -23.9109 71.9297)" class="st72" cx="28.6" cy="49.5" rx="0.7" ry="0.7"/>
				
					<radialGradient id="SVGID_53_" cx="-44.4528" cy="70.2979" r="1.6516" gradientTransform="matrix(0.9927 0.1207 -0.1207 0.9927 81.5947 -14.4734)" gradientUnits="userSpaceOnUse">
					<stop  offset="0" style="stop-color:#A5559C"/>
					<stop  offset="1" style="stop-color:#D8B4D6"/>
				</radialGradient>
				<circle class="st73" cx="28.6" cy="49.3" r="0.7"/>
			</g>
			<g>
				
					<linearGradient id="SVGID_54_" gradientUnits="userSpaceOnUse" x1="-60.5109" y1="72.3657" x2="-54.763" y2="72.2836" gradientTransform="matrix(0.9927 0.1207 -0.1207 0.9927 81.5947 -14.4734)">
					<stop  offset="5.618000e-03" style="stop-color:#FAB200"/>
					<stop  offset="0.5459" style="stop-color:#FED300"/>
					<stop  offset="1" style="stop-color:#FFE900"/>
				</linearGradient>
				<circle class="st74" cx="15.9" cy="50.4" r="2"/>
				
					<linearGradient id="SVGID_55_" gradientUnits="userSpaceOnUse" x1="-58.7141" y1="72.6158" x2="-55.4131" y2="72.6158" gradientTransform="matrix(0.9927 0.1207 -0.1207 0.9927 81.5947 -14.4734)">
					<stop  offset="0" style="stop-color:#A61916"/>
					<stop  offset="1" style="stop-color:#E31013"/>
				</linearGradient>
				<circle class="st75" cx="16" cy="50.7" r="1.5"/>
				
					<ellipse transform="matrix(0.1199 -0.9928 0.9928 0.1199 -36.323 60.7043)" class="st72" cx="16.1" cy="50.8" rx="0.7" ry="0.7"/>
				
					<radialGradient id="SVGID_56_" cx="-56.7544" cy="73.184" r="1.6519" gradientTransform="matrix(0.9927 0.1207 -0.1207 0.9927 81.5947 -14.4734)" gradientUnits="userSpaceOnUse">
					<stop  offset="0" style="stop-color:#A5559C"/>
					<stop  offset="1" style="stop-color:#D8B4D6"/>
				</radialGradient>
				<circle class="st76" cx="16.1" cy="50.7" r="0.7"/>
			</g>
			
				<linearGradient id="SVGID_57_" gradientUnits="userSpaceOnUse" x1="-49.669" y1="74.3453" x2="-50.1071" y2="67.7729" gradientTransform="matrix(0.9927 0.1207 -0.1207 0.9927 81.5947 -14.4734)">
				<stop  offset="0" style="stop-color:#FFF17D"/>
				<stop  offset="1" style="stop-color:#FFFFFF"/>
			</linearGradient>
			<path class="st77" d="M18.5,36.9c0,0-1.1,0.3-1.3,1c0,0-0.7,0.6-0.7,1.5c0,0-0.3,0.4-0.3,0.7c0,0-1.2,0.6-1.1,1.5
				c0,0,0.1,0.8,1.1,1.1c0,0-0.1,0.3,0.6,0.4c0,0,0.8-0.2,1.1-0.5c0,0,0.7,0,0.9,0c0,0-2,2-1.7,3.5c0,0-1.5,2.1-1.4,2.8l-1,2
				l1.4,2.5l3.6-1.6l0.6-0.4c0,0,1.2-1.6,1.5-1.7c0,0,2.3,0.6,4.9-0.8c0,0,0.9,0.2,1.1,0.5c0,0,0.1,2,2.1,2.8l2.5-2.2
				c0,0,0.1-0.9,0-1.2c0,0-0.2-0.6-0.2-0.8c0,0,0-0.3-0.4-0.6c0,0-1.1-0.7-0.7-1.5c0,0,0.2-0.8,0-1.9l0.1-0.4c0,0-0.5-1.4-1.3-1.4
				c0,0-6.5,2.1-7.5,0.5c0,0,0.1-3.5,0.1-4C22.5,38.5,21.1,35,18.5,36.9z"/>
			<path class="st78" d="M18.5,36.8c-0.1,0-1.1,0.4-1.3,1c-0.1,0-0.6,0.6-0.7,1.4c0,0,0,0.1,0,0.1c0,0-0.3,0.4-0.3,0.7
				c-0.1,0.1-1,0.5-1.1,1.3c0,0.1,0,0.2,0,0.3c0,0,0.1,0.8,1.1,1.1c0,0,0,0.1,0,0.1c0.1,0.1,0.3,0.2,0.6,0.3l0,0l0,0
				c0,0,0.8-0.2,1.1-0.5c0.1,0,0.5,0,0.8,0c-0.3,0.3-1.5,1.6-1.7,2.9c0,0.2,0,0.4,0,0.6c-0.1,0.1-1.3,1.8-1.4,2.6c0,0.1,0,0.1,0,0.2
				c0,0-1,2-1,2l1.4,2.5l3.6-1.6l0.6-0.4l0,0c0.3-0.4,1.3-1.6,1.4-1.7c0.1,0,2.4,0.5,4.9-0.8c0.3,0.1,0.9,0.3,1.1,0.5
				c0,0.1,0.2,2,2.1,2.8l0,0l2.5-2.2l0,0c0,0,0-0.1,0-0.1c0-0.3,0.1-0.9,0-1.1c-0.1-0.2-0.2-0.6-0.2-0.8c0,0,0,0,0,0l0,0l0,0
				c0,0,0-0.4-0.4-0.6c0,0-0.9-0.6-0.8-1.2c0-0.1,0-0.1,0.1-0.2c0,0,0-0.2,0.1-0.4c0-0.3,0.1-0.9-0.1-1.5c0,0,0.1-0.4,0.1-0.4l0,0
				c0-0.1-0.5-1.4-1.4-1.4h0l0,0c-0.1,0-6.4,2.1-7.4,0.5c0-0.2,0.1-3.5,0.1-4l0,0l0,0c0,0-0.7-1.8-2-2.2
				C19.9,36.2,19.2,36.3,18.5,36.8z M16.2,42.8C16.2,42.7,16.2,42.7,16.2,42.8c0-0.1,0-0.1,0-0.1l0,0l0,0c-1-0.3-1.1-1-1.1-1
				c0-0.1,0-0.2,0-0.3c0.1-0.8,1.1-1.2,1.1-1.2l0,0l0,0c0.1-0.3,0.3-0.7,0.3-0.7l0,0l0,0c0,0,0-0.1,0-0.1c0.1-0.8,0.7-1.4,0.7-1.4
				l0,0l0,0c0.2-0.6,1.3-0.9,1.3-0.9l0,0l0,0c0.7-0.5,1.3-0.7,2-0.5c1.2,0.4,1.9,2.1,1.9,2.1c0.1,0.5-0.1,3.9-0.1,4v0l0,0
				c1,1.6,7.2-0.4,7.5-0.5c0.8,0,1.3,1.2,1.3,1.3c0,0-0.1,0.4-0.1,0.4l0,0c0.1,0.6,0.1,1.2,0.1,1.5c0,0.2-0.1,0.4-0.1,0.4
				c0,0.1-0.1,0.2-0.1,0.2c-0.1,0.7,0.8,1.3,0.8,1.3c0.3,0.2,0.4,0.5,0.4,0.6c0,0,0,0,0,0c0,0.2,0.2,0.7,0.2,0.8
				c0.1,0.2,0,0.8,0,1.1c0,0.1,0,0.1,0,0.1c0,0-2.5,2.2-2.5,2.2c-1.9-0.8-2-2.7-2-2.7v0l0,0c-0.1-0.2-1.1-0.5-1.1-0.5l0,0l0,0
				c-2.6,1.4-4.9,0.8-4.9,0.8l0,0l0,0c-0.2,0.1-1.3,1.5-1.5,1.7c0,0-0.6,0.4-0.6,0.4s-3.5,1.5-3.6,1.5c0,0-1.4-2.4-1.4-2.4
				c0,0,1-2,1-2l0,0c0,0,0-0.1,0-0.2c0.1-0.8,1.3-2.5,1.4-2.6l0,0l0,0c0-0.2,0-0.4,0-0.6c0.2-1.4,1.7-2.9,1.7-2.9l0.1-0.1l-0.1,0
				c-0.3,0-0.9,0-0.9,0l0,0l0,0c-0.3,0.4-1,0.5-1.1,0.5C16.4,43,16.3,42.9,16.2,42.8z"/>
			
				<linearGradient id="SVGID_58_" gradientUnits="userSpaceOnUse" x1="-54.0789" y1="59.6665" x2="-55.8082" y2="57.4432" gradientTransform="matrix(0.9927 0.1207 -0.1207 0.9927 81.5947 -14.4734)">
				<stop  offset="0" style="stop-color:#E41713"/>
				<stop  offset="0.113" style="stop-color:#E52517"/>
				<stop  offset="0.2894" style="stop-color:#E73E20"/>
				<stop  offset="0.5071" style="stop-color:#EC6433"/>
				<stop  offset="0.7553" style="stop-color:#F39254"/>
				<stop  offset="1" style="stop-color:#FAC07F"/>
			</linearGradient>
			<path class="st79" d="M18.3,37.5c0,0,0.3-0.3,0.7-0.2c0,0,0.4,0,0.5-0.3c0,0,0.7-1,1.5-0.1c0,0,0.3,0.5,0.4,0.7
				c0,0,1.1,0.7,1,1.6c0,0,0.5-1.1-0.5-2.9c0,0-1-1.8-3.4-1.1c0,0-0.9,0.3-0.4,1.3c0,0,0.2,0.3-0.2,0.7
				C17.9,37.3,17.7,37.6,18.3,37.5z"/>
			
				<radialGradient id="SVGID_59_" cx="-55.7535" cy="60.898" r="0.4694" gradientTransform="matrix(0.9927 0.1207 -0.1207 0.9927 81.5947 -14.4734)" gradientUnits="userSpaceOnUse">
				<stop  offset="0.3202" style="stop-color:#414F9D"/>
				<stop  offset="0.8989" style="stop-color:#13110C"/>
			</radialGradient>
			<circle class="st80" cx="19" cy="39.4" r="0.4"/>
			
				<linearGradient id="SVGID_60_" gradientUnits="userSpaceOnUse" x1="-53.3599" y1="61.5495" x2="-53.9534" y2="60.7864" gradientTransform="matrix(0.9927 0.1207 -0.1207 0.9927 81.5947 -14.4734)">
				<stop  offset="0" style="stop-color:#E41713"/>
				<stop  offset="0.1828" style="stop-color:#E52513"/>
				<stop  offset="0.468" style="stop-color:#E73E11"/>
				<stop  offset="0.8181" style="stop-color:#EB6209"/>
				<stop  offset="1" style="stop-color:#EE7601"/>
			</linearGradient>
			<path class="st81" d="M21.2,39c-0.5-0.1-1,0.3-1,0.8c0,0.1,0,0.2,0,0.3v0c0,0.2,0.1,0.4,0.3,0.6l0,0l0,0c0.1,0.1,0.3,0.2,0.5,0.2
				c0.5,0.1,1-0.3,1-0.8C22,39.5,21.7,39,21.2,39z"/>
			
				<linearGradient id="SVGID_61_" gradientUnits="userSpaceOnUse" x1="-56.4018" y1="57.443" x2="-56.5126" y2="58.0124" gradientTransform="matrix(0.9927 0.1207 -0.1207 0.9927 81.5947 -14.4734)">
				<stop  offset="0" style="stop-color:#F9B569"/>
				<stop  offset="0.6573" style="stop-color:#FFFFFF"/>
				<stop  offset="1" style="stop-color:#F49800"/>
			</linearGradient>
			<path class="st82" d="M18.3,35.4c0,0-0.4,0.1-0.3,0.8l0.7,0.2l0.4-0.6l0.1-0.1C19.3,35.8,18.1,35.5,18.3,35.4z"/>
			
				<linearGradient id="SVGID_62_" gradientUnits="userSpaceOnUse" x1="-53.8056" y1="59.5942" x2="-55.3977" y2="57.5473" gradientTransform="matrix(0.9927 0.1207 -0.1207 0.9927 81.5947 -14.4734)">
				<stop  offset="0" style="stop-color:#E41713"/>
				<stop  offset="0.1828" style="stop-color:#E52513"/>
				<stop  offset="0.468" style="stop-color:#E73E11"/>
				<stop  offset="0.8181" style="stop-color:#EB6209"/>
				<stop  offset="1" style="stop-color:#EE7601"/>
			</linearGradient>
			<path class="st83" d="M22.6,38.6c0-0.5-0.1-1.3-0.6-2.2c0,0-0.2-0.4-0.7-0.8c-0.5-0.2-1.3-0.3-2.2-0.1c0,0-0.9,0.3-0.4,1.3
				c0,0,0.2,0.2-0.2,0.6c0.1-0.1,0.3-0.2,0.6-0.1c0,0,0.4,0,0.5-0.3c0,0,0.6-0.9,1.4-0.2c0,0,0.1,0.1,0.1,0.2c0,0,0.3,0.4,0.4,0.7
				c0,0,1.1,0.7,1,1.6C22.5,39.3,22.6,39,22.6,38.6z"/>
			<path class="st5" d="M20,37.7c0,0,1-0.3,1.3,0l0.1,0c0,0-0.5-1.4-1.1-0.8c0,0-0.2,1-0.9,0.4C19.3,37.3,19.6,37.8,20,37.7z"/>
			<path class="st2" d="M18.9,39.1c0,0-0.3,0-0.2,0.4c0,0,0.2,0,0.2-0.2C18.9,39.3,18.6,39.3,18.9,39.1z"/>
			<path class="st84" d="M21.8,40C21.8,40,21.8,40,21.8,40c0-0.2-0.2-0.8-1-0.5c0,0,0.8-0.3,0.9,0.4"/>
			<path class="st85" d="M15.1,41.4c0,0,0.1,1,1.4,1.1c0,0,0.3,0,0.4-0.1c0,0,0.2,0.3-0.8,0.3C16.2,42.7,15,42.3,15.1,41.4z"/>
			<path class="st86" d="M16.2,42.7c0,0,0.7,0,0.8-0.2c0,0-0.8,0.3-1.5-0.1C15.5,42.3,15.9,42.7,16.2,42.7z"/>
			
				<linearGradient id="SVGID_63_" gradientUnits="userSpaceOnUse" x1="-54.1808" y1="63.9362" x2="-55.4534" y2="63.459" gradientTransform="matrix(0.9927 0.1207 -0.1207 0.9927 81.5947 -14.4734)">
				<stop  offset="0" style="stop-color:#817D7B"/>
				<stop  offset="0.1942" style="stop-color:#999392"/>
				<stop  offset="1" style="stop-color:#FFFFFF"/>
			</linearGradient>
			<path class="st87" d="M16.2,42.8c0,0,0.7,0.1,1.2-0.4c0,0,1.5-2.6,3.6-1.7l0.7,0.1c0,0-1.7,1.9-2.8,1.7c-1.1-0.1,0-0.1,0-0.1
				l-0.9,0.1c0,0-0.8,0.7-1.3,0.5C16.5,43,16.1,42.9,16.2,42.8z"/>
			<g>
				
					<linearGradient id="SVGID_64_" gradientUnits="userSpaceOnUse" x1="-57.0718" y1="63.6792" x2="-58.202" y2="62.2262" gradientTransform="matrix(0.9927 0.1207 -0.1207 0.9927 81.5947 -14.4734)">
					<stop  offset="0" style="stop-color:#E41713"/>
					<stop  offset="0.1828" style="stop-color:#E52513"/>
					<stop  offset="0.468" style="stop-color:#E73E11"/>
					<stop  offset="0.8181" style="stop-color:#EB6209"/>
					<stop  offset="1" style="stop-color:#EE7601"/>
				</linearGradient>
				<path class="st88" d="M17.5,41.3c0,0-1.1-1.6-1.3-1.4c0,0-0.6-0.1-0.4,0.5c0,0,1.3,0.9,1.6,2.5c0,0,0.5,0.4,0.6-0.3l-0.3-0.6
					l0,0C17.6,41.7,17.6,41.5,17.5,41.3L17.5,41.3z"/>
				
					<linearGradient id="SVGID_65_" gradientUnits="userSpaceOnUse" x1="-55.4264" y1="62.7704" x2="-55.7213" y2="62.3913" gradientTransform="matrix(0.9927 0.1207 -0.1207 0.9927 81.5947 -14.4734)">
					<stop  offset="0" style="stop-color:#E41713"/>
					<stop  offset="0.1828" style="stop-color:#E52513"/>
					<stop  offset="0.468" style="stop-color:#E73E11"/>
					<stop  offset="0.8181" style="stop-color:#EB6209"/>
					<stop  offset="1" style="stop-color:#EE7601"/>
				</linearGradient>
				<path class="st89" d="M20.1,40.1L20.1,40.1l-2.6,1.2c0.1,0.2,0.1,0.4,0.1,0.6l2.7-1.2C20.2,40.5,20.2,40.3,20.1,40.1z"/>
				
					<linearGradient id="SVGID_66_" gradientUnits="userSpaceOnUse" x1="-53.9634" y1="61.2152" x2="-51.5032" y2="61.7184" gradientTransform="matrix(0.9927 0.1207 -0.1207 0.9927 81.5947 -14.4734)">
					<stop  offset="0" style="stop-color:#E41713"/>
					<stop  offset="0.113" style="stop-color:#E52517"/>
					<stop  offset="0.2894" style="stop-color:#E73E20"/>
					<stop  offset="0.5071" style="stop-color:#EC6433"/>
					<stop  offset="0.7553" style="stop-color:#F39254"/>
					<stop  offset="1" style="stop-color:#FAC07F"/>
				</linearGradient>
				<circle class="st90" cx="21.2" cy="40" r="0.7"/>
				
					<linearGradient id="SVGID_67_" gradientUnits="userSpaceOnUse" x1="-53.1036" y1="61.9202" x2="-53.5076" y2="61.1964" gradientTransform="matrix(0.9927 0.1207 -0.1207 0.9927 81.5947 -14.4734)">
					<stop  offset="0" style="stop-color:#F18500"/>
					<stop  offset="1" style="stop-color:#FED06D"/>
				</linearGradient>
				<circle class="st91" cx="21.2" cy="40" r="0.6"/>
				
					<linearGradient id="SVGID_68_" gradientUnits="userSpaceOnUse" x1="-52.4884" y1="62.338" x2="-52.9634" y2="61.4869" gradientTransform="matrix(0.9927 0.1207 -0.1207 0.9927 81.5947 -14.4734)">
					<stop  offset="0" style="stop-color:#F18500"/>
					<stop  offset="1" style="stop-color:#FED06D"/>
				</linearGradient>
				<path class="st92" d="M21.6,39.8c0,0-0.9-0.3-0.5,0.7c0,0,0.9,0.7,1,0.5c0,0,0.6-0.2,0.2-0.8L21.6,39.8z"/>
				<path class="st84" d="M21.3,39.8c0,0-0.5,0-0.3,0.7c0,0,0.9,0.6,1,0.5c0,0-0.3-0.1-0.1-0.6c0,0-0.1,0-0.2,0.3c0,0-0.4,0-0.6-0.3
					C21.2,40.4,20.8,40,21.3,39.8z"/>
			</g>
			
				<linearGradient id="SVGID_69_" gradientUnits="userSpaceOnUse" x1="-53.787" y1="63.4538" x2="-55.4634" y2="67.305" gradientTransform="matrix(0.9927 0.1207 -0.1207 0.9927 81.5947 -14.4734)">
				<stop  offset="0" style="stop-color:#817D7B"/>
				<stop  offset="0.1942" style="stop-color:#999392"/>
				<stop  offset="1" style="stop-color:#FFFFFF"/>
			</linearGradient>
			<path class="st93" d="M22,40.9l-0.3-0.1c0,0-1.8,1.9-2.8,1.7c0,0-2.1,2.3-1.5,3.6c0,0,0,1.2,1.5,1l0.6-0.4c0,0-0.6-1.6,1-3.7
				L22,40.9z"/>
			
				<linearGradient id="SVGID_70_" gradientUnits="userSpaceOnUse" x1="-54.0512" y1="62.8774" x2="-54.9885" y2="65.0307" gradientTransform="matrix(0.9927 0.1207 -0.1207 0.9927 81.5947 -14.4734)">
				<stop  offset="0" style="stop-color:#656160"/>
				<stop  offset="0.2944" style="stop-color:#8E8887"/>
				<stop  offset="1" style="stop-color:#FFFFFF"/>
			</linearGradient>
			<path class="st94" d="M21.5,41c0,0-2.7,3-3.4,2.8c0,0,0.1-0.6,0.8-1.3c0.6-0.7-0.1,0-0.1,0s0.6,0,1.7-0.7L21.5,41z"/>
			
				<linearGradient id="SVGID_71_" gradientUnits="userSpaceOnUse" x1="-56.077" y1="67.473" x2="-53.5066" y2="69.9169" gradientTransform="matrix(0.9927 0.1207 -0.1207 0.9927 81.5947 -14.4734)">
				<stop  offset="0" style="stop-color:#656160"/>
				<stop  offset="0.2944" style="stop-color:#8E8887"/>
				<stop  offset="1" style="stop-color:#FFFFFF"/>
			</linearGradient>
			<path class="st95" d="M17.1,45.5c0,0-0.3,2.2,2.1,1.9c0,0-3-0.8-1.5-3.5C17.7,44,17.1,44.7,17.1,45.5z"/>
			
				<linearGradient id="SVGID_72_" gradientUnits="userSpaceOnUse" x1="-49.6674" y1="69.4938" x2="-47.736" y2="70.4135" gradientTransform="matrix(0.9927 0.1207 -0.1207 0.9927 81.5947 -14.4734)">
				<stop  offset="0" style="stop-color:#817D7B"/>
				<stop  offset="0.1942" style="stop-color:#999392"/>
				<stop  offset="1" style="stop-color:#FFFFFF"/>
			</linearGradient>
			<path class="st96" d="M26.9,48.1c-0.6,1.1-3.1,1.2-3.1,1.2c-1.8,0.3-0.9-1.2-0.9-1.2l-1.1,1.4c0,0,2.3,0.6,4.9-0.8
				C26.8,48.5,26.8,48.3,26.9,48.1z"/>
			
				<linearGradient id="SVGID_73_" gradientUnits="userSpaceOnUse" x1="-45.8693" y1="68.9591" x2="-44.4013" y2="69.6581" gradientTransform="matrix(0.9927 0.1207 -0.1207 0.9927 81.5947 -14.4734)">
				<stop  offset="0" style="stop-color:#817D7B"/>
				<stop  offset="0.1942" style="stop-color:#999392"/>
				<stop  offset="1" style="stop-color:#FFFFFF"/>
			</linearGradient>
			<path class="st97" d="M26.9,47.9c0,0.1,0,0.1-0.1,0.1c0,0.2-0.1,0.4-0.2,0.6c0,0,0,0,0,0s0.9,0.2,1.1,0.5c0,0,0,0.1,0,0.2
				c0.6,0,1.3-0.1,1.8-0.4c0-0.1,0-0.1,0-0.1C27.1,48.9,26.9,47.9,26.9,47.9z"/>
			
				<linearGradient id="SVGID_74_" gradientUnits="userSpaceOnUse" x1="-44.5516" y1="70.2695" x2="-42.743" y2="71.1308" gradientTransform="matrix(0.9927 0.1207 -0.1207 0.9927 81.5947 -14.4734)">
				<stop  offset="0" style="stop-color:#817D7B"/>
				<stop  offset="0.1942" style="stop-color:#999392"/>
				<stop  offset="1" style="stop-color:#FFFFFF"/>
			</linearGradient>
			<path class="st98" d="M29.6,48.9c-0.5,0.3-1.2,0.4-1.8,0.4c0.1,0.5,0.5,1.9,2,2.6l1.1-0.9l0.1-0.2C29.7,49.9,29.6,49.2,29.6,48.9
				z"/>
			
				<linearGradient id="SVGID_75_" gradientUnits="userSpaceOnUse" x1="-55.0511" y1="71.9167" x2="-54.7102" y2="73.3232" gradientTransform="matrix(0.9927 0.1207 -0.1207 0.9927 81.5947 -14.4734)">
				<stop  offset="0" style="stop-color:#817D7B"/>
				<stop  offset="0.1942" style="stop-color:#999392"/>
				<stop  offset="1" style="stop-color:#FFFFFF"/>
			</linearGradient>
			<path class="st99" d="M20.3,51.2c0,0-2.6-2.6-3.8,0.3l3.2,0.1L20.3,51.2z"/>
			
				<linearGradient id="SVGID_76_" gradientUnits="userSpaceOnUse" x1="-42.6598" y1="69.0761" x2="-42.3744" y2="70.2536" gradientTransform="matrix(0.9927 0.1207 -0.1207 0.9927 81.5947 -14.4734)">
				<stop  offset="0" style="stop-color:#817D7B"/>
				<stop  offset="0.1942" style="stop-color:#999392"/>
				<stop  offset="1" style="stop-color:#FFFFFF"/>
			</linearGradient>
			<path class="st100" d="M32.5,49.1c0,0-2-1.2-2.9,0.9l2.7,0L32.5,49.1z"/>
			<g>
				
					<linearGradient id="SVGID_77_" gradientUnits="userSpaceOnUse" x1="-55.4874" y1="74.2381" x2="-54.1256" y2="74.1434" gradientTransform="matrix(0.9927 0.1207 -0.1207 0.9927 81.5947 -14.4734)">
					<stop  offset="5.618000e-03" style="stop-color:#FAB200"/>
					<stop  offset="0.5459" style="stop-color:#FED300"/>
					<stop  offset="1" style="stop-color:#FFE900"/>
				</linearGradient>
				<circle class="st101" cx="18.2" cy="52.6" r="2"/>
				
					<linearGradient id="SVGID_78_" gradientUnits="userSpaceOnUse" x1="-56.2063" y1="74.4911" x2="-52.9057" y2="74.4911" gradientTransform="matrix(0.9927 0.1207 -0.1207 0.9927 81.5947 -14.4734)">
					<stop  offset="0" style="stop-color:#E31013"/>
					<stop  offset="0.1483" style="stop-color:#E52613"/>
					<stop  offset="0.4159" style="stop-color:#E8490F"/>
					<stop  offset="0.7697" style="stop-color:#EF7900"/>
					<stop  offset="1" style="stop-color:#F49800"/>
				</linearGradient>
				<circle class="st102" cx="18.3" cy="52.9" r="1.5"/>
				
					<ellipse transform="matrix(0.1206 -0.9927 0.9927 0.1206 -36.4886 64.8163)" class="st72" cx="18.3" cy="53" rx="0.7" ry="0.7"/>
				
					<linearGradient id="SVGID_79_" gradientUnits="userSpaceOnUse" x1="-54.3346" y1="75.0683" x2="-54.7981" y2="74.2379" gradientTransform="matrix(0.9927 0.1207 -0.1207 0.9927 81.5947 -14.4734)">
					<stop  offset="0" style="stop-color:#F18500"/>
					<stop  offset="1" style="stop-color:#FED06D"/>
				</linearGradient>
				<circle class="st103" cx="18.3" cy="52.9" r="0.7"/>
			</g>
			<g>
				
					<linearGradient id="SVGID_80_" gradientUnits="userSpaceOnUse" x1="-42.7636" y1="71.2886" x2="-41.4016" y2="71.1939" gradientTransform="matrix(0.9927 0.1207 -0.1207 0.9927 81.5947 -14.4734)">
					<stop  offset="5.618000e-03" style="stop-color:#FAB200"/>
					<stop  offset="0.5459" style="stop-color:#FED300"/>
					<stop  offset="1" style="stop-color:#FFE900"/>
				</linearGradient>
				<circle class="st104" cx="31.1" cy="51.2" r="2"/>
				
					<linearGradient id="SVGID_81_" gradientUnits="userSpaceOnUse" x1="-43.4837" y1="71.5408" x2="-40.1819" y2="71.5408" gradientTransform="matrix(0.9927 0.1207 -0.1207 0.9927 81.5947 -14.4734)">
					<stop  offset="0" style="stop-color:#E31013"/>
					<stop  offset="0.1483" style="stop-color:#E52613"/>
					<stop  offset="0.4159" style="stop-color:#E8490F"/>
					<stop  offset="0.7697" style="stop-color:#EF7900"/>
					<stop  offset="1" style="stop-color:#F49800"/>
				</linearGradient>
				<circle class="st105" cx="31.3" cy="51.5" r="1.5"/>
				
					<ellipse transform="matrix(0.1199 -0.9928 0.9928 0.1199 -23.6672 76.5239)" class="st72" cx="31.3" cy="51.6" rx="0.7" ry="0.7"/>
				
					<linearGradient id="SVGID_82_" gradientUnits="userSpaceOnUse" x1="-41.6108" y1="72.1199" x2="-42.075" y2="71.2882" gradientTransform="matrix(0.9927 0.1207 -0.1207 0.9927 81.5947 -14.4734)">
					<stop  offset="0" style="stop-color:#F18500"/>
					<stop  offset="1" style="stop-color:#FED06D"/>
				</linearGradient>
				<circle class="st106" cx="31.3" cy="51.5" r="0.7"/>
			</g>
			<path class="st107" d="M22.4,42.5c0,0,0.8,3.3,0.6,4.8c0,0,0.7,3.4,5.7-1.5c0,0-4.8,2-4.6,1.3L22.4,42.5z"/>
			<g>
				
					<linearGradient id="SVGID_83_" gradientUnits="userSpaceOnUse" x1="-46.3927" y1="66.5805" x2="-47.9163" y2="63.8508" gradientTransform="matrix(0.9927 0.1207 -0.1207 0.9927 81.5947 -14.4734)">
					<stop  offset="0" style="stop-color:#F7A738"/>
					<stop  offset="1" style="stop-color:#FFF3AE"/>
				</linearGradient>
				<path class="st108" d="M23.1,42.8c0,0,0.5-0.1,1.1,0.1c0,0,0.7,0.3,2.4-0.8c0,0,1.4-0.7,2-0.5c0,0,1.5-0.4,0.8,1.8
					c0,0-2,3.8-5.2,3.9C24.3,47.2,22.8,44,23.1,42.8z"/>
				
					<linearGradient id="SVGID_84_" gradientUnits="userSpaceOnUse" x1="-46.202" y1="67.4452" x2="-48.3042" y2="63.6787" gradientTransform="matrix(0.9927 0.1207 -0.1207 0.9927 81.5947 -14.4734)">
					<stop  offset="0" style="stop-color:#F18500"/>
					<stop  offset="1" style="stop-color:#FED06D"/>
				</linearGradient>
				<path class="st109" d="M22.4,42.1c0,0,0.8-0.6,1.2,1.2c0,0,0.3,0.4,0.4,2.8c0,0,0.3,1.2,1.3,0.7c0,0,3.6-1.4,4-4.1
					c0,0-0.2-1.3-1-1.1c0,0,0.7-0.6,1.4-0.1c0,0,1.3,0.7-0.1,3c0,0-0.8,1.7-3.4,3.3c0,0-1.9,1.3-3.1-0.5c0,0-0.4-4.4-0.7-4.4
					C22.5,42.7,22.1,42.3,22.4,42.1z"/>
			</g>
			<path class="st26" d="M14.8,50.7c0,0,0.6,0.9,0.8,1.5c0,0,0.5,2.1,4.3,1.4c0,0,1.9-0.2,1.6-0.4c-0.3-0.3,0-0.1,0-0.1l-1.2-0.4
				c0,0-0.1,0.7-0.2,0.7c0,0-1.1,0.3-1,0c0,0-1,0.5-1.3-0.3c0,0-1.7,0.3-1.5-0.7l-0.1-0.7l-0.6-0.9l-0.5-0.3l-0.3-0.3
				c0,0-0.9-0.6-0.4-0.8l-0.3,0.7L14.8,50.7z"/>
			
				<linearGradient id="SVGID_85_" gradientUnits="userSpaceOnUse" x1="-46.6739" y1="77.6556" x2="-50.6972" y2="70.4472" gradientTransform="matrix(0.9927 0.1207 -0.1207 0.9927 81.5947 -14.4734)">
				<stop  offset="0" style="stop-color:#ECE200"/>
				<stop  offset="1" style="stop-color:#C9D400"/>
			</linearGradient>
			<path class="st110" d="M15.6,52.2c0,0,0.5-0.8-0.8-1.5c0,0-3.4-2.8-5.1,0.3c0,0,1.1,2.4,5.8,4.4c0,0,4.1,1.8,13.6,0.2
				c0,0,6.3-0.7,7.3-4c0,0,1.5-2.1-1.7-3.4l-2.4,0.1c0,0,0.3,0.9,0.1,1.4c0,0,0-0.1,0.2,0.2c0.3,0.4,0.5,0.7,0.5,2
				c0,0-6.9,2.8-13.4,1.8C19.7,53.6,16.5,53.9,15.6,52.2z"/>
			
				<linearGradient id="SVGID_86_" gradientUnits="userSpaceOnUse" x1="-55.2738" y1="79.3164" x2="-58.3085" y2="73.8792" gradientTransform="matrix(0.9927 0.1207 -0.1207 0.9927 81.5947 -14.4734)">
				<stop  offset="0" style="stop-color:#E5D600"/>
				<stop  offset="1" style="stop-color:#B5CC04"/>
			</linearGradient>
			<path class="st111" d="M10.2,50.4c0,0-0.9,0,0,1.5c0,0,3.8,4.7,11.1,4.3c0,0-10.5-2.3-10.9-5.8"/>
			<path class="st112" d="M26.6,49.9l0.7,0.4l0.3,0.1l0.6,0.1l-0.3-1.1c0.7,0.9,1.9-0.2,1.9-0.2l0,0.7c-0.6,0.5-0.6,1.2-0.6,1.2
				C29,52,30,52,30,52c0.7,0.6,3.1-0.7,3.1-0.7c0-0.4-0.1-0.8-0.1-0.8l0.7,0.4c0.5,1-2,1.3-2,1.3c-2.9,1.1-2.6,0.1-2.6,0.1
				c0.1-0.6-0.9-0.8-0.9-0.8c-0.4,0.3-1.7,0.1-1.7,0.1c-2.1-0.8,0.4-1.1,0.4-1.1L26.6,49.9z"/>
			
				<linearGradient id="SVGID_87_" gradientUnits="userSpaceOnUse" x1="-46.7149" y1="77.6521" x2="-50.7299" y2="70.4585" gradientTransform="matrix(0.9927 0.1207 -0.1207 0.9927 81.5947 -14.4734)">
				<stop  offset="0" style="stop-color:#E5D600"/>
				<stop  offset="1" style="stop-color:#B5CC04"/>
			</linearGradient>
			<path class="st113" d="M10.2,51.9c0,0,2.8,3.5,8.7,4.2c0,0,13.9,0.9,17-3.9c0,0,1.4-1.9,0.1-3.3c0,0,2.1,3.5-3.8,5.4
				c0,0-10.3,3.4-17.4,0.4c0,0-7.3-3.1-3.9-5.1C11,49.7,9.1,50.4,10.2,51.9z"/>
			
				<linearGradient id="SVGID_88_" gradientUnits="userSpaceOnUse" x1="-53.7035" y1="70.4021" x2="-52.0588" y2="71.857" gradientTransform="matrix(0.9927 0.1207 -0.1207 0.9927 81.5947 -14.4734)">
				<stop  offset="0" style="stop-color:#817D7B"/>
				<stop  offset="0.1942" style="stop-color:#999392"/>
				<stop  offset="1" style="stop-color:#FFFFFF"/>
			</linearGradient>
			<path class="st114" d="M17.7,50.3c0,0,3.2-4.6,4.7-2l-2.3,3.1C20.1,51.4,19.2,49.7,17.7,50.3z"/>
			<path class="st2" d="M19.3,37.2c0,0,0.4-0.6,0.5-0.6c0,0,0.3-0.3,0.7-0.1c0,0-0.5-0.1-1,0.5C19.6,37.1,19.5,37.2,19.3,37.2z"/>
			<path class="st115" d="M18.9,37.3c0,0-2,0.8-2.3,2.7l0,0.1c0,0-0.6-0.1-0.5,0.5c0,0-0.7,0.2-0.7,1.3c0,0-0.2-0.8,0.6-1.3
				c0,0,0.1-0.6,0.5-0.5c0,0,0.6-2,1.5-2.5C17.9,37.5,18,37.8,18.9,37.3z"/>
			<path class="st115" d="M23.5,42.9c0,0,0.8,0.3,1.5,0.2c0,0,0.8-0.1,1.4-0.6c0,0,1-0.7,2.4-0.8c0,0-1.9,0.4-2.7,1.2
				c0,0-1.6,0.8-2.6,0.2L23.5,42.9z"/>
			<path class="st115" d="M30.6,41.4c0,0,1.3-0.9,2.2,0.5C32.8,41.9,31.8,41,30.6,41.4z"/>
			<path class="st115" d="M10.7,50.3c0,0,0.8-1.1,3,0c0,0,1.8,0.8,1.5,1.8c0,0,0.1,1.3,3,1.6c0,0-2.7,0.4-3.5-2.1
				c0,0-1.4-2.2-3.1-1.3c0,0,0.8,0.5-0.3,0.7C11.4,51.1,10.8,51.3,10.7,50.3z"/>
			<path class="st2" d="M17.1,46.3c0,0-1.2,2-1.2,2.5l-0.7,1.5l0.8-1.4c0,0,1-2.2,1.1-2.2L17.1,46.3z"/>
		</g>
	</g>
</g>
</svg>
