<svg width="34" height="34" viewBox="0 0 34 34" fill="none" xmlns="http://www.w3.org/2000/svg" id="like">
<path d="M34 17.0004C34 7.61065 26.3888 0 17.0003 0C7.61124 0 0 7.61072 0 17.0004C0 26.3888 7.61124 34 17.0003 34C26.3888 34 34 26.3888 34 17.0004Z" fill="#D2D2D2"/>
<path d="M8.22684 10.9121C10.6491 8.5678 14.5767 8.5678 16.999 10.9121H17.001C19.4234 8.5678 23.3509 8.5678 25.7732 10.9121C28.1956 13.2563 27.8463 16.7621 25.7732 19.4014C23.5777 22.1964 19.5691 26.8077 17.001 26.8077H16.999C14.4308 26.8077 10.4223 22.1964 8.22684 19.4014C6.15364 16.7622 5.80448 13.2564 8.22684 10.9121Z" fill="white"/>
</svg>
