<svg width="139" height="135" viewBox="0 0 139 135" fill="none" xmlns="http://www.w3.org/2000/svg">
<g clip-path="url(#clip0)">
<path d="M9.72588 103.659C10.4814 102.906 11.4942 102.49 12.5713 102.49C13.6484 102.49 14.6531 102.906 15.4167 103.659C16.1723 104.412 16.5903 105.422 16.5903 106.495C16.5903 107.569 16.1723 108.57 15.4167 109.331C14.6612 110.085 13.6484 110.501 12.5713 110.501C11.4942 110.501 10.4895 110.085 9.72588 109.331C8.97032 108.578 8.55235 107.569 8.55235 106.495C8.55235 105.422 8.97032 104.412 9.72588 103.659ZM10.8673 108.186C11.3254 108.642 11.9283 108.891 12.5713 108.891C13.2143 108.891 13.8172 108.642 14.2754 108.186C14.7335 107.729 14.9827 107.128 14.9827 106.487C14.9827 105.847 14.7335 105.246 14.2754 104.789C13.8172 104.332 13.2143 104.084 12.5713 104.084C11.9283 104.084 11.3254 104.332 10.8673 104.789C10.4091 105.246 10.1599 105.847 10.1599 106.487C10.1599 107.128 10.4091 107.737 10.8673 108.186Z" fill="white"/>
<path d="M1.30218 95.2555C2.16224 94.3983 3.36793 93.9656 4.8871 93.9656C9.56517 93.9656 16.743 98.1075 23.1653 104.509C23.5753 104.917 23.9772 105.334 24.371 105.75H30.6245C30.8737 105.75 31.1068 105.863 31.2595 106.063L40.9935 118.625C41.2105 118.905 41.2185 119.29 41.0095 119.578C40.8568 119.794 40.6076 119.915 40.3504 119.915C40.262 119.915 40.1816 119.899 40.0932 119.875L31.0827 116.886L30.7612 117.207L31.3801 117.824C31.79 118.232 32.0151 118.769 32.0151 119.346C32.0151 119.923 31.79 120.459 31.3801 120.868L30.6647 121.581L33.3574 124.265C33.7513 124.657 33.9683 125.178 33.9683 125.739C33.9683 126.3 33.7513 126.82 33.3574 127.213C32.9636 127.605 32.4411 127.822 31.8785 127.822C31.3158 127.822 30.7933 127.605 30.3995 127.213L27.7068 124.529L26.9914 125.242C26.5815 125.651 26.0429 125.875 25.4642 125.875C24.8855 125.875 24.3469 125.651 23.937 125.242L23.3181 124.625L22.9965 124.946L25.9947 133.926C26.1072 134.263 25.9867 134.631 25.6973 134.832C25.5606 134.928 25.3918 134.976 25.2311 134.976C25.0543 134.976 24.8855 134.92 24.7408 134.808L12.1373 125.106C11.9364 124.954 11.8238 124.721 11.8238 124.473V118.24C11.4059 117.848 10.9879 117.447 10.578 117.038C6.50272 112.977 3.27147 108.538 1.47901 104.557C1.30218 104.164 1.14142 103.78 0.996738 103.403C0.996738 103.403 0.996738 103.395 0.988701 103.395C-0.409897 99.7338 -0.313438 96.8658 1.30218 95.2555ZM31.4444 115.324L38.1159 117.535L30.2387 107.361H25.8339C28.1247 109.996 30.0619 112.744 31.4444 115.324ZM30.2548 118.969L29.6359 118.352L28.5266 119.458L29.5314 120.459L30.2468 119.746C30.4638 119.538 30.4638 119.178 30.2548 118.969ZM31.5489 126.091C31.6373 126.179 31.7579 126.228 31.8865 126.228C32.0151 126.228 32.1357 126.179 32.2241 126.091C32.3125 126.003 32.3607 125.883 32.3607 125.755C32.3607 125.627 32.3125 125.507 32.2241 125.418L19.5724 112.808C19.484 112.72 19.3634 112.672 19.2348 112.672C19.1062 112.672 18.9856 112.72 18.8972 112.808C18.7123 112.993 18.7123 113.305 18.8972 113.489L31.5489 126.091ZM25.0864 124.113C25.1909 124.217 25.3275 124.273 25.4803 124.273C25.633 124.273 25.7696 124.217 25.8741 124.113L26.5895 123.4L25.5848 122.398L24.4755 123.504L25.0864 124.113ZM13.4395 124.097L23.6476 131.948L21.4292 125.298C18.8409 123.928 16.092 121.998 13.4395 119.706V124.097ZM2.94996 103.908C4.66204 107.721 7.78075 111.991 11.7193 115.917C14.9988 119.186 18.6078 121.949 21.9355 123.752L22.1928 123.496L20.4324 121.741C20.119 121.429 20.119 120.924 20.4324 120.612C20.7459 120.299 21.2523 120.299 21.5658 120.612L23.3261 122.366L24.4353 121.26L17.7638 114.611C17.7558 114.603 17.7478 114.595 17.7397 114.587C17.7237 114.571 17.7076 114.555 17.6915 114.531C17.6835 114.523 17.6754 114.515 17.6674 114.507C17.6513 114.491 17.6352 114.475 17.6192 114.451C17.6111 114.443 17.6111 114.435 17.6031 114.427C17.587 114.411 17.5709 114.387 17.5549 114.363C17.5468 114.355 17.5468 114.355 17.5468 114.347C17.5308 114.323 17.5147 114.299 17.4986 114.275C17.4986 114.275 17.4986 114.267 17.4906 114.267C17.4745 114.242 17.4584 114.21 17.4423 114.186C17.3539 114.042 17.2896 113.89 17.2414 113.722V113.714C17.2333 113.69 17.2253 113.658 17.2173 113.634C17.2173 113.626 17.2092 113.61 17.2092 113.602C17.2012 113.586 17.2012 113.562 17.1932 113.545C17.1851 113.521 17.1851 113.489 17.1771 113.465C17.1771 113.457 17.1771 113.457 17.1771 113.449C17.1449 113.249 17.1449 113.041 17.1771 112.832C17.1771 112.824 17.1771 112.816 17.1771 112.808C17.1851 112.784 17.1851 112.76 17.1932 112.736C17.2012 112.712 17.2012 112.696 17.2092 112.672C17.2092 112.664 17.2173 112.648 17.2173 112.64C17.2253 112.608 17.2333 112.584 17.2414 112.552C17.2414 112.552 17.2414 112.552 17.2414 112.544C17.2976 112.352 17.3861 112.168 17.4986 111.991C17.5147 111.967 17.5308 111.943 17.5549 111.919L17.5629 111.911C17.579 111.887 17.5951 111.863 17.6111 111.847C17.6192 111.839 17.6192 111.839 17.6272 111.831C17.6433 111.807 17.6674 111.791 17.6835 111.767C17.6915 111.759 17.6915 111.759 17.6996 111.751C17.7237 111.727 17.7478 111.703 17.7719 111.671C17.8925 111.551 18.0291 111.447 18.1738 111.358C18.4953 111.166 18.865 111.062 19.2509 111.062C19.8135 111.062 20.336 111.278 20.7298 111.671L27.4013 118.32L28.5106 117.215L26.7503 115.46C26.4368 115.148 26.4368 114.643 26.7503 114.331C27.0637 114.018 27.5701 114.018 27.8836 114.331L29.6439 116.085L29.9011 115.829C28.0926 112.504 25.3195 108.915 22.04 105.646C18.0291 101.649 13.6484 98.5241 9.92687 96.8738C9.69377 98.6283 8.88195 100.287 7.61999 101.544C6.35804 102.802 4.69418 103.611 2.93388 103.844C2.93388 103.868 2.94192 103.892 2.94996 103.908ZM2.30692 102.297C3.86628 102.193 5.36133 101.52 6.47056 100.415C7.5798 99.3092 8.25498 97.8111 8.35947 96.2569C7.08144 95.8163 5.89988 95.5759 4.8871 95.5759C3.81001 95.5759 2.98211 95.8483 2.43553 96.3931C1.38256 97.4426 1.34237 99.5576 2.30692 102.297Z" fill="white"/>
<path d="M18.7847 118.969C19.0982 118.657 19.6045 118.657 19.918 118.969L19.9341 118.985C20.2476 119.298 20.2476 119.802 19.9341 120.115C19.7733 120.275 19.5724 120.347 19.3634 120.347C19.1544 120.347 18.9535 120.267 18.7927 120.115L18.7767 120.099C18.4712 119.786 18.4712 119.282 18.7847 118.969Z" fill="white"/>
<path d="M25.0864 112.688C25.3999 112.376 25.9063 112.376 26.2198 112.688L26.2358 112.704C26.5493 113.017 26.5493 113.521 26.2358 113.834C26.0751 113.994 25.8741 114.066 25.6651 114.066C25.4562 114.066 25.2552 113.986 25.0945 113.834L25.0784 113.818C24.7729 113.505 24.7729 113.001 25.0864 112.688Z" fill="white"/>
<path d="M80.6125 102.722C80.9421 102.434 81.4565 102.466 81.7459 102.794C82.6943 103.868 83.5061 105.053 84.1653 106.327C84.3662 106.72 84.2135 107.201 83.8196 107.409C83.6991 107.473 83.5785 107.497 83.4499 107.497C83.1605 107.497 82.8792 107.337 82.7345 107.064C82.1317 105.911 81.3922 104.829 80.5321 103.852C80.2428 103.515 80.2749 103.011 80.6125 102.722Z" fill="white"/>
<path d="M84.0769 107.962C84.4948 107.809 84.953 108.034 85.1057 108.45V108.458C85.2504 108.875 85.0334 109.332 84.6154 109.476C84.527 109.508 84.4386 109.524 84.3502 109.524C84.0206 109.524 83.7071 109.316 83.5946 108.995C83.5946 108.995 83.5946 108.987 83.5866 108.987C83.4338 108.57 83.6589 108.114 84.0769 107.962Z" fill="white"/>
<path d="M66.4497 131.275C66.4818 130.834 66.8596 130.498 67.3097 130.53C68.6118 130.618 69.922 130.546 71.2081 130.321C71.6421 130.241 72.0601 130.538 72.1405 130.97C72.2209 131.403 71.9235 131.82 71.4894 131.9C70.4766 132.076 69.4398 132.164 68.4109 132.164C68.009 132.164 67.6071 132.148 67.2052 132.124C66.7551 132.1 66.4175 131.723 66.4497 131.275Z" fill="white"/>
<path d="M64.2553 130.882C64.3437 130.45 64.7617 130.161 65.1957 130.249L65.2198 130.257C65.6539 130.345 65.9352 130.77 65.8388 131.203C65.7584 131.579 65.4288 131.836 65.0511 131.836C64.9948 131.836 64.9385 131.828 64.8823 131.819C64.4482 131.739 64.1669 131.315 64.2553 130.882Z" fill="white"/>
<path d="M48.6778 108.675C48.6858 108.635 48.7019 108.594 48.718 108.554C48.7421 108.474 48.7662 108.386 48.7983 108.306C48.8305 108.21 48.8626 108.114 48.8868 108.026C48.8948 107.986 48.9109 107.954 48.9189 107.913C48.9269 107.897 48.935 107.881 48.935 107.857C48.9752 107.729 49.0234 107.609 49.0636 107.481C49.0797 107.441 49.0957 107.393 49.1118 107.353C49.152 107.249 49.1922 107.136 49.2324 107.032C49.2485 106.992 49.2645 106.952 49.2806 106.912C49.3369 106.776 49.3931 106.64 49.4494 106.503C49.4655 106.455 49.4896 106.415 49.5057 106.367C49.5459 106.279 49.578 106.191 49.6182 106.111C49.6504 106.039 49.6825 105.975 49.7147 105.911C49.7388 105.855 49.7629 105.798 49.787 105.75C51.7563 101.568 55.0599 98.1877 59.2798 96.1127C61.9243 94.8068 64.7295 94.1019 67.6393 93.9977C67.7438 93.9977 67.8563 93.9897 67.9608 93.9897C68.017 93.9897 68.0733 93.9897 68.1296 93.9897C68.21 93.9897 68.2984 93.9897 68.3788 93.9897C72.1566 93.9897 75.8621 95.0232 79.1014 96.9859C80.3472 97.739 81.5047 98.6203 82.5496 99.6137C82.5577 99.6137 82.5577 99.6217 82.5657 99.6217C82.6461 99.7018 82.7265 99.7739 82.8069 99.854C82.8069 99.854 82.8068 99.854 82.8149 99.862C82.8953 99.9422 82.9756 100.014 83.048 100.094C83.056 100.102 83.0721 100.118 83.0801 100.126C83.9241 100.984 84.6797 101.905 85.3629 102.89C85.4272 102.986 85.4915 103.083 85.5558 103.179C85.5639 103.187 85.5639 103.195 85.5719 103.203C85.7487 103.467 85.9175 103.74 86.0783 104.012C86.1024 104.052 86.1265 104.092 86.1506 104.132C86.1908 104.196 86.223 104.26 86.2551 104.316C86.2873 104.38 86.3275 104.437 86.3596 104.501C86.3918 104.557 86.4239 104.613 86.448 104.669C86.4882 104.741 86.5284 104.821 86.5686 104.893C86.5927 104.941 86.6168 104.981 86.6409 105.029C86.7052 105.15 86.7615 105.262 86.8178 105.382C86.8178 105.39 86.8258 105.39 86.8258 105.398C86.8258 105.406 86.8339 105.414 86.8339 105.414C86.9142 105.574 86.9866 105.734 87.0589 105.895C87.075 105.935 87.0911 105.975 87.1152 106.015C87.1795 106.143 87.2358 106.279 87.292 106.415C87.3081 106.447 87.3161 106.479 87.3322 106.512C87.3965 106.656 87.4528 106.8 87.509 106.944C87.5171 106.96 87.5251 106.984 87.5332 107C89.2131 111.246 89.4221 115.885 88.1119 120.283C88.0958 120.323 88.0878 120.371 88.0717 120.411C88.0476 120.491 88.0235 120.58 87.9994 120.66C87.9672 120.756 87.9351 120.852 87.9029 120.948C87.8949 120.98 87.8788 121.012 87.8708 121.052C87.8627 121.068 87.8627 121.084 87.8547 121.1C87.8145 121.228 87.7663 121.357 87.718 121.485C87.702 121.525 87.6859 121.565 87.6698 121.613C87.6296 121.725 87.5894 121.829 87.5412 121.941C87.5251 121.982 87.509 122.014 87.501 122.054C87.4447 122.19 87.3885 122.326 87.3322 122.462C87.3161 122.502 87.292 122.55 87.2759 122.59C87.2358 122.678 87.1956 122.767 87.1554 122.863C87.1232 122.927 87.0991 122.999 87.067 123.063C87.0428 123.119 87.0107 123.175 86.9866 123.231C85.0173 127.413 81.7137 130.786 77.5018 132.869C74.7609 134.223 71.8351 134.936 68.8128 134.992C68.7646 134.992 68.7163 134.992 68.6681 134.992C68.5797 134.992 68.4913 134.992 68.4029 134.992C64.625 134.992 60.9195 133.959 57.6803 131.996C56.4344 131.243 55.2769 130.353 54.232 129.368C54.232 129.368 54.2239 129.36 54.2159 129.36C54.1355 129.288 54.0632 129.208 53.9828 129.136C53.9748 129.128 53.9748 129.128 53.9667 129.12C53.8863 129.04 53.814 128.967 53.7336 128.887C53.7175 128.871 53.7095 128.863 53.6934 128.847C52.7691 127.91 51.9412 126.884 51.2178 125.787C51.2097 125.779 51.2097 125.771 51.2017 125.763C51.0248 125.499 50.856 125.226 50.6873 124.946C50.6631 124.906 50.639 124.874 50.6229 124.834C50.5828 124.769 50.5506 124.705 50.5104 124.641C50.4783 124.585 50.4461 124.521 50.4059 124.465C50.3738 124.409 50.3416 124.353 50.3095 124.297C50.2693 124.225 50.2291 124.153 50.1889 124.072C50.1648 124.024 50.1407 123.984 50.1166 123.936C50.0522 123.816 49.996 123.704 49.9397 123.584C49.9397 123.576 49.9317 123.576 49.9317 123.568C49.9317 123.56 49.9236 123.552 49.9236 123.552C49.8433 123.392 49.7709 123.231 49.6986 123.071C49.6825 123.031 49.6664 122.991 49.6504 122.959C49.5861 122.823 49.5298 122.695 49.4735 122.558C49.4574 122.526 49.4494 122.494 49.4333 122.462C49.369 122.318 49.3128 122.174 49.2485 122.022C49.2404 122.006 49.2324 121.982 49.2243 121.965C47.5766 117.711 47.3756 113.081 48.6778 108.675ZM51.3946 106.127C51.3865 106.135 51.3866 106.151 51.3785 106.159C51.3383 106.231 51.3062 106.311 51.274 106.383C51.2499 106.439 51.2258 106.495 51.1936 106.544C51.1695 106.6 51.1374 106.664 51.1133 106.72C51.065 106.832 51.0168 106.944 50.9686 107.056C50.9525 107.096 50.9364 107.144 50.9123 107.184C50.8721 107.281 50.8319 107.377 50.7998 107.465C50.7837 107.497 50.7676 107.537 50.7596 107.569C50.7114 107.697 50.6631 107.817 50.6149 107.946C50.5988 107.978 50.5908 108.018 50.5747 108.05C50.5426 108.146 50.5104 108.234 50.4783 108.33C50.4622 108.378 50.4461 108.426 50.43 108.474C50.3979 108.57 50.3657 108.667 50.3336 108.763C50.3014 108.859 50.2693 108.955 50.2452 109.059C50.2371 109.091 50.2291 109.123 50.213 109.155C50.1567 109.348 50.1005 109.548 50.0523 109.748L52.327 113.674H59.6737L63.347 107.329L59.6737 100.984H55.1242C53.5889 102.49 52.335 104.22 51.3946 106.127ZM61.0562 114.483L64.7295 120.828H72.0762L75.7495 114.483L72.0762 108.138H64.7295L61.0562 114.483ZM60.0032 97.5387C58.9261 98.0675 57.9214 98.6924 56.981 99.3894H59.6656L61.008 97.0741C60.6704 97.2183 60.3328 97.3785 60.0032 97.5387ZM73.4828 96.2729C71.819 95.8163 70.1149 95.5759 68.3948 95.5759C68.3144 95.5759 68.2421 95.5759 68.1617 95.5759C68.1215 95.5759 68.0733 95.5759 68.0331 95.5759C66.4416 95.608 64.8742 95.8403 63.339 96.2649L61.0642 100.191L64.7376 106.536H72.0842L75.7576 100.191L73.4828 96.2729ZM75.7897 97.05L77.1481 99.3894H79.8569C78.603 98.444 77.2446 97.6589 75.7897 97.05ZM86.6249 109.235C86.6168 109.211 86.6088 109.179 86.6008 109.155C86.5686 109.035 86.5284 108.915 86.4882 108.795C86.4641 108.723 86.44 108.643 86.4159 108.57C86.3918 108.498 86.3677 108.426 86.3435 108.346C86.2953 108.218 86.2551 108.09 86.2069 107.962C86.1989 107.938 86.1908 107.913 86.1828 107.897C85.9577 107.289 85.6925 106.688 85.4031 106.111C85.3468 105.999 85.2906 105.887 85.2343 105.774C85.2182 105.742 85.2022 105.718 85.1861 105.686C85.1459 105.606 85.0977 105.518 85.0575 105.438C85.0414 105.406 85.0253 105.374 85.0012 105.342C84.953 105.262 84.9128 105.174 84.8646 105.093C84.8485 105.069 84.8324 105.045 84.8244 105.013C84.7681 104.917 84.7118 104.813 84.6475 104.717C84.6475 104.709 84.6395 104.709 84.6395 104.701C83.8196 103.347 82.839 102.105 81.7057 100.992H77.1562L73.4828 107.337L77.1562 113.682H84.5029L86.7776 109.756C86.7213 109.58 86.6731 109.404 86.6249 109.235ZM87.2197 116.782C87.4126 115.26 87.4126 113.714 87.2277 112.168L85.8854 114.483L87.2197 116.782ZM86.7615 119.194L84.4948 115.284H77.1481L73.4748 121.629L77.1481 127.974H81.6976C84.1733 125.531 85.9095 122.478 86.7615 119.194ZM76.8105 131.419C77.8876 130.89 78.9004 130.265 79.8248 129.568H77.1401L75.7978 131.884C76.1434 131.739 76.481 131.579 76.8105 131.419ZM63.3309 132.685C64.9948 133.141 66.7069 133.382 68.4189 133.382C68.4993 133.382 68.5797 133.382 68.6601 133.382C68.7003 133.382 68.7405 133.382 68.7806 133.382C70.3722 133.35 71.9476 133.125 73.4748 132.693L75.7495 128.767L72.0762 122.422H64.7295L61.0562 128.767L63.3309 132.685ZM61.024 131.908L59.6656 129.568H56.9568C58.2108 130.514 59.5692 131.299 61.024 131.908ZM51.1856 122.382C51.1936 122.398 51.1936 122.406 51.2017 122.422C51.266 122.566 51.3383 122.719 51.4107 122.863C51.4669 122.975 51.5232 123.087 51.5795 123.199C51.5955 123.231 51.6116 123.263 51.6277 123.295C51.6679 123.375 51.7081 123.456 51.7563 123.528C51.7724 123.56 51.7965 123.6 51.8126 123.632C51.8608 123.712 51.901 123.792 51.9492 123.872C51.9653 123.896 51.9814 123.928 51.9974 123.952C52.0537 124.048 52.11 124.145 52.1662 124.241C52.1743 124.249 52.1743 124.257 52.1823 124.265C53.0022 125.619 53.9828 126.86 55.1162 127.966H59.6656L63.339 121.621L59.6656 115.276H52.3189L50.0442 119.202C50.3255 120.291 50.7114 121.357 51.1856 122.382ZM49.578 116.806L50.9284 114.483L49.586 112.16C49.3931 113.706 49.3931 115.268 49.578 116.806Z" fill="white"/>
<path d="M115.2 48.3167C116.526 48.3167 117.611 49.3982 117.611 50.7201C117.611 52.042 116.526 53.1235 115.2 53.1235C113.873 53.1235 112.788 52.042 112.788 50.7201C112.788 49.3982 113.865 48.3167 115.2 48.3167ZM115.2 51.5213C115.642 51.5213 116.003 51.1608 116.003 50.7201C116.003 50.2795 115.642 49.919 115.2 49.919C114.758 49.919 114.396 50.2795 114.396 50.7201C114.396 51.1688 114.758 51.5213 115.2 51.5213Z" fill="white"/>
<path d="M121.63 48.3167C122.956 48.3167 124.041 49.3982 124.041 50.7201C124.041 52.042 122.956 53.1235 121.63 53.1235C120.304 53.1235 119.219 52.042 119.219 50.7201C119.219 49.3982 120.296 48.3167 121.63 48.3167ZM121.63 51.5213C122.072 51.5213 122.434 51.1608 122.434 50.7201C122.434 50.2795 122.072 49.919 121.63 49.919C121.188 49.919 120.826 50.2795 120.826 50.7201C120.826 51.1688 121.188 51.5213 121.63 51.5213Z" fill="white"/>
<path d="M104.622 58.6194H114.621V57.2895H110.506C110.063 57.2895 109.702 56.929 109.702 56.4883V53.2037H108.818C107.443 53.2037 106.326 52.0901 106.326 50.7201C106.326 49.3502 107.443 48.2366 108.818 48.2366H109.702V46.2979C109.702 45.8572 110.063 45.4967 110.506 45.4967H115.923V44.6155C115.923 43.2455 117.04 42.1319 118.415 42.1319C119.789 42.1319 120.907 43.2455 120.907 44.6155V45.4967H126.324C126.766 45.4967 127.128 45.8572 127.128 46.2979V48.2366H128.012C129.387 48.2366 130.504 49.3502 130.504 50.7201C130.504 52.0901 129.387 53.2037 128.012 53.2037H127.128V56.4883C127.128 56.929 126.766 57.2895 126.324 57.2895H122.209V58.6194H132.208C132.65 58.6194 133.012 58.9799 133.012 59.4205V72.2548C133.012 72.6954 132.65 73.0559 132.208 73.0559H129.266C128.824 73.0559 128.462 72.6954 128.462 72.2548V64.4356H127.128V82.3491C127.128 82.7898 126.766 83.1503 126.324 83.1503H120.344C119.902 83.1503 119.54 82.7898 119.54 82.3491V73.0559H117.29V82.3491C117.29 82.7898 116.928 83.1503 116.486 83.1503H110.506C110.063 83.1503 109.702 82.7898 109.702 82.3491V64.4437H108.367V72.2628C108.367 72.7034 108.006 73.0639 107.564 73.0639H104.622C104.18 73.0639 103.818 72.7034 103.818 72.2628V59.4205C103.818 58.9799 104.18 58.6194 104.622 58.6194ZM109.702 49.8389H108.818C108.327 49.8389 107.933 50.2314 107.933 50.7201C107.933 51.2088 108.327 51.6014 108.818 51.6014H109.702V49.8389ZM127.128 51.6014H128.012C128.502 51.6014 128.896 51.2088 128.896 50.7201C128.896 50.2314 128.502 49.8389 128.012 49.8389H127.128V51.6014ZM130.07 71.4536H131.404V60.2217H130.07V71.4536ZM127.128 62.8414H128.462V60.2297H127.128V62.8414ZM119.299 44.6155C119.299 44.1268 118.905 43.7342 118.415 43.7342C117.925 43.7342 117.531 44.1268 117.531 44.6155V45.4967H119.299V44.6155ZM125.52 55.6872V47.099H111.309V55.6872H125.52ZM120.601 57.2895H116.229V58.6194H120.601V57.2895ZM121.148 80.2181V81.548H125.52V80.2181H121.148ZM125.52 78.6158V73.0559H121.148V78.6158H125.52ZM125.52 71.4536V60.2217H111.309V71.4536H125.52ZM115.682 78.6158V73.0559H111.309V78.6158H115.682ZM111.309 80.2181V81.548H115.682V80.2181H111.309ZM108.367 62.8414H109.702V60.2297H108.367V62.8414ZM105.426 71.4536H106.76V60.2217H105.426V71.4536Z" fill="white"/>
<path d="M121.55 63.5063H121.574C122.016 63.5063 122.378 63.8669 122.378 64.3075C122.378 64.7481 122.016 65.1086 121.574 65.1086H121.55C121.108 65.1086 120.746 64.7481 120.746 64.3075C120.746 63.8669 121.108 63.5063 121.55 63.5063Z" fill="white"/>
<path d="M115.256 63.5063H119.082C119.524 63.5063 119.886 63.8669 119.886 64.3075C119.886 64.7481 119.524 65.1086 119.082 65.1086H115.256C114.814 65.1086 114.452 64.7481 114.452 64.3075C114.452 63.8669 114.814 63.5063 115.256 63.5063Z" fill="white"/>
<path d="M117.74 66.5667H121.566C122.008 66.5667 122.37 66.9272 122.37 67.3678C122.37 67.8084 122.008 68.169 121.566 68.169H117.74C117.298 68.169 116.936 67.8084 116.936 67.3678C116.936 66.9272 117.298 66.5667 117.74 66.5667Z" fill="white"/>
<path d="M115.256 66.5667H115.28C115.722 66.5667 116.084 66.9272 116.084 67.3678C116.084 67.8084 115.722 68.169 115.28 68.169H115.256C114.814 68.169 114.452 67.8084 114.452 67.3678C114.452 66.9272 114.814 66.5667 115.256 66.5667Z" fill="white"/>
<path d="M52.4314 72.2147C53.0825 71.0851 54.0551 70.3481 55.301 70.0276C55.5984 69.9475 55.9038 69.8994 56.2012 69.8834C56.161 69.4588 56.145 69.0262 56.145 68.5936C56.145 68.0488 56.1771 67.496 56.2414 66.9592C54.023 66.6548 52.3028 64.8122 52.3028 62.593C52.3028 60.1656 54.3605 58.1868 56.8845 58.1868C57.1336 58.1868 57.3748 58.2028 57.6159 58.2428C57.0934 56.9931 56.8121 55.6391 56.8121 54.2131C56.8121 53.2918 56.9327 52.3785 57.1738 51.4892C55.3492 50.7201 54.1355 48.9817 54.1355 47.0189C54.1355 44.327 56.4183 42.1319 59.2235 42.1319C60.9356 42.1319 62.519 42.9651 63.4514 44.295C64.9385 43.6381 66.5782 43.2936 68.226 43.2936C69.8738 43.2936 71.5135 43.6381 73.0005 44.295C73.9329 42.9571 75.5164 42.1319 77.2285 42.1319C80.0337 42.1319 82.3165 44.327 82.3165 47.0189C82.3165 48.9897 81.1028 50.7282 79.2781 51.4892C79.5193 52.3785 79.6398 53.2918 79.6398 54.2131C79.6398 55.6391 79.3505 56.9931 78.8361 58.2428C79.0772 58.2028 79.3183 58.1868 79.5675 58.1868C82.0914 58.1868 84.1491 60.1656 84.1491 62.593C84.1491 64.8122 82.437 66.6548 80.2105 66.9592C80.2748 67.504 80.307 68.0488 80.307 68.5936C80.307 69.0342 80.2829 69.4828 80.2427 69.9154C80.2748 69.9154 80.307 69.9154 80.3392 69.9154C80.733 69.9154 81.1349 69.9635 81.5288 70.0677C82.7827 70.3881 83.7472 71.1252 84.3983 72.2548C85.5317 74.2096 85.4754 77.1017 84.9127 79.1045C84.2456 81.4839 81.9789 83.1503 79.4148 83.1503C79.3103 83.1503 79.1978 83.1503 79.0933 83.1423C79.0852 83.1423 79.0852 83.1423 79.0772 83.1423C79.0692 83.1423 79.0611 83.1423 79.0531 83.1423C79.045 83.1423 79.037 83.1423 79.029 83.1423C76.923 83.0301 75.0663 81.7883 74.1901 80.0018C72.3816 81.1234 70.34 81.7082 68.226 81.7082C66.2085 81.7082 64.2472 81.1715 62.4949 80.138C62.4628 80.1941 62.4387 80.2421 62.4065 80.2982C61.6509 81.6041 60.397 82.5414 58.8939 82.9259C58.4117 83.0461 57.9213 83.1102 57.423 83.1102C54.8509 83.1102 52.5922 81.4438 51.925 79.0645C51.3544 77.0696 51.2981 74.1775 52.4314 72.2147ZM80.6928 47.0189C80.6928 45.2083 79.1335 43.7342 77.2124 43.7342C75.8379 43.7342 74.592 44.4953 74.0294 45.681C73.9329 45.8813 73.7641 46.0335 73.5551 46.0976C73.3461 46.1697 73.1211 46.1456 72.9282 46.0495C71.4894 45.2964 69.8577 44.8959 68.2099 44.8959C66.5621 44.8959 64.9304 45.2964 63.4916 46.0495C63.2987 46.1536 63.0737 46.1697 62.8647 46.0976C62.6557 46.0255 62.4869 45.8732 62.3904 45.681C61.8278 44.4953 60.5819 43.7342 59.2074 43.7342C57.2864 43.7342 55.727 45.2083 55.727 47.0189C55.727 48.3007 56.5067 49.4383 57.6963 49.9751C57.8892 49.5425 58.1062 49.1179 58.3554 48.7173C58.5885 48.3408 59.0788 48.2206 59.4566 48.4449C59.8344 48.6772 59.9549 49.1659 59.7299 49.5425C59.4003 50.0792 59.127 50.656 58.9181 51.2409C58.91 51.2569 58.91 51.2729 58.902 51.2809C58.5724 52.2183 58.4036 53.2037 58.4036 54.2051C58.4036 59.084 62.3744 63.0977 67.3981 63.4903V57.5298C66.2326 57.1293 65.4127 55.9275 65.4127 54.862C65.4127 54.2772 65.686 52.9233 68.2019 52.9233C70.7177 52.9233 70.991 54.2772 70.991 54.862C70.991 55.9275 70.1712 57.1293 69.0057 57.5298V63.4903C74.0374 63.0977 78.0001 59.084 78.0001 54.2051C78.0001 53.1876 77.8313 52.1862 77.4937 51.2329C77.4214 51.0166 77.4375 50.7842 77.542 50.584C77.6545 50.3837 77.8394 50.2395 78.0564 50.1914C79.6157 49.8309 80.6928 48.525 80.6928 47.0189ZM68.2179 69.6991C68.66 69.6991 69.0217 70.0597 69.0217 70.5003V72.9277C71.7466 72.5352 73.8445 70.1958 73.8445 67.3758C73.8445 66.2302 73.4908 65.1246 72.8478 64.1873C71.4331 64.7882 69.8657 65.1246 68.2179 65.1246C66.5702 65.1246 65.0028 64.7882 63.5881 64.1873C62.9451 65.1166 62.5914 66.2302 62.5914 67.3758C62.5914 70.1958 64.6893 72.5352 67.4142 72.9277V70.5003C67.4142 70.0597 67.7759 69.6991 68.2179 69.6991ZM69.3995 54.8781C69.3995 54.7979 69.3995 54.7659 69.2629 54.7018C69.1423 54.6377 68.8369 54.5416 68.2099 54.5416C67.5829 54.5416 67.2855 54.6457 67.1569 54.7018C67.0203 54.7659 67.0203 54.7979 67.0203 54.8781C67.0203 55.3267 67.5749 56.0798 68.2019 56.0798C68.8449 56.0798 69.3995 55.3267 69.3995 54.8781ZM75.8058 79.5371C76.3443 80.4665 77.2445 81.1394 78.3297 81.4118C78.5949 81.4759 78.8602 81.524 79.1254 81.54C79.2138 81.548 79.3023 81.548 79.3907 81.548C81.2394 81.548 82.8631 80.3623 83.3373 78.6719C83.7955 77.0536 83.8758 74.6021 82.9836 73.0559C82.5496 72.3028 81.9307 71.8302 81.1028 71.6219C80.8375 71.5578 80.5723 71.5177 80.315 71.5177C80.0417 71.5177 79.7765 71.5578 79.5273 71.6219C79.5112 71.6219 79.5032 71.6299 79.4871 71.6299C77.4133 72.2227 75.9263 74.9065 75.436 76.6771C75.1708 77.6544 75.2994 78.6639 75.8058 79.5371ZM62.9209 76.2124C63.146 76.9975 63.1782 77.8067 63.0335 78.5918C64.6089 79.5852 66.3933 80.1059 68.2179 80.1059C70.1872 80.1059 72.0842 79.5051 73.74 78.3755C73.6516 77.6785 73.6998 76.9575 73.8927 76.2605C74.4795 74.1775 76.1273 71.2614 78.5708 70.2679C78.6431 69.7152 78.6833 69.1544 78.6833 68.5936C78.6833 67.8325 78.619 67.0714 78.4824 66.3344C78.4422 66.094 78.5065 65.8376 78.6753 65.6534C78.8441 65.4691 79.0852 65.373 79.3264 65.389C79.3987 65.397 79.4711 65.397 79.5514 65.397C81.1912 65.397 82.5255 64.1392 82.5255 62.593C82.5255 61.0468 81.1912 59.789 79.5514 59.789C78.7637 59.789 78.0323 60.0774 77.4696 60.5902C76.6095 61.7278 75.5325 62.6972 74.2866 63.4502C75.0422 64.6119 75.4521 65.9738 75.4521 67.3758C75.4521 71.3495 72.2048 74.5861 68.2179 74.5861C64.2311 74.5861 60.9838 71.3495 60.9838 67.3758C60.9838 65.9738 61.3937 64.6119 62.1493 63.4502C60.9034 62.6972 59.8263 61.7278 58.9663 60.5902C58.4036 60.0694 57.6722 59.789 56.8845 59.789C55.2447 59.789 53.9104 61.0468 53.9104 62.593C53.9104 64.1392 55.2447 65.397 56.8845 65.397C56.9568 65.397 57.0291 65.397 57.1095 65.389C57.3587 65.373 57.5998 65.4691 57.7606 65.6534C57.9294 65.8376 57.9937 66.086 57.9535 66.3344C57.8169 67.0794 57.7526 67.8325 57.7526 68.5936C57.7526 69.0903 57.7847 69.587 57.841 70.0757C60.5096 70.9008 62.302 74.0173 62.9209 76.2124ZM53.4683 78.6318C53.9426 80.3222 55.5662 81.5079 57.415 81.5079C57.7767 81.5079 58.1303 81.4599 58.484 81.3717C59.5691 81.0913 60.4613 80.4264 61.0079 79.4971C61.5143 78.6238 61.6429 77.6144 61.3696 76.645C60.8472 74.7784 59.2235 71.9023 56.9809 71.5177C56.9729 71.5177 56.9648 71.5177 56.9568 71.5097C56.8041 71.4857 56.6514 71.4697 56.4906 71.4697C56.2334 71.4697 55.9681 71.5017 55.7029 71.5738C54.875 71.7821 54.2641 72.2548 53.822 73.0078C52.9298 74.5621 53.0102 77.0135 53.4683 78.6318Z" fill="white"/>
<path d="M63.1621 51.2169C63.9016 51.2169 64.5125 51.7937 64.5125 52.4987C64.5125 53.2037 63.9096 53.7805 63.1621 53.7805C62.4226 53.7805 61.8117 53.2037 61.8117 52.4987C61.8117 51.7937 62.4226 51.2169 63.1621 51.2169Z" fill="white"/>
<path d="M73.2738 51.2169C74.0133 51.2169 74.6241 51.7937 74.6241 52.4987C74.6241 53.2037 74.0213 53.7805 73.2738 53.7805C72.5343 53.7805 71.9234 53.2037 71.9234 52.4987C71.9234 51.7937 72.5262 51.2169 73.2738 51.2169Z" fill="white"/>
<path d="M59.9791 46.6664L59.9952 46.6504C60.3167 46.3459 60.8231 46.3459 61.1365 46.6664C61.442 46.9868 61.442 47.4916 61.1205 47.796L61.1124 47.804C60.9597 47.9562 60.7507 48.0363 60.5498 48.0363C60.3408 48.0363 60.1399 47.9562 59.9791 47.804C59.6656 47.4916 59.6656 46.9788 59.9791 46.6664Z" fill="white"/>
<path d="M68.218 67.3839C68.66 67.3839 69.0217 67.7444 69.0217 68.185V68.201C69.0217 68.6416 68.66 69.0022 68.218 69.0022C67.7759 69.0022 67.4142 68.6416 67.4142 68.201V68.185C67.4142 67.7364 67.7759 67.3839 68.218 67.3839Z" fill="white"/>
<path d="M32.3206 65.9578C33.6468 65.9578 34.7319 67.0394 34.7319 68.3612C34.7319 69.6831 33.6468 70.7647 32.3206 70.7647C30.9943 70.7647 29.9092 69.6831 29.9092 68.3612C29.9092 67.0394 30.9943 65.9578 32.3206 65.9578ZM32.3206 69.1624C32.7626 69.1624 33.1243 68.8019 33.1243 68.3612C33.1243 67.9206 32.7626 67.5601 32.3206 67.5601C31.8785 67.5601 31.5168 67.9206 31.5168 68.3612C31.5168 68.8019 31.8785 69.1624 32.3206 69.1624Z" fill="white"/>
<path d="M8.84978 65.9578C10.176 65.9578 11.2612 67.0394 11.2612 68.3612C11.2612 69.6831 10.176 70.7647 8.84978 70.7647C7.52352 70.7647 6.4384 69.6831 6.4384 68.3612C6.4384 67.0394 7.52352 65.9578 8.84978 65.9578ZM8.84978 69.1624C9.29187 69.1624 9.65358 68.8019 9.65358 68.3612C9.65358 67.9206 9.29187 67.5601 8.84978 67.5601C8.4077 67.5601 8.04599 67.9206 8.04599 68.3612C8.04599 68.8019 8.4077 69.1624 8.84978 69.1624Z" fill="white"/>
<path d="M1.21376 66.5266V62.1364C1.21376 58.9238 3.83413 56.3041 7.06538 56.3041H12.0007L13.343 55.527L12.8929 54.7499C12.3141 53.7565 12.6598 52.4826 13.6565 51.9058C13.97 51.7216 14.3317 51.6254 14.7014 51.6254C15.4489 51.6254 16.1402 52.026 16.518 52.6669L18.222 55.6071C18.8008 56.6005 18.4551 57.8743 17.4584 58.4511C17.1449 58.6354 16.7832 58.7315 16.4135 58.7315C15.666 58.7315 14.9747 58.331 14.5969 57.69L14.1468 56.9129L13.0134 57.5619V58.6594C13.0134 59.9813 14.0905 61.0548 15.4168 61.0548H25.7455C27.0718 61.0548 28.1489 59.9813 28.1489 58.6594V53.7805C28.1489 52.4185 29.2581 51.321 30.6165 51.321C31.983 51.321 33.0842 52.4266 33.0842 53.7805V56.3041H34.105C37.3282 56.3041 39.9566 58.9158 39.9566 62.1364V66.5266C40.6639 66.8391 41.1623 67.5441 41.1623 68.3612C41.1623 69.4668 40.262 70.3641 39.1528 70.3641H37.5774C36.7655 72.4711 34.7159 73.9692 32.3206 73.9692C29.9253 73.9692 27.8756 72.4711 27.0638 70.3641H14.0986C13.2867 72.4711 11.2371 73.9692 8.84175 73.9692C6.44645 73.9692 4.39679 72.4711 3.58496 70.3641H2.00951C0.90028 70.3641 3.05176e-05 69.4668 3.05176e-05 68.3612C0.00806808 67.5441 0.506428 66.8391 1.21376 66.5266ZM14.2915 53.9487L15.1435 55.4148L15.9955 56.8809C16.0839 57.0251 16.2447 57.1212 16.4135 57.1212C16.5019 57.1212 16.5743 57.0972 16.6546 57.0571C16.7672 56.9931 16.8475 56.8889 16.8797 56.7687C16.9118 56.6406 16.8958 56.5124 16.8315 56.4082L15.1274 53.468C15.039 53.3238 14.8782 53.2277 14.7094 53.2277C14.621 53.2277 14.5487 53.2517 14.4683 53.2918C14.2432 53.428 14.1629 53.7244 14.2915 53.9487ZM22.4419 62.6571H18.7284V66.3584H22.4419V62.6571ZM31.4846 53.7805C31.4846 53.3078 31.0988 52.9233 30.6246 52.9233C30.1503 52.9233 29.7645 53.3078 29.7645 53.7805V56.3041H31.4927C31.4846 56.3041 31.4846 53.7805 31.4846 53.7805ZM37.9391 68.6176C37.9391 68.6416 37.9391 68.6657 37.9391 68.6897C37.9391 68.7137 37.9391 68.7378 37.9391 68.7618H39.1608C39.3779 68.7618 39.5627 68.5775 39.5627 68.3612C39.5627 68.1449 39.3779 67.9607 39.1608 67.9607H37.9391C37.9391 67.9847 37.9391 68.0087 37.9391 68.0328C37.9391 68.0568 37.9391 68.0808 37.9391 68.1049C37.9391 68.193 37.9471 68.2731 37.9471 68.3612C37.9471 68.4493 37.9471 68.5295 37.9391 68.6176ZM28.3096 68.5936C28.3096 68.6176 28.3096 68.6416 28.3177 68.6737C28.3177 68.7217 28.3257 68.7778 28.3337 68.8259C28.3337 68.8579 28.3418 68.89 28.3418 68.922C28.3498 68.9701 28.3579 69.0101 28.3659 69.0582C28.3739 69.0903 28.3739 69.1223 28.382 69.1624C28.39 69.2024 28.398 69.2425 28.4061 69.2825C28.8241 71.0531 30.4156 72.3749 32.3206 72.3749C34.1854 72.3749 35.7528 71.1091 36.2029 69.3947C36.2029 69.3867 36.2109 69.3707 36.2109 69.3626C36.219 69.3226 36.227 69.2905 36.235 69.2505C36.2431 69.2184 36.2511 69.1784 36.2592 69.1463C36.2672 69.1143 36.2752 69.0742 36.2752 69.0422C36.2833 69.0021 36.2913 68.9621 36.2913 68.922C36.2993 68.89 36.2993 68.8579 36.2993 68.8259C36.3074 68.7778 36.3074 68.7297 36.3154 68.6817C36.3154 68.6576 36.3235 68.6336 36.3235 68.6096C36.3315 68.5375 36.3315 68.4574 36.3315 68.3853C36.3315 68.3051 36.3315 68.233 36.3235 68.1529C36.3235 68.1289 36.3235 68.1049 36.3154 68.0808C36.3074 68.0328 36.3074 67.9767 36.2993 67.9286C36.2993 67.8966 36.2913 67.8725 36.2913 67.8405C36.2833 67.7924 36.2752 67.7443 36.2672 67.7043C36.2592 67.6722 36.2591 67.6402 36.2511 67.6082C36.2431 67.5601 36.227 67.512 36.219 67.472C35.801 65.7095 34.2095 64.3876 32.3125 64.3876C30.4156 64.3876 28.816 65.7095 28.3981 67.48C28.39 67.52 28.382 67.5601 28.3739 67.6082C28.3659 67.6402 28.3659 67.6722 28.3579 67.7043C28.3498 67.7524 28.3418 67.7924 28.3337 67.8405C28.3257 67.8725 28.3257 67.9046 28.3257 67.9286C28.3177 67.9767 28.3177 68.0328 28.3096 68.0808C28.3096 68.1049 28.3016 68.1289 28.3016 68.1609C28.2936 68.2411 28.2936 68.3132 28.2936 68.3933C28.3016 68.4413 28.3016 68.5134 28.3096 68.5936ZM32.3206 62.7532C34.7159 62.7532 36.7655 64.2514 37.5774 66.3584H38.349V62.1284C38.349 61.6797 38.2767 61.2551 38.1481 60.8545H35.3991C34.957 60.8545 34.5953 60.494 34.5953 60.0534C34.5953 59.6128 34.957 59.2523 35.3991 59.2523H37.2076C36.436 58.4271 35.3267 57.9064 34.105 57.9064H29.7565V58.6594C29.7565 60.8626 27.956 62.6571 25.7455 62.6571H24.0495V66.3584H27.0638C27.8756 64.2514 29.9253 62.7532 32.3206 62.7532ZM14.4683 68.6176C14.4683 68.6416 14.4683 68.6657 14.4683 68.6897C14.4683 68.7137 14.4683 68.7378 14.4603 68.7618H26.7101C26.7101 68.7378 26.7101 68.7137 26.702 68.6897C26.702 68.6657 26.702 68.6416 26.702 68.6176C26.702 68.5295 26.694 68.4493 26.694 68.3612C26.694 68.2731 26.694 68.193 26.702 68.1049C26.702 68.0808 26.702 68.0568 26.702 68.0328C26.702 68.0087 26.702 67.9847 26.7101 67.9607H14.4603C14.4603 67.9847 14.4603 68.0087 14.4603 68.0328C14.4603 68.0568 14.4603 68.0808 14.4603 68.1049C14.4603 68.193 14.4683 68.2731 14.4683 68.3612C14.4763 68.4493 14.4763 68.5295 14.4683 68.6176ZM4.83887 68.5936C4.83887 68.6176 4.83887 68.6416 4.84691 68.6657C4.85495 68.7137 4.85494 68.7698 4.86298 68.8179C4.86298 68.8499 4.87103 68.882 4.87103 68.906C4.87906 68.9541 4.8871 68.9941 4.89513 69.0422C4.90317 69.0742 4.90318 69.1063 4.91121 69.1383C4.91925 69.1864 4.92728 69.2265 4.94336 69.2745C5.36133 71.037 6.95285 72.3589 8.85784 72.3589C10.7226 72.3589 12.29 71.0931 12.7402 69.3787C12.7402 69.3707 12.7482 69.3546 12.7482 69.3466C12.7562 69.3066 12.7643 69.2745 12.7723 69.2345C12.7803 69.2024 12.7884 69.1624 12.7964 69.1303C12.8045 69.0983 12.8125 69.0582 12.8125 69.0262C12.8205 68.9861 12.8286 68.9461 12.8286 68.906C12.8366 68.874 12.8366 68.8419 12.8366 68.8099C12.8447 68.7618 12.8446 68.7137 12.8527 68.6657C12.8527 68.6416 12.8607 68.6176 12.8607 68.5936C12.8688 68.5215 12.8688 68.4413 12.8688 68.3692C12.8688 68.2891 12.8688 68.217 12.8607 68.1369C12.8607 68.1129 12.8607 68.0888 12.8527 68.0648C12.8527 68.0167 12.8447 67.9607 12.8366 67.9126C12.8366 67.8805 12.8286 67.8565 12.8286 67.8245C12.8205 67.7764 12.8125 67.7283 12.8045 67.6883C12.7964 67.6562 12.7964 67.6242 12.7884 67.5921C12.7804 67.5441 12.7643 67.496 12.7562 67.4559C12.3383 65.6934 10.7468 64.3715 8.8498 64.3715C6.95285 64.3715 5.36133 65.6854 4.94336 67.4559C4.93532 67.504 4.91925 67.5441 4.91121 67.5921C4.90318 67.6242 4.90317 67.6562 4.89513 67.6883C4.8871 67.7363 4.87906 67.7764 4.87103 67.8245C4.86299 67.8565 4.86298 67.8805 4.86298 67.9126C4.85494 67.9607 4.85495 68.0167 4.84691 68.0648C4.84691 68.0888 4.83887 68.1129 4.83887 68.1369C4.83083 68.217 4.83084 68.2891 4.83084 68.3692C4.83084 68.4413 4.83083 68.5134 4.83887 68.5936ZM8.8498 62.7532C11.2451 62.7532 13.2948 64.2514 14.1066 66.3584H17.1289V62.6571H15.4329C13.2224 62.6571 11.4219 60.8626 11.4219 58.6594V57.9064H7.07341C5.85165 57.9064 4.75045 58.4271 3.97077 59.2523H5.7793C6.22139 59.2523 6.5831 59.6128 6.5831 60.0534C6.5831 60.494 6.22139 60.8545 5.7793 60.8545H3.03034C2.90173 61.2551 2.82939 61.6877 2.82939 62.1284V66.3584H3.60103C4.40482 64.2514 6.4545 62.7532 8.8498 62.7532ZM2.01756 68.7618H3.23932C3.23932 68.7378 3.23932 68.7137 3.23129 68.6897C3.23129 68.6657 3.23129 68.6416 3.23129 68.6176C3.23129 68.5295 3.22325 68.4493 3.22325 68.3612C3.22325 68.2731 3.22325 68.193 3.23129 68.1049C3.23129 68.0808 3.23129 68.0568 3.23129 68.0328C3.23129 68.0087 3.23129 67.9847 3.23129 67.9607H2.00951C1.79249 67.9607 1.60762 68.1449 1.60762 68.3612C1.61565 68.5775 1.80053 68.7618 2.01756 68.7618Z" fill="white"/>
<path d="M8.07813 59.2523H8.09421C8.5363 59.2523 8.89801 59.6128 8.89801 60.0534C8.89801 60.494 8.5363 60.8545 8.09421 60.8545H8.07813C7.63605 60.8545 7.27434 60.494 7.27434 60.0534C7.27434 59.6128 7.63605 59.2523 8.07813 59.2523Z" fill="white"/>
<path d="M33.0761 59.2523H33.0922C33.5343 59.2523 33.896 59.6128 33.896 60.0534C33.896 60.494 33.5343 60.8545 33.0922 60.8545H33.0761C32.634 60.8545 32.2723 60.494 32.2723 60.0534C32.2723 59.6128 32.626 59.2523 33.0761 59.2523Z" fill="white"/>
<path d="M101.712 97.034H107.853C108.295 97.034 108.657 97.3945 108.657 97.8351V99.3653C108.657 100.655 107.604 101.697 106.318 101.697H103.247C101.953 101.697 100.908 100.647 100.908 99.3653V97.8351C100.908 97.3865 101.27 97.034 101.712 97.034ZM102.516 99.3653C102.516 99.7579 102.853 100.094 103.247 100.094H106.318C106.712 100.094 107.049 99.7579 107.049 99.3653V98.6363H102.516V99.3653Z" fill="white"/>
<path d="M97.8378 99.3653V94.7748C97.8378 94.3341 98.1995 93.9736 98.6416 93.9736H110.932C111.374 93.9736 111.735 94.3341 111.735 94.7748V99.3653C111.735 102.065 109.734 104.308 107.13 104.701V116.734C107.21 116.766 107.282 116.806 107.355 116.846C107.612 116.982 107.773 117.255 107.773 117.551V118.873C108.858 119.025 110.176 119.298 111.253 119.77C111.542 119.899 111.735 120.187 111.735 120.507V132.02C111.735 133.662 110.393 135 108.745 135H100.828C99.1801 135 97.8378 133.662 97.8378 132.02V120.507C97.8378 120.187 98.0307 119.899 98.32 119.77C99.3971 119.298 100.715 119.033 101.8 118.873V117.543C101.8 117.247 101.961 116.982 102.218 116.838C102.291 116.798 102.363 116.766 102.443 116.726V104.693C99.8392 104.308 97.8378 102.065 97.8378 99.3653ZM101.8 120.491C100.9 120.628 100.096 120.82 99.4453 121.044V132.012C99.4453 132.773 100.064 133.39 100.828 133.39H108.745C109.509 133.39 110.128 132.773 110.128 132.012V131.483H107.636C107.194 131.483 106.832 131.122 106.832 130.682C106.832 130.241 107.194 129.881 107.636 129.881H110.128V121.044C109.477 120.82 108.673 120.628 107.773 120.491C107.716 122.15 106.253 123.015 104.799 123.015C103.336 123.007 101.857 122.142 101.8 120.491ZM106.165 120.387V118.08C105.731 117.952 105.184 117.88 104.791 117.88C104.397 117.88 103.85 117.952 103.416 118.08V120.387C103.416 121.196 104.292 121.413 104.807 121.413C105.305 121.405 106.165 121.188 106.165 120.387ZM103.247 103.155C103.689 103.155 104.051 103.515 104.051 103.956V116.325C104.316 116.293 104.566 116.277 104.783 116.277C105 116.277 105.249 116.293 105.514 116.325V103.956C105.514 103.515 105.876 103.155 106.318 103.155C108.416 103.155 110.12 101.456 110.12 99.3653V95.5759H99.4373V99.3653C99.4453 101.456 101.149 103.155 103.247 103.155Z" fill="white"/>
<path d="M115.24 108.843V105.206C115.24 99.0128 120.296 93.9656 126.517 93.9656C132.73 93.9656 137.794 99.0048 137.794 105.206V108.843C138.502 109.155 139 109.86 139 110.677V113.081C139 114.01 138.357 114.795 137.489 115.02L135.938 132.532C135.817 133.934 134.724 134.984 133.406 134.984H119.621C118.302 134.984 117.217 133.926 117.089 132.532L115.537 115.02C114.669 114.795 114.026 114.01 114.026 113.081V110.677C114.034 109.86 114.524 109.155 115.24 108.843ZM136.179 105.206C136.179 99.8941 131.846 95.5679 126.509 95.5679C121.18 95.5679 116.839 99.8861 116.839 105.206V108.675H136.171V105.206H136.179ZM117.338 117.079H119.902C120.344 117.079 120.706 117.439 120.706 117.88C120.706 118.32 120.344 118.681 119.902 118.681H117.482L118.696 132.388C118.736 132.885 119.074 133.382 119.621 133.382H133.406C133.96 133.382 134.29 132.885 134.33 132.388L135.857 115.076H117.153L117.338 117.079ZM115.642 113.081C115.642 113.297 115.827 113.481 116.044 113.481H136.982C137.2 113.481 137.384 113.297 137.384 113.081V110.677C137.384 110.461 137.2 110.277 136.982 110.277H116.044C115.827 110.277 115.642 110.461 115.642 110.677V113.081Z" fill="white"/>
<path d="M122.209 117.079H122.225C122.667 117.079 123.029 117.439 123.029 117.88C123.029 118.32 122.667 118.681 122.225 118.681H122.209C121.767 118.681 121.405 118.32 121.405 117.88C121.405 117.439 121.767 117.079 122.209 117.079Z" fill="white"/>
<path d="M105.305 129.881H105.321C105.763 129.881 106.125 130.241 106.125 130.682C106.125 131.122 105.763 131.483 105.321 131.483H105.305C104.863 131.483 104.501 131.122 104.501 130.682C104.501 130.241 104.855 129.881 105.305 129.881Z" fill="white"/>
<path d="M100.137 10.9596C101.141 10.9596 101.993 11.6005 102.307 12.4978H107.427C107.805 10.4549 109.605 8.89264 111.767 8.89264H118.809V7.41855H113.753C112.097 7.41855 110.747 6.07263 110.747 4.42229C110.747 2.77194 112.097 1.42603 113.753 1.42603H125.472C126.855 1.42603 128.02 2.35535 128.366 3.62115H133.028C136.315 3.62115 138.984 6.28894 138.984 9.55759C138.984 12.8343 136.307 15.494 133.028 15.494H131.87V16.0949C131.87 17.9535 130.713 19.5398 129.081 20.1887L131.332 28.5606C131.484 29.1374 131.404 29.7383 131.107 30.259C130.809 30.7798 130.319 31.1483 129.74 31.3085L126.694 32.1257C126.501 32.1738 126.308 32.2058 126.115 32.2058C125.094 32.2058 124.202 31.5248 123.937 30.5394L123.037 27.1827H117.322C115.409 27.1827 113.849 25.6285 113.849 23.7217V20.5012H111.767C109.605 20.5012 107.805 18.9469 107.427 16.896H102.307C101.993 17.7933 101.141 18.4342 100.137 18.4342C98.8666 18.4342 97.8377 17.4088 97.8377 16.143V13.2428C97.8377 11.9931 98.8666 10.9596 100.137 10.9596ZM125.472 3.03632H113.753C112.981 3.03632 112.354 3.6612 112.354 4.4303C112.354 5.19939 112.981 5.82428 113.753 5.82428H125.472C126.244 5.82428 126.871 5.19939 126.871 4.4303C126.871 3.6612 126.244 3.03632 125.472 3.03632ZM131.87 13.2989V13.8998H133.028C135.431 13.8998 137.376 11.953 137.376 9.5656C137.376 7.17821 135.423 5.23144 133.028 5.23144H128.366C128.012 6.49724 126.847 7.42656 125.472 7.42656H120.416V8.90066H127.457C129.893 8.90066 131.87 10.8715 131.87 13.2989ZM125.488 30.1389C125.561 30.4193 125.818 30.6115 126.115 30.6115C126.171 30.6115 126.228 30.6035 126.276 30.5875L129.322 29.7703C129.483 29.7303 129.628 29.6181 129.708 29.4739C129.797 29.3217 129.821 29.1535 129.772 28.9852L127.49 20.5092C127.474 20.5092 127.457 20.5092 127.449 20.5092H122.892L125.488 30.1389ZM115.457 23.7297C115.457 24.7552 116.293 25.5884 117.322 25.5884H122.603L122.394 24.8193C121.132 24.7953 120.215 24.6751 119.532 24.0742C118.833 23.4494 118.584 22.504 118.142 20.8056C118.117 20.7095 118.093 20.6133 118.069 20.5172H115.457V23.7297ZM121.96 23.201L121.236 20.5092H119.733C120.071 21.799 120.28 22.5761 120.617 22.8805C120.834 23.0808 121.276 23.169 121.96 23.201ZM108.962 16.1109C108.962 17.6571 110.224 18.9149 111.775 18.9149H127.466C127.514 18.9149 127.554 18.9149 127.602 18.9149C127.618 18.9149 127.642 18.9149 127.658 18.9149C127.683 18.9149 127.707 18.9149 127.731 18.9069C127.755 18.9069 127.779 18.8989 127.803 18.8989C127.819 18.8989 127.835 18.8909 127.859 18.8909C127.892 18.8829 127.916 18.8829 127.948 18.8748C129.266 18.6505 130.279 17.4969 130.279 16.1189V13.3069C130.279 11.7607 129.017 10.5029 127.466 10.5029H111.775C110.224 10.5029 108.962 11.7607 108.962 13.3069V16.1109ZM102.435 15.3098H107.347V14.1001H102.435V15.3098ZM99.4453 16.151C99.4453 16.5355 99.7588 16.8399 100.137 16.8399C100.514 16.8399 100.828 16.5275 100.828 16.151V16.1109V13.2989V13.2589C100.828 12.8743 100.514 12.5699 100.137 12.5699C99.7588 12.5699 99.4453 12.8823 99.4453 13.2589V16.151Z" fill="white"/>
<path d="M120.497 12.3776H124.323C124.765 12.3776 125.126 12.7381 125.126 13.1787C125.126 13.6194 124.765 13.9799 124.323 13.9799H120.497C120.055 13.9799 119.693 13.6194 119.693 13.1787C119.693 12.7301 120.055 12.3776 120.497 12.3776Z" fill="white"/>
<path d="M126.79 12.3776H126.814C127.257 12.3776 127.618 12.7381 127.618 13.1787C127.618 13.6194 127.257 13.9799 126.814 13.9799H126.79C126.348 13.9799 125.987 13.6194 125.987 13.1787C125.987 12.7301 126.348 12.3776 126.79 12.3776Z" fill="white"/>
<path d="M120.497 15.438H120.521C120.963 15.438 121.325 15.7985 121.325 16.2391C121.325 16.6797 120.963 17.0402 120.521 17.0402H120.497C120.055 17.0402 119.693 16.6797 119.693 16.2391C119.693 15.7985 120.055 15.438 120.497 15.438Z" fill="white"/>
<path d="M122.988 15.438H126.814C127.257 15.438 127.618 15.7985 127.618 16.2391C127.618 16.6797 127.257 17.0402 126.814 17.0402H122.988C122.546 17.0402 122.185 16.6797 122.185 16.2391C122.185 15.7985 122.546 15.438 122.988 15.438Z" fill="white"/>
<path d="M84.1653 28.0399C84.6074 28.0399 84.9691 28.4004 84.9691 28.841C84.9691 29.2817 84.6074 29.6422 84.1653 29.6422C83.7232 29.6422 83.3615 29.2817 83.3615 28.841C83.3615 28.4004 83.7151 28.0399 84.1653 28.0399Z" fill="white"/>
<path d="M50.5667 24.5069V16.6317C50.5667 16.191 50.9284 15.8305 51.3705 15.8305H51.8528V4.43831C51.8528 2.97223 52.8575 1.74648 54.2159 1.38597V0.801139C54.2159 0.360513 54.5776 0 55.0197 0H59.2316C60.381 0 61.3214 0.937333 61.3214 2.08296C61.3214 3.22859 60.381 4.16593 59.2316 4.16593H55.0197C54.5776 4.16593 54.2159 3.80541 54.2159 3.36479V3.10842C53.7658 3.38081 53.4604 3.8695 53.4604 4.43831V15.8305H53.9426C54.3847 15.8305 54.7464 16.191 54.7464 16.6317V21.5346C57.2945 22.2557 59.2637 24.2184 59.9872 26.7581H76.8347C77.5661 24.2184 79.6078 22.1916 82.1879 21.5026C82.6139 21.3904 83.056 21.6388 83.1686 22.0714C83.2811 22.504 83.0319 22.9366 82.5979 23.0488C80.7089 23.5535 79.1898 24.9635 78.5146 26.7581H79.8087C80.5884 25.1478 82.2442 24.0342 84.1572 24.0342C86.8178 24.0342 88.98 26.1892 88.98 28.841C88.98 31.4928 86.8178 33.6479 84.1572 33.6479C82.2442 33.6479 80.5884 32.5343 79.8087 30.924H56.989C56.2093 32.5343 54.5535 33.6479 52.6405 33.6479C49.9799 33.6479 47.8177 31.4928 47.8177 28.841C47.8338 26.9343 48.9511 25.284 50.5667 24.5069ZM55.8155 2.56365H59.2236C59.4888 2.56365 59.7058 2.34734 59.7058 2.08296C59.7058 1.81859 59.4888 1.60228 59.2236 1.60228H55.8155V2.56365ZM80.9501 28.9932C80.9501 29.0093 80.9501 29.0253 80.9501 29.0333C80.9501 29.0734 80.9581 29.1054 80.9581 29.1455C80.9581 29.1615 80.9581 29.1695 80.9662 29.1855C80.9742 29.2256 80.9742 29.2656 80.9822 29.3057C80.9822 29.3137 80.9822 29.3217 80.9822 29.3297C81.2234 30.8599 82.5577 32.0376 84.1572 32.0376C85.9336 32.0376 87.3724 30.6035 87.3724 28.833C87.3724 27.0625 85.9336 25.6285 84.1572 25.6285C82.5496 25.6285 81.2234 26.8061 80.9822 28.3363C80.9822 28.3443 80.9822 28.3523 80.9822 28.3603C80.9742 28.4004 80.9742 28.4405 80.9662 28.4805C80.9662 28.4965 80.9662 28.5045 80.9581 28.5206C80.9581 28.5606 80.9501 28.5927 80.9501 28.6327C80.9501 28.6487 80.9501 28.6648 80.9501 28.6728C80.9501 28.7208 80.9501 28.7769 80.9501 28.825C80.9501 28.8891 80.9501 28.9452 80.9501 28.9932ZM53.1388 22.1675V17.4328H52.1743V24.0582C52.2306 24.0502 52.2868 24.0502 52.3431 24.0422C52.3672 24.0422 52.3913 24.0422 52.4074 24.0342C52.4878 24.0262 52.5681 24.0262 52.6566 24.0262C52.745 24.0262 52.8173 24.0262 52.9057 24.0342C52.9299 24.0342 52.954 24.0342 52.97 24.0422C53.0263 24.0422 53.0826 24.0502 53.1388 24.0582C53.1308 24.0502 53.1388 22.1755 53.1388 22.1675ZM57.4713 29.0814C57.4713 29.1054 57.4713 29.1294 57.4632 29.1535C57.4632 29.2095 57.4552 29.2656 57.4472 29.3137H79.3586C79.3505 29.2576 79.3505 29.1935 79.3425 29.1374C79.3425 29.1134 79.3425 29.0974 79.3345 29.0734C79.3264 28.9932 79.3264 28.9131 79.3264 28.825C79.3264 28.7449 79.3264 28.6648 79.3345 28.5766C79.3345 28.5526 79.3345 28.5366 79.3425 28.5126C79.3425 28.4565 79.3505 28.3924 79.3586 28.3363H57.4472C57.4552 28.3924 57.4552 28.4485 57.4632 28.4965C57.4632 28.5206 57.4713 28.5446 57.4713 28.5686C57.4793 28.6487 57.4793 28.7289 57.4793 28.809C57.4713 28.9211 57.4713 29.0012 57.4713 29.0814ZM56.997 26.7581H58.2912C57.6803 25.1157 56.3942 23.8259 54.7384 23.217V24.5069C55.727 24.9795 56.5228 25.7807 56.997 26.7581ZM52.6566 32.0456C54.1516 32.0456 55.4136 31.0201 55.7672 29.6422C55.8074 29.4899 55.8315 29.3377 55.8476 29.1855C55.8476 29.1695 55.8476 29.1615 55.8476 29.1455C55.8476 29.1054 55.8557 29.0734 55.8557 29.0333C55.8557 29.0173 55.8557 29.0093 55.8557 28.9932C55.8557 28.9452 55.8557 28.8971 55.8557 28.841C55.8557 28.793 55.8557 28.7369 55.8557 28.6888C55.8557 28.6728 55.8557 28.6568 55.8557 28.6487C55.8557 28.6087 55.8476 28.5766 55.8476 28.5366C55.8476 28.5206 55.8476 28.5045 55.8396 28.4965C55.8315 28.4565 55.8315 28.4164 55.8235 28.3764C55.8235 28.3683 55.8235 28.3603 55.8235 28.3523C55.6226 27.0865 54.6821 26.0611 53.4523 25.7406C53.4041 25.7246 53.3478 25.7166 53.2996 25.7086C53.2916 25.7086 53.2835 25.7086 53.2835 25.7086C53.2433 25.7006 53.2031 25.6925 53.1629 25.6845C53.1308 25.6765 53.1067 25.6765 53.0745 25.6765C53.0585 25.6765 53.0424 25.6685 53.0263 25.6685C52.9942 25.6685 52.962 25.6605 52.9298 25.6605C52.9218 25.6605 52.9057 25.6605 52.8977 25.6605C52.7369 25.6525 52.5762 25.6525 52.4154 25.6605C52.4074 25.6605 52.3913 25.6605 52.3833 25.6605C52.3511 25.6605 52.319 25.6685 52.2868 25.6685C52.2707 25.6685 52.2547 25.6765 52.2386 25.6765C52.2064 25.6765 52.1823 25.6845 52.1502 25.6845C52.11 25.6925 52.0698 25.7006 52.0296 25.7086C52.0216 25.7086 52.0216 25.7086 52.0135 25.7086C51.9653 25.7166 51.909 25.7326 51.8608 25.7406C50.4783 26.1011 49.4494 27.3509 49.4494 28.841C49.4414 30.6035 50.8802 32.0456 52.6566 32.0456Z" fill="white"/>
<path d="M52.6565 28.0399C53.0986 28.0399 53.4603 28.4004 53.4603 28.841C53.4603 29.2817 53.0986 29.6422 52.6565 29.6422C52.2144 29.6422 51.8527 29.2817 51.8527 28.841C51.8527 28.4004 52.2064 28.0399 52.6565 28.0399Z" fill="white"/>
<path d="M1.76836 13.4752L0.144695 10.9997C-0.0241013 10.7353 -0.0321388 10.3988 0.136662 10.1344C1.43077 8.09152 4.46911 4.59054 6.35802 3.14048L6.19727 0.857233C6.18119 0.632914 6.26156 0.408595 6.42232 0.240356C6.58308 0.0801281 6.8001 -0.00799721 7.0332 1.41832e-05C15.7946 0.32047 16.0759 4.54247 16.2768 7.62686C16.3733 9.14903 16.4697 10.0864 17.0967 10.6151C17.0967 10.6151 17.0967 10.6151 17.1047 10.6231C17.3137 10.7994 17.587 10.9276 17.9326 11.0237C21.4854 11.953 23.0608 11.3041 24.7167 10.6151C25.6571 10.2306 26.6217 9.83 27.8997 9.74187C31.4685 9.51755 33.2047 11.216 34.6033 12.5779C35.7206 13.6675 36.6048 14.5327 38.2124 14.4285C38.5339 14.4045 38.8393 14.5808 38.984 14.8772C39.1287 15.1656 39.0805 15.5181 38.8634 15.7584C37.3201 17.5049 35.6322 17.7773 34.4908 17.6972C34.2255 17.6812 33.9764 17.6411 33.7513 17.593L35.174 27.1186C35.8733 26.9343 36.5726 26.7421 37.2639 26.5257C37.6819 26.3976 38.0918 26.3335 38.4856 26.3335C39.8682 26.3335 40.9613 27.1747 41.1462 28.3844C41.2989 29.3938 40.7443 30.6356 39.1528 31.1323C33.8236 32.8067 28.2614 33.6479 22.6429 33.6479C21.9677 33.6479 21.2845 33.6319 20.6093 33.6078C14.3799 33.3755 8.3032 32.1177 2.55608 29.8665C0.66716 29.1294 0.200962 27.7595 0.385834 26.8222C0.594818 25.7086 1.61564 24.9635 2.91778 24.9635C3.4081 24.9635 3.93056 25.0677 4.46106 25.276C5.58637 25.7166 6.73581 26.1252 7.88523 26.4777L8.8337 12.5619C5.8677 12.666 2.76506 13.7716 2.73291 13.7876C2.36316 13.9158 1.9693 13.7876 1.76836 13.4752ZM17.5066 12.5619C17.4182 12.5378 17.3378 12.5138 17.2575 12.4898C17.2253 13.8998 17.6674 14.9493 18.5596 15.5662C19.701 16.3513 21.5176 16.2952 22.9724 15.43C24.2183 14.6929 24.9819 13.5313 25.1427 12.1613C23.4306 12.8663 21.4533 13.5954 17.5066 12.5619ZM3.85018 26.7661C3.51259 26.6299 3.19108 26.5658 2.90171 26.5658C2.38728 26.5658 2.01754 26.7821 1.95323 27.1186C1.88089 27.4871 2.21848 28.0159 3.1348 28.3764C8.71313 30.5635 14.6049 31.7812 20.6575 32.0055C21.3166 32.0296 21.9757 32.0456 22.6348 32.0456C28.0926 32.0456 33.486 31.2204 38.6625 29.6021C39.2734 29.4098 39.611 29.0333 39.5467 28.6247C39.4904 28.2802 39.1448 27.9357 38.4696 27.9357C38.2365 27.9357 37.9873 27.9758 37.722 28.0559C36.7253 28.3604 35.7206 28.6327 34.7159 28.8811C34.6998 28.8891 34.6757 28.8891 34.6596 28.8971C33.9201 29.0734 33.1806 29.2336 32.4331 29.3778C32.417 29.3778 32.409 29.3858 32.3929 29.3858C29.1858 30.0027 25.9143 30.3151 22.6268 30.3151C21.9998 30.3151 21.3568 30.3071 20.7298 30.2831C14.9023 30.0668 9.22756 28.8811 3.85018 26.7661ZM31.0907 27.9918L29.3304 24.1624C27.6264 24.4187 25.6089 23.9941 24.2505 21.3584C23.4627 21.9432 22.3776 22.6402 20.9469 23.0408C18.849 23.6256 16.6144 23.4093 14.2754 22.3919L13.6645 23.5215L11.5344 27.4711C14.5567 28.1601 17.6513 28.5606 20.7861 28.6808C21.397 28.7048 22.0159 28.7129 22.6268 28.7129C25.4803 28.7129 28.3096 28.4725 31.0907 27.9918ZM9.7018 10.9676C9.91883 10.9756 10.1278 11.0718 10.2725 11.232C10.4172 11.3922 10.4895 11.6085 10.4734 11.8248L9.44458 26.9503C9.60534 26.9984 9.7661 27.0385 9.92686 27.0785L13.2144 20.9658L13.8092 19.8683C14.0182 19.4757 14.5085 19.3315 14.8943 19.5398C15.2882 19.7481 15.4328 20.2368 15.2239 20.6213L15.0309 20.9738C19.7171 22.9687 22.5303 20.6934 23.9129 19.5799L24.0495 19.4677C24.2505 19.3075 24.5157 19.2514 24.7649 19.3155C25.0141 19.3796 25.215 19.5638 25.3034 19.8042C26.2037 22.1756 27.5219 23.0007 29.5877 22.472C29.9654 22.3758 30.3593 22.5601 30.5201 22.9126L32.7144 27.6794C33.0038 27.6153 33.3012 27.5592 33.5905 27.4871L31.9508 16.4955C31.9026 16.191 32.0392 15.8866 32.2964 15.7104C32.5537 15.5341 32.8912 15.5261 33.1565 15.6863C33.1645 15.6863 33.7513 16.0228 34.5872 16.0789C35.1821 16.1189 35.7527 16.0068 36.2833 15.7504C35.1178 15.3338 34.2738 14.5167 33.4539 13.7075C32.1035 12.3936 30.8335 11.1439 27.9801 11.3281C27.546 11.3602 27.1522 11.4323 26.7744 11.5364C26.7905 13.7315 25.6973 15.6623 23.7843 16.7919C22.7554 17.4008 21.606 17.7052 20.5048 17.7052C19.4599 17.7052 18.4551 17.4248 17.6352 16.872C16.7189 16.2471 15.2962 14.733 15.7142 11.5204C14.83 10.519 14.7335 9.0609 14.6451 7.723C14.4522 4.8389 14.2754 2.10701 7.84504 1.64235L7.97365 3.46895C7.99776 3.75736 7.86111 4.02975 7.61998 4.18997C6.2053 5.13532 3.28753 8.32385 1.76032 10.559L2.75702 12.0812C4.01898 11.6886 6.97694 10.8635 9.7018 10.9676Z" fill="white"/>
<path d="M8.12641 5.95249C8.61672 5.96851 9.00253 6.36107 8.98645 6.81772C8.97038 7.27437 8.55241 7.63489 8.0621 7.61886C7.57179 7.60284 7.18598 7.21028 7.20205 6.75363C7.21813 6.28897 7.6361 5.93647 8.12641 5.95249Z" fill="white"/>
<path d="M14.9024 17.8334L14.9104 17.8174C15.1194 17.4248 15.6097 17.2806 15.9955 17.4889C16.3894 17.6972 16.5341 18.1859 16.3251 18.5704L16.317 18.5865C16.1724 18.8588 15.8911 19.0111 15.6097 19.0111C15.4811 19.0111 15.3525 18.979 15.232 18.9149C14.8381 18.7146 14.6934 18.2259 14.9024 17.8334Z" fill="white"/>
</g>
<defs>
<clipPath id="clip0">
<rect width="139" height="135" fill="white" transform="matrix(-1 0 0 1 139 0)"/>
</clipPath>
</defs>
</svg>
