<svg width="21" height="20" viewBox="0 0 21 20" fill="none" xmlns="http://www.w3.org/2000/svg">
<path d="M15.3152 0H5.68477C2.55117 0 0 2.42969 0 5.41406V14.5859C0 17.5703 2.55117 20 5.68477 20H15.3152C18.4488 20 21 17.5703 21 14.5859V5.41406C21 2.42969 18.4488 0 15.3152 0ZM10.5 15.4688C7.33359 15.4688 4.75781 13.0156 4.75781 10C4.75781 6.98438 7.33359 4.53125 10.5 4.53125C13.6664 4.53125 16.2422 6.98438 16.2422 10C16.2422 13.0156 13.6664 15.4688 10.5 15.4688ZM16.3775 5.82031C15.4424 5.82031 14.6795 5.09375 14.6795 4.20312C14.6795 3.3125 15.4424 2.58594 16.3775 2.58594C17.3127 2.58594 18.0756 3.3125 18.0756 4.20312C18.0756 5.09375 17.3168 5.82031 16.3775 5.82031Z" fill="#4DBC08"/>
<path d="M10.5 5.70312C8.01445 5.70312 5.98828 7.62891 5.98828 10C5.98828 12.3672 8.01035 14.2969 10.5 14.2969C12.9855 14.2969 15.0117 12.3711 15.0117 10C15.0117 7.63281 12.9855 5.70312 10.5 5.70312Z" fill="#4DBC08"/>
<path d="M16.3775 3.76172C16.1191 3.76172 15.91 3.96094 15.91 4.20703C15.91 4.45312 16.1191 4.65234 16.3775 4.65234C16.6359 4.65234 16.8451 4.45312 16.8451 4.20703C16.8451 3.96094 16.6359 3.76172 16.3775 3.76172Z" fill="#4DBC08"/>
</svg>
