<svg width="27" height="16" viewBox="0 0 27 16" fill="none" xmlns="http://www.w3.org/2000/svg">
<path d="M23.2213 10.0465C24.1168 10.9125 25.0655 11.7173 25.8635 12.6708C26.2182 13.0907 26.5551 13.5281 26.8122 14.018C27.1757 14.7178 26.8477 15.4789 26.2182 15.5226H22.2904C21.2796 15.6013 20.4639 15.1989 19.7901 14.5166C19.2493 13.9655 18.7439 13.3881 18.2208 12.8195C18.008 12.5921 17.7774 12.3734 17.5115 12.1985C16.9706 11.8573 16.5096 11.9623 16.1992 12.5134C15.8889 13.0732 15.818 13.6943 15.7825 14.3242C15.7382 15.2339 15.4633 15.4789 14.5324 15.5226C12.5463 15.6188 10.6578 15.3214 8.91116 14.3329C7.36843 13.4581 6.17148 12.2334 5.12526 10.8338C3.08601 8.11326 1.53441 5.13028 0.133539 2.06857C-0.176781 1.3775 0.0537428 1.01009 0.82511 0.992597C2.11072 0.966353 3.38747 0.966353 4.67308 0.992597C5.19619 1.00134 5.54197 1.29877 5.73703 1.77989C6.4286 3.45946 7.27977 5.06904 8.34372 6.54741C8.62744 6.94106 8.92003 7.33471 9.32788 7.61464C9.78006 7.92081 10.1347 7.82458 10.3475 7.31721C10.4805 7.00229 10.5426 6.66113 10.578 6.31997C10.6756 5.14777 10.6933 3.98432 10.516 2.81213C10.4096 2.08606 9.99285 1.61369 9.25695 1.47372C8.88456 1.40374 8.93776 1.26378 9.11509 1.05383C9.43427 0.686426 9.72686 0.458984 10.3209 0.458984H14.7629C15.4633 0.598948 15.6141 0.905119 15.7116 1.59619V6.46868C15.7027 6.73986 15.8446 7.53591 16.3411 7.71086C16.7312 7.83333 16.9972 7.52716 17.2277 7.28222C18.2917 6.17126 19.0542 4.85035 19.728 3.4857C20.0295 2.88211 20.2866 2.26102 20.5349 1.63993C20.7211 1.1763 21.0136 0.948858 21.5368 0.957606H25.8103C25.9344 0.957606 26.0674 0.957606 26.1916 0.983849C26.9097 1.10632 27.1136 1.41249 26.8831 2.10356C26.5285 3.19703 25.8546 4.09804 25.1808 5.01656C24.4715 5.98756 23.709 6.93231 22.9997 7.91206C22.3702 8.82182 22.4145 9.26796 23.2213 10.0465Z" fill="#4DBC08"/>
</svg>
